{
.appVersion = "3260";
.formatVersion = 3;
date = "2024-08-05 16:00:02 +0000";
familyName = "MFB Oldstyle";
featurePrefixes = (
{
automatic = 1;
code = "languagesystem DFLT dflt;

languagesystem latn dflt;
languagesystem latn AZE;
languagesystem latn CRT;
languagesystem latn KAZ;
languagesystem latn TAT;
languagesystem latn TRK;
languagesystem latn ROM;
languagesystem latn MOL;
languagesystem latn MAH;
languagesystem latn CAT;
languagesystem latn NLD;
";
name = Languagesystems;
}
);
features = (
{
automatic = 1;
code = "feature locl;
feature subs;
feature sinf;
feature sups;
feature numr;
feature dnom;
feature frac;
feature ordn;
feature pnum;
feature tnum;
";
tag = aalt;
},
{
automatic = 1;
code = "lookup ccmp_DFLT_1 {
	lookupflag 0;
	sub brevecomb acutecomb by brevecomb_acutecomb;
	sub brevecomb gravecomb by brevecomb_gravecomb;
	sub brevecomb hookabovecomb by brevecomb_hookabovecomb;
	sub brevecomb tildecomb by brevecomb_tildecomb;
	sub circumflexcomb acutecomb by circumflexcomb_acutecomb;
	sub circumflexcomb caroncomb by circumflexcomb_caroncomb;
	sub circumflexcomb gravecomb by circumflexcomb_gravecomb;
	sub circumflexcomb hookabovecomb by circumflexcomb_hookabovecomb;
	sub circumflexcomb tildecomb by circumflexcomb_tildecomb;
} ccmp_DFLT_1;

lookup ccmp_Other_1 {
	@CombiningTopAccents = [acutecomb brevecomb breveinvertedcomb candraBinducomb caroncomb circumflexcomb commaturnedabovecomb dblgravecomb dieresiscomb dotaccentcomb gravecomb hookabovecomb hungarumlautcomb macroncomb ringcomb tildecomb];
	lookupflag UseMarkFilteringSet @CombiningTopAccents;
	sub i' @CombiningTopAccents by idotless;
	sub j' @CombiningTopAccents by jdotless;
} ccmp_Other_1;

lookup ccmp_latn_1 {
	lookupflag 0;
	sub fi by f i;
	sub fl by f l;
} ccmp_latn_1;

script latn;
lookup ccmp_latn_1;
";
tag = ccmp;
},
{
automatic = 1;
code = "script latn;
language AZE;
lookup locl_latn_0 {
	sub i by idotaccent;
} locl_latn_0;
language CRT;
lookup locl_latn_0;
language KAZ;
lookup locl_latn_0;

glyphs = (
{
glyphname = A;
kernLeft = A;
kernRight = A;
lastChange = "2024-08-06 00:44:58 +0000";
layers = (
{
anchors = (
{
name = dotbelow;
pos = (290,0);
},
{
name = ogonek;
pos = (528,0);
},
{
name = top;
pos = (354,813);
}
);
layerId = m01;
shapes = (
{
closed = 1;
nodes = (
(216,0,l),
(216,43,l),
(154,45,o),
(135,67,o),
(135,96,cs),
(135,112,o),
(141,140,o),
(147,158,cs),
(175,241,l),
(405,241,l),
(436,138,ls),
(442,118,o),
(450,90,o),
(450,78,cs),
(450,61,o),
(436,43,o),
(378,43,c),
(378,0,l),
(693,0,l),
(693,43,l),
(636,43,o),
(622,61,o),
(612,82,cs),
(605,97,o),
(598,116,o),
(592,136,cs),
(413,749,l),
(295,711,l),
(95,160,ls),
(66,80,o),
(48,43,o),
(-8,43,c),
(-8,0,l)
);
},
{
closed = 1;
nodes = (
(306,619,l),
(389,293,l),
(192,293,l)
);
}
);
width = 686;
}
);
unicode = 65;
},
{
glyphname = AE;
kernLeft = AE;
kernRight = E;
lastChange = "2024-08-06 00:44:58 +0000";
layers = (
{
anchors = (
{
name = top;
pos = (714,813);
}
);
layerId = m01;
shapes = (
{
closed = 1;
nodes = (
(250,0,l),
(250,43,l),
(175,43,o),
(162,61,o),
(162,81,cs),
(162,90,o),
(165,95,o),
(181,121,cs),
(259,248,l),
(537,248,l),
(537,131,ls),
(537,65,o),
(535,46,o),
(443,43,c),
(443,0,l),
(1037,0,l),
(1094,195,l),
(1055,217,l),
(990,129,o),
(902,46,o),
(765,46,cs),
(701,46,o),
(693,64,o),
(693,152,cs),
(693,343,l),
(804,343,o),
(861,324,o),
(872,217,c),
(917,217,l),
(917,509,l),
(872,509,l),
(841,403,o),
(804,394,o),
(693,394,c),
(693,585,ls),
(693,652,o),
(707,668,o),
(767,668,cs),
(909,668,o),
(983,577,o),
(1037,502,c),
(1076,524,l),
(1023,721,l),
(386,721,l),
(386,678,l),
(450,678,o),
(470,677,o),
(470,659,cs),
(470,649,o),
(464,636,o),
(457,626,cs),
(130,143,ls),
(98,96,o),
(52,49,o),
(-8,43,c),
(-8,0,l)
);
},
{
closed = 1;
nodes = (
(537,663,l),
(537,299,l),
(294,299,l)
);
}
);
width = 1131;
}
);
unicode = 198;
},
{
glyphname = B;
kernLeft = B;
kernRight = B;
lastChange = "2024-08-06 00:44:58 +0000";
layers = (
{
anchors = (
{
name = dotbelow;
pos = (345,0);
},
{
name = top;
pos = (347,813);
}
);
layerId = m01;
shapes = (
{
closed = 1;
nodes = (
(370,0,ls),
(592,0,o),
(682,78,o),
(682,192,cs),
(682,317,o),
(575,374,o),
(457,386,c),
(565,400,o),
(644,449,o),
(644,552,cs),
(644,678,o),
(524,721,o),
(370,721,cs),
(36,721,l),
(36,678,l),
(122,675,o),
(125,665,o),
(125,599,cs),
(125,131,ls),
(125,65,o),
(123,46,o),
(36,43,c),
(36,0,l)
);
},
{
closed = 1;
nodes = (
(280,45,o),
(280,71,o),
(280,131,cs),
(280,359,l),
(319,359,ls),
(397,359,o),
(521,359,o),
(521,202,cs),
(521,74,o),
(439,45,o),
(357,45,cs)
);
},
{
closed = 1;
nodes = (
(280,599,ls),
(280,664,o),
(298,677,o),
(355,677,cs),
(424,677,o),
(489,658,o),
(489,542,cs),
(489,455,o),
(453,405,o),
(315,405,cs),
(280,405,l)
);
}
);
width = 726;
}
);
unicode = 66;
},
{
glyphname = Bstroke;
kernLeft = B;
kernRight = B;
lastChange = "2024-08-06 00:44:58 +0000";
layers = (
{
layerId = m01;
shapes = (
{
closed = 1;
nodes = (
(446,198,l),
(446,241,l),
(36,241,l),
(36,198,l)
);
},
{
ref = B;
}
);
width = 726;
}
);
unicode = 579;
},
{
glyphname = C;
kernLeft = C;
kernRight = C;
lastChange = "2024-08-06 00:44:58 +0000";
layers = (
{
anchors = (
{
name = attachcedilla;
pos = (325,-17);
},
{
name = top;
pos = (349,813);
}
);
layerId = m01;
shapes = (
{
closed = 1;
nodes = (
(494,-18,o),
(597,55,o),
(657,196,c),
(617,215,l),
(569,124,o),
(508,68,o),
(421,68,cs),
(269,68,o),
(204,241,o),
(204,415,cs),
(204,607,o),
(284,692,o),
(374,692,cs),
(453,692,o),
(528,626,o),
(591,505,c),
(637,522,l),
(583,729,l),
(562,737,l),
(544,729,o),
(517,710,o),
(501,710,cs),
(481,710,o),
(435,739,o),
(367,739,cs),
(203,739,o),
(43,572,o),
(43,338,cs),
(43,118,o),
(185,-18,o),
(363,-18,cs)
);
}
);
width = 676;
}
);
unicode = 67;
},
{
glyphname = Ccedilla;
kernLeft = C;
kernRight = C;
lastChange = "2024-08-06 00:44:58 +0000";
layers = (
{
anchors = (
{
name = attachcedilla;
pos = (325,-17);
},
{
name = top;
pos = (349,813);
}
);
layerId = m01;
shapes = (
{
closed = 1;
nodes = (
(387,-217,o),
(440,-186,o),
(440,-132,cs),
(440,-92,o),
(410,-63,o),
(370,-63,cs),
(354,-63,o),
(337,-68,o),
(337,-68,c),
(356,-13,l),
(469,-6,o),
(565,65,o),
(615,192,c),
(576,209,l),
(543,128,o),
(470,63,o),
(375,63,cs),
(264,63,o),
(151,152,o),
(151,377,cs),
(151,574,o),
(238,692,o),
(351,692,cs),
(451,692,o),
(542,600,o),
(575,524,c),
(615,541,l),
(554,729,l),
(537,723,o),
(502,709,o),
(481,709,cs),
(453,709,o),
(423,735,o),
(355,735,cs),
(157,735,o),
(43,514,o),
(43,324,cs),
(43,134,o),
(157,-5,o),
(324,-14,c),
(292,-93,l),
(303,-99,l),
(309,-98,o),
(321,-96,o),
(331,-96,cs),
(363,-96,o),
(372,-115,o),
(372,-134,cs),
(372,-166,o),
(343,-183,o),
(312,-183,cs),
(284,-183,o),
(257,-171,o),
(242,-164,c),
(225,-197,l),
(249,-208,o),
(279,-217,o),
(317,-217,cs)
);
}
);
width = 654;
}
);
unicode = 199;
},
{
glyphname = D;
kernLeft = D;
kernRight = D;
lastChange = "2024-08-06 00:44:58 +0000";
layers = (
{
anchors = (
{
name = commaaccentbelow;
pos = (362,0);
},
{
name = dotbelow;
pos = (335,0);
},
{
name = top;
pos = (356,813);
}
);
layerId = m01;
shapes = (
{
closed = 1;
nodes = (
(370,0,ls),
(522,0,o),
(600,50,o),
(656,120,cs),
(709,186,o),
(735,261,o),
(735,352,cs),
(735,442,o),
(709,573,o),
(598,657,cs),
(539,701,o),
(471,721,o),
(348,721,cs),
(36,721,l),
(36,678,l),
(122,675,o),
(125,665,o),
(125,599,cs),
(125,131,ls),
(125,65,o),
(123,46,o),
(36,43,c),
(36,0,l)
);
},
{
closed = 1;
nodes = (
(281,44,o),
(280,65,o),
(280,131,cs),
(280,599,ls),
(280,665,o),
(302,674,o),
(360,674,cs),
(470,674,o),
(565,643,o),
(565,358,cs),
(565,115,o),
(496,44,o),
(357,44,cs)
);
}
);
width = 779;
}
);
unicode = 68;
},
{
glyphname = Dcroat;
kernLeft = D;
kernRight = D;
lastChange = "2024-08-06 00:44:58 +0000";
layers = (
{
layerId = m01;
shapes = (
{
closed = 1;
nodes = (
(446,349,l),
(446,392,l),
(36,392,l),
(36,349,l)
);
},
{
ref = D;
}
);
width = 779;
}
);
unicode = 272;
},
{
glyphname = Eth;
kernLeft = D;
kernRight = D;
lastChange = "2024-08-06 00:44:58 +0000";
layers = (
{
layerId = m01;
shapes = (
{
closed = 1;
nodes = (
(413,346,l),
(413,388,l),
(31,388,l),
(31,346,l)
);
},
{
ref = D;
}
);
width = 721;
}
);
unicode = 208;
},
{
glyphname = E;
kernLeft = E;
kernRight = E;
lastChange = "2024-08-06 00:44:58 +0000";
layers = (
{
anchors = (
{
name = attachcedilla;
pos = (342,17);
},
{
name = dotbelow;
pos = (343,0);
},
{
name = ogonek;
pos = (446,0);
},
{
name = top;
pos = (343,813);
}
);
layerId = m01;
shapes = (
{
closed = 1;
nodes = (
(624,0,l),
(681,195,l),
(642,217,l),
(577,129,o),
(489,46,o),
(352,46,cs),
(288,46,o),
(280,64,o),
(280,152,cs),
(280,343,l),
(391,343,o),
(448,324,o),
(459,217,c),
(504,217,l),
(504,509,l),
(459,509,l),
(428,403,o),
(391,394,o),
(280,394,c),
(280,585,ls),
(280,652,o),
(294,668,o),
(354,668,cs),
(496,668,o),
(570,577,o),
(624,502,c),
(663,524,l),
(606,721,l),
(36,721,l),
(36,678,l),
(122,675,o),
(125,665,o),
(125,599,cs),
(125,131,ls),
(125,65,o),
(123,46,o),
(36,43,c),
(36,0,l)
);
}
);
width = 718;
}
);
unicode = 69;
},
{
glyphname = F;
kernLeft = E;
kernRight = F;
lastChange = "2024-08-06 00:44:58 +0000";
layers = (
{
anchors = (
{
name = top;
pos = (343,813);
}
);
layerId = m01;
shapes = (
{
closed = 1;
nodes = (
(385,0,l),
(385,43,l),
(294,43,o),
(280,54,o),
(280,131,cs),
(280,343,l),
(394,343,o),
(450,326,o),
(462,219,c),
(506,219,l),
(506,507,l),
(462,507,l),
(430,401,o),
(394,394,o),
(280,394,c),
(280,587,ls),
(280,653,o),
(294,671,o),
(351,671,cs),
(480,671,o),
(561,578,o),
(616,501,c),
(652,522,l),
(594,721,l),
(36,721,l),
(36,678,l),
(122,675,o),
(125,665,o),
(125,599,cs),
(125,131,ls),
(125,65,o),
(123,46,o),
(36,43,c),
(36,0,l)
);
}
);
width = 661;
}
);
unicode = 70;
},
{
glyphname = G;
kernLeft = G;
kernRight = G;
lastChange = "2024-08-06 00:44:58 +0000";
layers = (
{
anchors = (
{
name = commaaccentbelow;
pos = (356,0);
},
{
name = top;
pos = (387,813);
}
);
layerId = m01;
shapes = (
{
closed = 1;
nodes = (
(479,-18,o),
(565,23,o),
(609,22,cs),
(666,21,l),
(666,176,ls),
(666,242,o),
(666,278,o),
(747,278,c),
(747,321,l),
(427,321,l),
(427,278,l),
(508,275,o),
(524,258,o),
(524,192,cs),
(524,101,o),
(494,26,o),
(389,26,cs),
(241,26,o),
(213,177,o),
(213,337,cs),
(213,598,o),
(288,695,o),
(397,695,cs),
(455,695,o),
(538,668,o),
(625,503,c),
(667,520,l),
(619,729,l),
(596,731,l),
(577,722,o),
(554,707,o),
(539,707,cs),
(517,707,o),
(474,739,o),
(389,739,cs),
(187,739,o),
(43,560,o),
(43,342,cs),
(43,114,o),
(201,-18,o),
(380,-18,cs)
);
}
);
width = 777;
}
);
unicode = 71;
},
{
glyphname = H;
kernLeft = H;
kernRight = H;
lastChange = "2024-08-06 00:44:58 +0000";
layers = (
{
anchors = (
{
name = attachcedilla;
pos = (181,17);
},
{
name = dotbelow;
pos = (392,0);
},
{
name = top;
pos = (400,813);
}
);
layerId = m01;
shapes = (
{
closed = 1;
nodes = (
(366,0,l),
(366,43,l),
(279,46,o),
(280,65,o),
(280,131,cs),
(280,341,l),
(524,341,l),
(524,131,ls),
(524,65,o),
(525,46,o),
(438,43,c),
(438,0,l),
(769,0,l),
(769,43,l),
(681,46,o),
(679,65,o),
(679,131,cs),
(679,599,ls),
(679,665,o),
(682,675,o),
(769,678,c),
(769,721,l),
(438,721,l),
(438,678,l),
(524,675,o),
(524,665,o),
(524,599,cs),
(524,392,l),
(280,392,l),
(280,599,ls),
(280,665,o),
(280,675,o),
(366,678,c),
(366,721,l),
(36,721,l),
(36,678,l),
(122,675,o),
(125,665,o),
(125,599,cs),
(125,131,ls),
(125,65,o),
(123,46,o),
(36,43,c),
(36,0,l)
);
}
);
width = 805;
}
);
unicode = 72;
},
{
glyphname = Hbar;
kernLeft = H;
kernRight = H;
lastChange = "2024-08-06 00:44:58 +0000";
layers = (
{
layerId = m01;
shapes = (
{
closed = 1;
nodes = (
(769,514,l),
(769,557,l),
(36,557,l),
(36,514,l)
);
},
{
ref = H;
}
);
width = 805;
}
);
unicode = 294;
},
{
glyphname = I;
kernLeft = I;
kernRight = I;
lastChange = "2024-08-06 00:44:58 +0000";
layers = (
{
anchors = (
{
name = dotbelow;
pos = (192,0);
},
{
name = ogonek;
pos = (195,0);
},
{
name = top;
pos = (203,813);
}
);
layerId = m01;
shapes = (
{
closed = 1;
nodes = (
(370,0,l),
(370,43,l),
(282,46,o),
(280,65,o),
(280,131,cs),
(280,599,ls),
(280,665,o),
(283,675,o),
(370,678,c),
(370,721,l),
(36,721,l),
(36,678,l),
(122,675,o),
(125,665,o),
(125,599,cs),
(125,131,ls),
(125,65,o),
(123,46,o),
(36,43,c),
(36,0,l)
);
}
);
width = 408;
}
);
unicode = 73;
},
{
glyphname = J;
kernLeft = J;
kernRight = J;
lastChange = "2024-08-06 00:44:58 +0000";
layers = (
{
anchors = (
{
name = top;
pos = (297,813);
}
);
layerId = m01;
shapes = (
{
closed = 1;
nodes = (
(226,-18,o),
(292,17,o),
(335,77,cs),
(365,119,o),
(374,154,o),
(374,250,cs),
(374,599,ls),
(374,665,o),
(377,675,o),
(464,678,c),
(464,721,l),
(125,721,l),
(125,678,l),
(212,675,o),
(219,665,o),
(219,599,cs),
(219,163,ls),
(219,60,o),
(204,39,o),
(180,39,cs),
(153,39,o),
(152,67,o),
(145,98,cs),
(136,138,o),
(118,177,o),
(67,177,cs),
(23,177,o),
(-11,147,o),
(-11,98,cs),
(-11,36,o),
(44,-18,o),
(145,-18,cs)
);
}
);
width = 493;
}
);
unicode = 74;
},
{
glyphname = K;
kernLeft = K;
kernRight = K;
lastChange = "2024-08-06 00:44:58 +0000";
layers = (
{
anchors = (
{
name = commaaccentbelow;
pos = (386,0);
},
{
name = dotbelow;
pos = (382,0);
},
{
name = top;
pos = (390,813);
}
);
layerId = m01;
shapes = (
{
closed = 1;
nodes = (
(366,0,l),
(366,43,l),
(279,46,o),
(280,65,o),
(280,131,cs),
(280,283,l),
(360,368,l),
(490,120,ls),
(499,103,o),
(514,76,o),
(514,66,cs),
(514,53,o),
(492,43,o),
(444,43,c),
(444,0,l),
(768,0,l),
(768,43,l),
(710,43,o),
(694,68,o),
(677,99,cs),
(467,476,l),
(546,561,ls),
(570,587,o),
(642,678,o),
(752,678,c),
(752,721,l),
(459,721,l),
(459,678,l),
(517,674,o),
(533,667,o),
(533,641,cs),
(533,624,o),
(526,612,o),
(510,595,cs),
(280,357,l),
(280,599,ls),
(280,665,o),
(280,675,o),
(366,678,c),
(366,721,l),
(36,721,l),
(36,678,l),
(122,675,o),
(125,665,o),
(125,599,cs),
(125,131,ls),
(125,65,o),
(123,46,o),
(36,43,c),
(36,0,l)
);
}
);
width = 761;
}
);
unicode = 75;
},
{
glyphname = L;
kernLeft = L;
kernRight = L;
lastChange = "2024-08-06 00:44:58 +0000";
layers = (
{
anchors = (
{
name = caroncombalt;
pos = (523,735);
},
{
name = commaaccentbelow;
pos = (328,0);
},
{
name = dotbelow;
pos = (318,0);
},
{
name = ldot;
pos = (441,293);
},
{
name = top;
pos = (203,813);
}
);
layerId = m01;
shapes = (
{
closed = 1;
nodes = (
(606,0,l),
(665,194,l),
(631,214,l),
(550,117,o),
(466,43,o),
(352,43,cs),
(280,43,o),
(280,72,o),
(280,131,cs),
(280,599,ls),
(280,665,o),
(294,675,o),
(381,678,c),
(381,721,l),
(36,721,l),
(36,678,l),
(122,675,o),
(125,665,o),
(125,599,cs),
(125,131,ls),
(125,65,o),
(123,46,o),
(36,43,c),
(36,0,l)
);
}
);
width = 658;
}
);
unicode = 76;
},
{
glyphname = Lslash;
kernLeft = L;
kernRight = L;
lastChange = "2024-08-06 00:44:58 +0000";
layers = (
{
anchors = (
{
name = caroncombalt;
pos = (523,735);
},
{
name = commaaccentbelow;
pos = (328,0);
},
{
name = dotbelow;
pos = (318,0);
},
{
name = ldot;
pos = (441,293);
},
{
name = top;
pos = (203,813);
}
);
layerId = m01;
shapes = (
{
closed = 1;
nodes = (
(606,0,l),
(665,194,l),
(631,214,l),
(550,117,o),
(466,43,o),
(352,43,cs),
(280,43,o),
(280,72,o),
(280,131,cs),
(280,369,l),
(481,499,l),
(457,535,l),
(280,419,l),
(280,599,ls),
(280,665,o),
(294,675,o),
(381,678,c),
(381,721,l),
(36,721,l),
(36,678,l),
(122,675,o),
(125,665,o),
(125,599,cs),
(125,334,l),
(25,268,l),
(48,232,l),
(125,282,l),
(125,131,ls),
(125,65,o),
(123,46,o),
(36,43,c),
(36,0,l)
);
}
);
width = 658;
}
);
unicode = 321;
},
{
glyphname = M;
kernLeft = M;
kernRight = M;
lastChange = "2024-08-06 00:44:58 +0000";
layers = (
{
anchors = (
{
name = dotbelow;
pos = (391,0);
},
{
name = top;
pos = (455,813);
}
);
layerId = m01;
shapes = (
{
closed = 1;
nodes = (
(266,0,l),
(266,43,l),
(178,46,o),
(176,141,o),
(176,206,cs),
(176,636,l),
(382,0,l),
(421,0,l),
(634,622,l),
(634,131,ls),
(634,65,o),
(631,46,o),
(544,43,c),
(544,0,l),
(878,0,l),
(878,43,l),
(790,46,o),
(788,65,o),
(788,131,cs),
(788,599,ls),
(788,665,o),
(791,675,o),
(878,678,c),
(878,721,l),
(615,721,l),
(455,258,l),
(307,721,l),
(36,721,l),
(36,678,l),
(122,675,o),
(125,665,o),
(125,599,cs),
(125,206,ls),
(125,141,o),
(123,46,o),
(36,43,c),
(36,0,l)
);
}
);
width = 915;
}
);
unicode = 77;
},
{
glyphname = N;
kernLeft = N;
kernRight = N;
lastChange = "2024-08-06 00:44:58 +0000";
layers = (
{
anchors = (
{
name = commaaccentbelow;
pos = (363,0);
},
{
name = dotbelow;
pos = (356,0);
},
{
name = top;
pos = (375,813);
}
);
layerId = m01;
shapes = (
{
closed = 1;
nodes = (
(266,0,l),
(266,43,l),
(178,46,o),
(176,141,o),
(176,206,cs),
(176,576,l),
(539,0,l),
(634,0,l),
(634,515,ls),
(634,581,o),
(636,675,o),
(723,678,c),
(723,721,l),
(493,721,l),
(493,678,l),
(581,675,o),
(583,581,o),
(583,515,cs),
(583,211,l),
(262,721,l),
(36,721,l),
(36,678,l),
(101,669,o),
(125,640,o),
(125,631,cs),
(125,206,ls),
(125,141,o),
(123,46,o),
(36,43,c),
(36,0,l)
);
}
);
width = 752;
}
);
unicode = 78;
},
{
glyphname = O;
kernLeft = O;
kernRight = O;
lastChange = "2024-08-06 00:44:58 +0000";
layers = (
{
anchors = (
{
name = attachhorn;
pos = (623,592);
},
{
name = dotbelow;
pos = (381,0);
},
{
name = ogonek;
pos = (452,0);
},
{
name = top;
pos = (381,813);
}
);
layerId = m01;
shapes = (
{
closed = 1;
nodes = (
(575,-18,o),
(722,137,o),
(722,362,cs),
(722,581,o),
(576,739,o),
(382,739,cs),
(187,739,o),
(43,578,o),
(43,362,cs),
(43,111,o),
(213,-18,o),
(384,-18,cs)
);
},
{
closed = 1;
nodes = (
(278,26,o),
(213,133,o),
(213,360,cs),
(213,661,o),
(323,695,o),
(385,695,cs),
(497,695,o),
(552,582,o),
(552,354,cs),
(552,137,o),
(495,26,o),
(381,26,cs)
);
}
);
width = 765;
}
);
unicode = 79;
},
{
glyphname = Oslash;
kernLeft = O;
kernRight = O;
lastChange = "2024-08-06 02:19:01 +0000";
layers = (
{
layerId = m01;
shapes = (
{
closed = 1;
nodes = (
(600,734,l),
(561,754,l),
(164,-15,l),
(202,-37,l)
);
},
{
ref = O;
}
);
width = 765;
}
);
unicode = 216;
},
{
glyphname = OE;
kernLeft = O;
kernRight = E;
lastChange = "2024-08-06 00:44:58 +0000";
layers = (
{
anchors = (
{
name = top;
pos = (568,813);
}
);
layerId = m01;
shapes = (
{
closed = 1;
nodes = (
(956,0,l),
(1012,190,l),
(977,212,l),
(916,128,o),
(842,46,o),
(710,46,cs),
(635,46,o),
(635,73,o),
(635,152,cs),
(635,343,l),
(746,343,o),
(802,324,o),
(814,217,c),
(858,217,l),
(858,509,l),
(814,509,l),
(783,403,o),
(746,394,o),
(635,394,c),
(635,585,ls),
(635,653,o),
(649,668,o),
(709,668,cs),
(846,668,o),
(906,590,o),
(962,508,c),
(999,531,l),
(945,721,l),
(423,721,ls),
(299,721,o),
(237,700,o),
(181,657,cs),
(67,569,o),
(43,442,o),
(43,352,cs),
(43,256,o),
(70,187,o),
(122,120,cs),
(178,48,o),
(246,0,o),
(394,0,cs)
);
},
{
closed = 1;
nodes = (
(237,44,o),
(204,134,o),
(204,348,cs),
(204,643,o),
(267,671,o),
(366,671,cs),
(434,671,o),
(485,658,o),
(485,556,cs),
(485,185,ls),
(485,127,o),
(485,44,o),
(364,44,cs)
);
}
);
width = 1049;
}
);
unicode = 338;
},
{
glyphname = P;
kernLeft = P;
kernRight = P;
lastChange = "2024-08-06 00:44:58 +0000";
layers = (
{
anchors = (
{
name = top;
pos = (347,813);
}
);
layerId = m01;
shapes = (
{
closed = 1;
nodes = (
(370,0,l),
(370,43,l),
(282,46,o),
(280,65,o),
(280,131,cs),
(280,329,l),
(389,329,ls),
(488,329,o),
(546,349,o),
(589,389,cs),
(631,429,o),
(650,481,o),
(650,526,cs),
(650,586,o),
(617,667,o),
(523,702,cs),
(471,721,o),
(413,721,o),
(336,721,cs),
(36,721,l),
(36,678,l),
(122,675,o),
(125,665,o),
(125,599,cs),
(125,131,ls),
(125,65,o),
(123,46,o),
(36,43,c),
(36,0,l)
);
},
{
closed = 1;
nodes = (
(280,591,ls),
(280,655,o),
(294,679,o),
(360,679,cs),
(461,679,o),
(484,622,o),
(484,533,cs),
(484,404,o),
(435,376,o),
(338,376,cs),
(280,376,l)
);
}
);
width = 683;
}
);
unicode = 80;
},
{
glyphname = Thorn;
kernLeft = P;
kernRight = P;
lastChange = "2024-08-06 00:44:58 +0000";
layers = (
{
anchors = (
{
name = top;
pos = (347,813);
}
);
layerId = m01;
shapes = (
{
closed = 1;
nodes = (
(370,0,l),
(370,43,l),
(282,46,o),
(280,65,o),
(280,131,cs),
(280,170,l),
(389,170,ls),
(488,170,o),
(546,190,o),
(589,230,cs),
(631,270,o),
(650,322,o),
(650,367,cs),
(650,427,o),
(617,508,o),
(523,543,cs),
(471,562,o),
(413,562,o),
(336,562,cs),
(280,562,l),
(280,599,ls),
(280,665,o),
(283,675,o),
(370,678,c),
(370,721,l),
(36,721,l),
(36,678,l),
(122,675,o),
(125,665,o),
(125,599,cs),
(125,131,ls),
(125,65,o),
(123,46,o),
(36,43,c),
(36,0,l)
);
},
{
closed = 1;
nodes = (
(280,432,ls),
(280,496,o),
(294,520,o),
(360,520,cs),
(461,520,o),
(484,463,o),
(484,374,cs),
(484,245,o),
(435,217,o),
(338,217,cs),
(280,217,l)
);
}
);
width = 683;
}
);
unicode = 222;
},
{
glyphname = Q;
kernLeft = Q;
kernRight = Q;
lastChange = "2024-08-06 00:44:58 +0000";
layers = (
{
anchors = (
{
name = top;
pos = (381,813);
}
);
layerId = m01;
shapes = (
{
closed = 1;
nodes = (
(653,-146,o),
(709,-93,o),
(743,-42,c),
(708,-12,l),
(697,-26,o),
(677,-48,o),
(654,-48,cs),
(626,-48,o),
(591,-8,o),
(563,40,c),
(655,104,o),
(719,218,o),
(719,360,cs),
(719,581,o),
(563,739,o),
(383,739,cs),
(199,739,o),
(43,573,o),
(43,350,cs),
(43,116,o),
(215,-18,o),
(379,-18,cs),
(399,-18,o),
(422,-16,o),
(438,-12,c),
(456,-95,o),
(505,-146,o),
(578,-146,cs)
);
},
{
closed = 1;
nodes = (
(314,26,o),
(288,62,o),
(288,100,cs),
(288,143,o),
(322,163,o),
(354,163,cs),
(400,163,o),
(424,120,o),
(431,35,c),
(418,31,o),
(400,26,o),
(377,26,cs)
);
},
{
closed = 1;
nodes = (
(490,146,o),
(438,208,o),
(359,208,cs),
(301,208,o),
(245,175,o),
(248,107,c),
(227,162,o),
(213,259,o),
(213,364,cs),
(213,660,o),
(323,695,o),
(386,695,cs),
(499,695,o),
(550,581,o),
(550,343,cs),
(550,243,o),
(541,178,o),
(515,96,c)
);
}
);
width = 762;
}
);
unicode = 81;
},
{
glyphname = R;
kernLeft = R;
kernRight = R;
lastChange = "2024-08-06 00:44:58 +0000";
layers = (
{
anchors = (
{
name = commaaccentbelow;
pos = (384,0);
},
{
name = dotbelow;
pos = (369,0);
},
{
name = top;
pos = (347,813);
}
);
layerId = m01;
shapes = (
{
closed = 1;
nodes = (
(366,0,l),
(366,43,l),
(279,46,o),
(280,65,o),
(280,131,cs),
(280,344,l),
(291,344,ls),
(325,344,o),
(342,328,o),
(365,281,cs),
(501,0,l),
(716,0,l),
(716,39,l),
(643,44,o),
(618,97,o),
(586,165,cs),
(536,271,o),
(503,348,o),
(453,369,c),
(502,369,o),
(552,377,o),
(596,415,cs),
(646,458,o),
(651,508,o),
(651,537,cs),
(651,600,o),
(628,663,o),
(524,698,cs),
(477,714,o),
(422,721,o),
(336,721,cs),
(36,721,l),
(36,678,l),
(122,675,o),
(125,665,o),
(125,599,cs),
(125,131,ls),
(125,65,o),
(123,46,o),
(36,43,c),
(36,0,l)
);
},
{
closed = 1;
nodes = (
(280,587,ls),
(280,651,o),
(294,676,o),
(358,676,cs),
(454,676,o),
(489,620,o),
(489,532,cs),
(489,440,o),
(451,389,o),
(338,389,cs),
(280,389,l)
);
}
);
width = 708;
}
);
unicode = 82;
},
{
glyphname = S;
kernLeft = S;
kernRight = S;
lastChange = "2024-08-06 00:44:58 +0000";
layers = (
{
anchors = (
{
name = attachcedilla;
pos = (291,17);
},
{
name = commaaccentbelow;
pos = (292,0);
},
{
name = dotbelow;
pos = (280,0);
},
{
name = top;
pos = (280,813);
}
);
layerId = m01;
shapes = (
{
closed = 1;
nodes = (
(466,-18,o),
(571,71,o),
(571,209,cs),
(571,481,o),
(164,417,o),
(164,587,cs),
(164,640,o),
(204,688,o),
(272,688,cs),
(376,688,o),
(454,577,o),
(496,506,c),
(541,521,l),
(490,725,l),
(466,731,l),
(450,720,o),
(427,706,o),
(411,706,cs),
(387,706,o),
(343,739,o),
(272,739,cs),
(154,739,o),
(62,648,o),
(62,522,cs),
(62,262,o),
(458,323,o),
(458,146,cs),
(458,86,o),
(413,34,o),
(330,34,cs),
(218,34,o),
(135,129,o),
(80,226,c),
(36,211,l),
(88,-10,l),
(110,-12,l),
(120,-5,o),
(151,19,o),
(172,19,cs),
(198,19,o),
(240,-18,o),
(329,-18,cs)
);
}
);
width = 606;
}
);
unicode = 83;
},
{
glyphname = Germandbls;
kernLeft = I;
kernRight = S;
lastChange = "2024-08-06 00:44:58 +0000";
layers = (
{
layerId = m01;
shapes = (
{
closed = 1;
nodes = (
(859,-18,o),
(964,71,o),
(964,209,cs),
(964,481,o),
(558,431,o),
(558,601,cs),
(558,655,o),
(598,688,o),
(668,688,cs),
(743,688,l),
(743,739,l),
(392,739,ls),
(245,739,o),
(125,657,o),
(125,498,cs),
(125,131,ls),
(125,65,o),
(123,46,o),
(36,43,c),
(36,0,l),
(370,0,l),
(370,43,l),
(282,46,o),
(280,65,o),
(280,131,cs),
(280,528,ls),
(280,644,o),
(359,688,o),
(438,688,cs),
(526,688,l),
(482,649,o),
(455,604,o),
(455,536,cs),
(455,277,o),
(852,323,o),
(852,146,cs),
(852,85,o),
(805,34,o),
(723,34,cs),
(610,34,o),
(527,132,o),
(474,226,c),
(429,211,l),
(481,-10,l),
(504,-12,l),
(511,-7,o),
(545,19,o),
(566,19,cs),
(592,19,o),
(634,-18,o),
(722,-18,cs)
);
}
);
width = 999;
}
);
metricLeft = I;
metricRight = S;
unicode = 7838;
},
{
glyphname = T;
kernLeft = T;
kernRight = T;
lastChange = "2024-08-06 00:44:58 +0000";
layers = (
{
anchors = (
{
name = attachcedilla;
pos = (314,17);
},
{
name = commaaccentbelow;
pos = (326,0);
},
{
name = dotbelow;
pos = (315,0);
},
{
name = top;
pos = (325,813);
}
);
layerId = m01;
shapes = (
{
closed = 1;
nodes = (
(492,0,l),
(492,43,l),
(404,46,o),
(402,65,o),
(402,131,cs),
(402,670,l),
(502,653,o),
(560,575,o),
(603,511,c),
(649,523,l),
(601,721,l),
(56,721,l),
(3,521,l),
(45,503,l),
(89,566,o),
(148,653,o),
(248,670,c),
(248,131,ls),
(248,65,o),
(245,46,o),
(158,43,c),
(158,0,l)
);
}
);
width = 641;
}
);
unicode = 84;
},
{
glyphname = U;
kernLeft = U;
kernRight = U;
lastChange = "2024-08-06 00:44:58 +0000";
layers = (
{
anchors = (
{
name = attachhorn;
pos = (748,592);
},
{
name = dotbelow;
pos = (384,0);
},
{
name = ogonek;
pos = (478,0);
},
{
name = top;
pos = (396,813);
}
);
layerId = m01;
shapes = (
{
closed = 1;
nodes = (
(567,-21,o),
(637,71,o),
(637,251,cs),
(637,515,ls),
(637,581,o),
(639,675,o),
(726,678,c),
(726,721,l),
(496,721,l),
(496,678,l),
(584,675,o),
(586,581,o),
(586,515,cs),
(586,246,ls),
(586,66,o),
(506,31,o),
(423,31,cs),
(377,31,o),
(336,42,o),
(310,74,cs),
(284,106,o),
(277,153,o),
(277,231,cs),
(277,599,ls),
(277,665,o),
(280,675,o),
(366,678,c),
(366,721,l),
(32,721,l),
(32,678,l),
(119,675,o),
(122,665,o),
(122,599,cs),
(122,251,ls),
(122,169,o),
(128,104,o),
(172,54,cs),
(211,9,o),
(278,-21,o),
(383,-21,cs)
);
}
);
width = 751;
}
);
unicode = 85;
},
{
glyphname = Uhorn;
kernLeft = U;
kernRight = horn;
lastChange = "2024-08-06 00:44:58 +0000";
layers = (
{
layerId = m01;
shapes = (
{
closed = 1;
nodes = (
(875,598,o),
(937,682,o),
(937,771,cs),
(937,839,o),
(901,881,o),
(848,881,cs),
(798,881,o),
(766,843,o),
(766,796,cs),
(766,724,o),
(841,733,o),
(841,692,cs),
(841,656,o),
(786,608,o),
(629,520,c),
(629,464,l)
);
},
{
ref = U;
}
);
width = 916;
}
);
unicode = 431;
},
{
glyphname = Uogonek;
kernLeft = U;
kernRight = U;
lastChange = "2024-08-06 00:44:58 +0000";
layers = (
{
layerId = m01;
shapes = (
{
closed = 1;
nodes = (
(548,-212,o),
(578,-199,o),
(601,-183,c),
(589,-162,l),
(577,-168,o),
(565,-171,o),
(549,-171,cs),
(489,-171,o),
(464,-130,o),
(464,-91,cs),
(464,-39,o),
(509,-6,o),
(532,12,c),
(478,0,l),
(426,-27,o),
(395,-64,o),
(395,-113,cs),
(395,-169,o),
(435,-212,o),
(508,-212,cs)
);
},
{
ref = U;
}
);
width = 751;
}
);
unicode = 370;
},
{
glyphname = V;
kernLeft = V;
kernRight = V;
lastChange = "2024-08-06 00:44:58 +0000";
layers = (
{
anchors = (
{
name = dotbelow;
pos = (328,0);
},
{
name = top;
pos = (365,813);
}
);
layerId = m01;
shapes = (
{
closed = 1;
nodes = (
(374,-12,l),
(550,518,ls),
(572,584,o),
(598,676,o),
(682,678,c),
(682,721,l),
(451,721,l),
(451,678,l),
(501,676,o),
(526,666,o),
(526,632,cs),
(526,613,o),
(518,579,o),
(501,528,cs),
(391,195,l),
(252,624,ls),
(251,627,o),
(248,641,o),
(248,648,cs),
(248,666,o),
(266,678,o),
(317,678,c),
(317,721,l),
(0,721,l),
(0,678,l),
(67,676,o),
(75,663,o),
(96,601,cs),
(301,-12,l)
);
}
);
width = 682;
}
);
unicode = 86;
},
{
glyphname = W;
kernLeft = V;
kernRight = V;
lastChange = "2024-08-06 00:44:58 +0000";
layers = (
{
anchors = (
{
name = dotbelow;
pos = (456,0);
},
{
name = top;
pos = (493,813);
}
);
layerId = m01;
shapes = (
{
closed = 1;
nodes = (
(328,-12,l),
(478,461,l),
(616,-12,l),
(675,-12,l),
(844,517,ls),
(865,583,o),
(883,663,o),
(968,678,c),
(968,721,l),
(752,721,l),
(752,678,l),
(802,676,o),
(819,657,o),
(819,626,cs),
(819,606,o),
(812,582,o),
(796,528,cs),
(701,208,l),
(582,622,ls),
(570,663,o),
(576,643,o),
(576,651,cs),
(576,663,o),
(589,678,o),
(639,678,c),
(639,721,l),
(349,721,l),
(349,678,l),
(410,678,o),
(409,663,o),
(430,601,cs),
(454,529,l),
(349,208,l),
(237,613,ls),
(234,624,o),
(230,642,o),
(230,650,cs),
(230,663,o),
(241,678,o),
(292,678,c),
(292,721,l),
(0,721,l),
(0,678,l),
(61,678,o),
(64,664,o),
(83,601,cs),
(268,-12,l)
);
}
);
width = 968;
}
);
unicode = 87;
},
{
glyphname = X;
kernLeft = X;
kernRight = X;
lastChange = "2024-08-06 00:44:58 +0000";
layers = (
{
anchors = (
{
name = top;
pos = (362,813);
}
);
layerId = m01;
shapes = (
{
closed = 1;
nodes = (
(253,0,l),
(253,43,l),
(203,45,o),
(182,60,o),
(182,85,cs),
(182,96,o),
(186,115,o),
(208,146,cs),
(312,293,l),
(434,101,ls),
(441,90,o),
(448,76,o),
(448,66,cs),
(448,48,o),
(427,43,o),
(378,43,c),
(378,0,l),
(692,0,l),
(692,43,l),
(642,43,o),
(634,61,o),
(597,120,cs),
(406,424,l),
(518,579,ls),
(544,615,o),
(584,677,o),
(666,678,c),
(666,721,l),
(425,721,l),
(425,678,l),
(475,676,o),
(490,660,o),
(490,638,cs),
(490,624,o),
(484,613,o),
(467,589,cs),
(378,464,l),
(285,615,ls),
(280,623,o),
(274,640,o),
(274,653,cs),
(274,665,o),
(280,678,o),
(328,678,c),
(328,721,l),
(11,721,l),
(11,678,l),
(78,676,o),
(81,658,o),
(119,599,cs),
(286,335,l),
(146,142,ls),
(118,104,o),
(80,44,o),
(-1,43,c),
(-1,0,l)
);
}
);
width = 690;
}
);
unicode = 88;
},
{
glyphname = Y;
kernLeft = Y;
kernRight = Y;
lastChange = "2024-08-06 00:44:58 +0000";
layers = (
{
anchors = (
{
name = dotbelow;
pos = (312,0);
},
{
name = top;
pos = (342,791);
}
);
layerId = m01;
shapes = (
{
closed = 1;
nodes = (
(496,0,l),
(496,43,l),
(409,46,o),
(402,65,o),
(402,131,cs),
(402,350,l),
(556,608,ls),
(585,657,o),
(603,666,o),
(642,678,c),
(642,721,l),
(434,721,l),
(434,678,l),
(481,676,o),
(498,664,o),
(498,635,cs),
(498,609,o),
(485,590,o),
(451,528,cs),
(375,391,l),
(255,618,ls),
(248,631,o),
(241,646,o),
(241,654,cs),
(241,668,o),
(267,678,o),
(301,678,c),
(301,721,l),
(0,721,l),
(0,678,l),
(48,675,o),
(54,664,o),
(90,601,cs),
(248,325,l),
(248,131,ls),
(248,65,o),
(241,46,o),
(154,43,c),
(154,0,l)
);
}
);
width = 642;
}
);
unicode = 89;
},
{
glyphname = Z;
kernLeft = Z;
kernRight = Z;
lastChange = "2024-08-06 00:44:58 +0000";
layers = (
{
anchors = (
{
name = dotbelow;
pos = (289,0);
},
{
name = top;
pos = (339,813);
}
);
layerId = m01;
shapes = (
{
closed = 1;
nodes = (
(541,0,l),
(603,199,l),
(565,222,l),
(423,52,o),
(347,52,o),
(211,52,c),
(594,692,l),
(585,721,l),
(99,721,l),
(42,529,l),
(78,509,l),
(204,670,o),
(267,669,o),
(403,669,c),
(21,30,l),
(28,0,l)
);
}
);
width = 624;
}
);
unicode = 90;
},
{
glyphname = Saltillo;
lastChange = "2024-08-06 00:44:58 +0000";
layers = (
{
layerId = m01;
shapes = (
{
closed = 1;
nodes = (
(181,218,l),
(181,507,o),
(242,551,o),
(242,634,cs),
(242,692,o),
(213,735,o),
(157,735,cs),
(101,735,o),
(71,692,o),
(71,634,cs),
(71,551,o),
(133,507,o),
(133,218,c)
);
}
);
width = 312;
}
);
unicode = 42891;
},
{
glyphname = a;
kernLeft = a;
kernRight = a;
lastChange = "2024-08-06 00:44:58 +0000";
layers = (
{
anchors = (
{
name = dotbelow;
pos = (263,0);
},
{
name = ogonek;
pos = (390,0);
},
{
name = top;
pos = (274,558);
}
);
layerId = m01;
shapes = (
{
closed = 1;
nodes = (
(245,-14,o),
(301,17,o),
(341,51,c),
(356,29,o),
(385,-14,o),
(438,-14,cs),
(488,-14,o),
(523,23,o),
(550,51,c),
(522,81,l),
(512,76,o),
(503,69,o),
(492,69,cs),
(469,69,o),
(465,94,o),
(465,163,cs),
(465,359,ls),
(465,445,o),
(402,490,o),
(282,490,cs),
(168,490,o),
(67,450,o),
(67,380,cs),
(67,343,o),
(96,315,o),
(136,315,cs),
(222,315,o),
(193,446,o),
(282,446,cs),
(319,446,o),
(335,423,o),
(335,362,cs),
(335,310,l),
(153,281,o),
(36,218,o),
(36,116,cs),
(36,42,o),
(97,-14,o),
(182,-14,cs)
);
},
{
closed = 1;
nodes = (
(200,56,o),
(181,90,o),
(181,136,cs),
(181,192,o),
(210,235,o),
(335,266,c),
(335,104,l),
(320,90,o),
(286,56,o),
(243,56,cs)
);
}
);
width = 550;
}
);
unicode = 97;
},
{
glyphname = ae;
kernLeft = a;
kernRight = e;
lastChange = "2024-08-06 00:44:58 +0000";
layers = (
{
anchors = (
{
name = top;
pos = (448,558);
}
);
layerId = m01;
shapes = (
{
closed = 1;
nodes = (
(726,-15,o),
(789,68,o),
(822,114,c),
(787,138,l),
(746,86,o),
(695,57,o),
(640,57,cs),
(534,57,o),
(480,162,o),
(480,251,c),
(809,251,l),
(809,424,o),
(698,490,o),
(585,490,cs),
(521,490,o),
(482,469,o),
(444,444,c),
(419,470,o),
(372,490,o),
(286,490,cs),
(150,490,o),
(69,440,o),
(69,379,cs),
(69,343,o),
(96,311,o),
(135,311,cs),
(215,311,o),
(202,441,o),
(281,441,cs),
(320,441,o),
(338,409,o),
(338,366,cs),
(338,346,o),
(338,332,o),
(336,312,c),
(145,280,o),
(36,213,o),
(36,118,cs),
(36,55,o),
(85,-14,o),
(178,-14,cs),
(268,-14,o),
(341,51,o),
(384,86,c),
(428,27,o),
(501,-15,o),
(595,-15,cs)
);
},
{
closed = 1;
nodes = (
(190,61,o),
(184,106,o),
(184,133,cs),
(184,192,o),
(212,233,o),
(336,263,c),
(336,203,o),
(344,165,o),
(359,128,c),
(331,95,o),
(289,61,o),
(243,61,cs)
);
},
{
closed = 1;
nodes = (
(482,338,o),
(492,452,o),
(591,452,cs),
(600,452,o),
(622,451,o),
(646,428,cs),
(665,410,o),
(680,383,o),
(680,304,c),
(482,304,l)
);
}
);
width = 849;
}
);
unicode = 230;
},
{
glyphname = b;
kernLeft = b;
kernRight = b;
lastChange = "2024-08-06 00:44:58 +0000";
layers = (
{
anchors = (
{
name = dotbelow;
pos = (268,0);
},
{
name = top;
pos = (301,813);
}
);
layerId = m01;
shapes = (
{
closed = 1;
nodes = (
(191,50,l),
(239,11,o),
(282,-14,o),
(337,-14,cs),
(449,-14,o),
(542,91,o),
(542,253,cs),
(542,462,o),
(388,490,o),
(335,490,cs),
(290,490,o),
(248,470,o),
(216,439,c),
(216,735,l),
(18,675,l),
(18,636,l),
(77,636,o),
(86,615,o),
(86,554,cs),
(86,-2,l),
(109,-14,l)
);
},
{
closed = 1;
nodes = (
(265,50,o),
(236,73,o),
(216,91,c),
(216,385,l),
(240,411,o),
(267,427,o),
(305,427,cs),
(372,427,o),
(397,377,o),
(397,248,cs),
(397,132,o),
(377,50,o),
(304,50,cs)
);
}
);
width = 578;
}
);
unicode = 98;
},
{
glyphname = bstroke;
kernLeft = b;
kernRight = b;
lastChange = "2024-08-06 00:44:58 +0000";
layers = (
{
layerId = m01;
shapes = (
{
closed = 1;
nodes = (
(283,525,l),
(283,565,l),
(23,565,l),
(23,525,l)
);
},
{
ref = b;
}
);
width = 522;
}
);
unicode = 384;
},
{
glyphname = c;
kernLeft = c;
kernRight = c;
lastChange = "2024-08-06 00:44:58 +0000";
layers = (
{
anchors = (
{
name = attachcedilla;
pos = (252,17);
},
{
name = top;
pos = (274,558);
}
);
layerId = m01;
shapes = (
{
closed = 1;
nodes = (
(379,-14,o),
(451,58,o),
(484,125,c),
(448,150,l),
(420,105,o),
(373,63,o),
(313,63,cs),
(218,63,o),
(181,170,o),
(181,275,cs),
(181,388,o),
(224,445,o),
(276,445,cs),
(356,445,o),
(301,308,o),
(397,308,cs),
(440,308,o),
(469,335,o),
(469,375,cs),
(469,443,o),
(383,490,o),
(296,490,cs),
(154,490,o),
(36,365,o),
(36,215,cs),
(36,80,o),
(132,-14,o),
(264,-14,cs)
);
}
);
width = 503;
}
);
unicode = 99;
},
{
glyphname = d;
kernLeft = d;
kernRight = d;
lastChange = "2024-08-06 00:44:58 +0000";
layers = (
{
anchors = (
{
name = caroncombalt;
pos = (596,735);
},
{
name = commaaccentbelow;
pos = (264,0);
},
{
name = dotbelow;
pos = (249,0);
},
{
name = top;
pos = (259,813);
}
);
layerId = m01;
shapes = (
{
closed = 1;
nodes = (
(282,-14,o),
(326,13,o),
(352,53,c),
(352,-10,l),
(415,0,o),
(474,0,o),
(544,1,c),
(544,41,l),
(482,41,o),
(482,54,o),
(482,130,cs),
(482,735,l),
(274,676,l),
(274,638,l),
(341,634,o),
(352,622,o),
(352,560,cs),
(352,434,l),
(324,469,o),
(285,490,o),
(235,490,cs),
(114,490,o),
(36,369,o),
(36,229,cs),
(36,90,o),
(112,-14,o),
(225,-14,cs)
);
},
{
closed = 1;
nodes = (
(195,52,o),
(181,154,o),
(181,233,cs),
(181,335,o),
(204,426,o),
(274,426,cs),
(309,426,o),
(333,404,o),
(352,381,c),
(352,103,l),
(332,72,o),
(306,52,o),
(272,52,cs)
);
}
);
width = 566;
}
);
unicode = 100;
},
{
glyphname = dcroat;
kernLeft = d;
kernRight = d;
lastChange = "2024-08-06 00:44:58 +0000";
layers = (
{
layerId = m01;
shapes = (
{
closed = 1;
nodes = (
(543,519,l),
(543,559,l),
(244,559,l),
(244,519,l)
);
},
{
ref = d;
}
);
width = 566;
}
);
unicode = 273;
},
{
glyphname = eth;
lastChange = "2024-08-06 00:44:58 +0000";
layers = (
{
layerId = m01;
shapes = (
{
closed = 1;
nodes = (
(429,-14,o),
(532,111,o),
(532,293,cs),
(532,459,o),
(446,579,o),
(370,652,c),
(524,736,l),
(499,776,l),
(332,684,l),
(295,716,o),
(213,762,o),
(160,778,c),
(135,739,l),
(172,716,o),
(224,688,o),
(257,644,c),
(97,558,l),
(118,516,l),
(291,609,l),
(307,586,o),
(341,532,o),
(361,479,c),
(333,486,o),
(313,490,o),
(286,490,cs),
(147,490,o),
(36,381,o),
(36,238,cs),
(36,97,o),
(145,-14,o),
(283,-14,cs)
);
},
{
closed = 1;
nodes = (
(216,35,o),
(187,96,o),
(187,235,cs),
(187,421,o),
(239,441,o),
(284,441,cs),
(346,441,o),
(381,403,o),
(381,239,cs),
(381,80,o),
(348,35,o),
(287,35,cs)
);
}
);
width = 569;
}
);
unicode = 240;
},
{
glyphname = e;
kernLeft = e;
kernRight = e;
lastChange = "2024-08-06 00:44:58 +0000";
layers = (
{
anchors = (
{
name = attachcedilla;
pos = (261,17);
},
{
name = dotbelow;
pos = (278,0);
},
{
name = ogonek;
pos = (362,0);
},
{
name = top;
pos = (288,558);
}
);
layerId = m01;
shapes = (
{
closed = 1;
nodes = (
(423,-14,o),
(489,64,o),
(521,109,c),
(486,135,l),
(445,83,o),
(397,58,o),
(343,58,cs),
(235,58,o),
(182,160,o),
(182,248,c),
(512,248,l),
(514,268,l),
(514,404,o),
(402,490,o),
(288,490,cs),
(167,490,o),
(36,393,o),
(36,232,cs),
(36,94,o),
(132,-14,o),
(289,-14,cs)
);
},
{
closed = 1;
nodes = (
(179,324,o),
(192,450,o),
(283,450,cs),
(301,450,o),
(325,445,o),
(346,424,cs),
(364,406,o),
(378,378,o),
(378,301,c),
(179,301,l)
);
}
);
width = 548;
}
);
unicode = 101;
},
{
glyphname = eogonek;
kernLeft = e;
kernRight = e;
lastChange = "2024-08-06 02:16:54 +0000";
layers = (
{
layerId = m01;
shapes = (
{
closed = 1;
nodes = (
(433,-212,o),
(463,-199,o),
(485,-183,c),
(474,-162,l),
(462,-168,o),
(450,-171,o),
(434,-171,cs),
(373,-171,o),
(348,-130,o),
(348,-91,cs),
(348,-35,o),
(400,1,o),
(423,19,c),
(362,0,l),
(310,-27,o),
(279,-64,o),
(279,-113,cs),
(279,-170,o),
(320,-212,o),
(393,-212,cs)
);
},
{
ref = e;
}
);
width = 548;
}
);
unicode = 281;
},
{
glyphname = schwa;
lastChange = "2024-08-06 00:44:58 +0000";
layers = (
{
anchors = (
{
name = dotbelow;
pos = (278,0);
},
{
name = top;
pos = (288,558);
}
);
layerId = m01;
shapes = (
{
closed = 1;
nodes = (
(390,-14,o),
(521,84,o),
(521,245,cs),
(521,382,o),
(425,490,o),
(268,490,cs),
(135,490,o),
(68,412,o),
(36,366,c),
(70,341,l),
(111,392,o),
(160,417,o),
(214,417,cs),
(322,417,o),
(375,316,o),
(375,228,c),
(44,228,l),
(44,208,ls),
(44,71,o),
(156,-14,o),
(269,-14,cs)
);
},
{
closed = 1;
nodes = (
(256,26,o),
(234,29,o),
(211,52,cs),
(191,72,o),
(178,97,o),
(178,175,c),
(377,175,l),
(377,147,o),
(364,26,o),
(270,26,cs)
);
}
);
width = 548;
}
);
unicode = 601;
},
{
glyphname = f;
kernLeft = f;
kernRight = f;
lastChange = "2024-08-06 00:44:58 +0000";
layers = (
{
anchors = (
{
name = top;
pos = (218,813);
}
);
layerId = m01;
shapes = (
{
closed = 1;
nodes = (
(330,0,l),
(330,40,l),
(248,40,o),
(236,57,o),
(236,103,cs),
(236,423,l),
(345,423,l),
(345,476,l),
(236,476,l),
(236,619,ls),
(236,650,o),
(241,671,o),
(253,671,cs),
(276,671,o),
(281,600,o),
(341,600,cs),
(378,600,o),
(402,627,o),
(402,661,cs),
(402,707,o),
(356,735,o),
(299,735,cs),
(201,735,o),
(106,650,o),
(106,476,c),
(25,476,l),
(25,423,l),
(106,423,l),
(106,103,ls),
(106,57,o),
(90,40,o),
(27,40,c),
(27,0,l)
);
}
);
width = 365;
}
);
unicode = 102;
},
{
glyphname = g;
kernLeft = g;
kernRight = g;
lastChange = "2024-08-06 00:44:58 +0000";
layers = (
{
anchors = (
{
name = top;
pos = (245,558);
}
);
layerId = m01;
shapes = (
{
closed = 1;
nodes = (
(390,-182,o),
(520,-147,o),
(520,-41,cs),
(520,60,o),
(403,83,o),
(330,93,cs),
(287,99,o),
(277,98,o),
(184,114,cs),
(165,117,o),
(158,126,o),
(158,133,cs),
(158,146,o),
(172,157,o),
(186,164,c),
(201,159,o),
(229,154,o),
(262,154,cs),
(388,154,o),
(479,226,o),
(479,325,cs),
(479,392,o),
(437,435,o),
(386,463,c),
(394,471,o),
(400,474,o),
(410,474,cs),
(435,474,o),
(453,457,o),
(482,457,cs),
(514,457,o),
(530,478,o),
(530,508,cs),
(530,543,o),
(508,564,o),
(474,564,cs),
(424,564,o),
(379,517,o),
(352,475,c),
(337,480,o),
(307,490,o),
(261,490,cs),
(143,490,o),
(43,425,o),
(43,318,cs),
(43,241,o),
(95,200,o),
(142,177,c),
(87,163,o),
(44,136,o),
(44,84,cs),
(44,40,o),
(76,17,o),
(129,4,c),
(65,-7,o),
(13,-35,o),
(13,-84,cs),
(13,-127,o),
(53,-182,o),
(240,-182,cs)
);
},
{
closed = 1;
nodes = (
(161,-142,o),
(118,-121,o),
(118,-76,cs),
(118,-41,o),
(143,-21,o),
(170,-5,c),
(197,-13,o),
(261,-21,o),
(316,-32,cs),
(357,-40,o),
(405,-41,o),
(405,-80,cs),
(405,-127,o),
(336,-142,o),
(256,-142,cs)
);
},
{
closed = 1;
nodes = (
(202,191,o),
(176,240,o),
(176,321,cs),
(176,420,o),
(214,451,o),
(261,451,cs),
(298,451,o),
(346,431,o),
(346,317,cs),
(346,244,o),
(326,191,o),
(263,191,cs)
);
}
);
width = 535;
}
);
unicode = 103;
},
{
glyphname = h;
kernLeft = h;
kernRight = h;
lastChange = "2024-08-06 00:44:58 +0000";
layers = (
{
anchors = (
{
name = attachcedilla;
pos = (138,17);
},
{
name = dotbelow;
pos = (309,0);
},
{
name = top;
pos = (315,813);
}
);
layerId = m01;
shapes = (
{
closed = 1;
nodes = (
(294,0,l),
(294,40,l),
(237,40,o),
(232,57,o),
(232,103,cs),
(232,349,l),
(266,379,o),
(299,399,o),
(339,399,cs),
(383,399,o),
(412,375,o),
(412,307,cs),
(412,103,ls),
(412,57,o),
(413,40,o),
(350,40,c),
(350,0,l),
(603,0,l),
(603,40,l),
(546,40,o),
(542,57,o),
(542,103,cs),
(542,317,ls),
(542,432,o),
(496,490,o),
(403,490,cs),
(324,490,o),
(266,450,o),
(232,403,c),
(232,735,l),
(30,678,l),
(30,640,l),
(89,636,o),
(103,622,o),
(103,560,cs),
(103,103,ls),
(103,57,o),
(97,40,o),
(35,40,c),
(35,0,l)
);
}
);
width = 626;
}
);
unicode = 104;
},
{
glyphname = hbar;
kernLeft = h;
kernRight = h;
lastChange = "2024-08-06 00:44:58 +0000";
layers = (
{
layerId = m01;
shapes = (
{
closed = 1;
nodes = (
(369,519,l),
(369,559,l),
(30,559,l),
(30,519,l)
);
},
{
ref = h;
}
);
width = 626;
}
);
metricLeft = h;
metricRight = h;
unicode = 295;
},
{
glyphname = idotless;
kernLeft = i;
kernRight = i;
lastChange = "2024-08-06 00:44:58 +0000";
layers = (
{
anchors = (
{
name = dotbelow;
pos = (157,0);
},
{
name = ogonek;
pos = (162,0);
},
{
name = top;
pos = (160,558);
},
{
name = top_dot;
pos = (165,558);
}
);
layerId = m01;
shapes = (
{
closed = 1;
nodes = (
(297,0,l),
(297,40,l),
(240,40,o),
(236,57,o),
(236,103,cs),
(236,490,l),
(34,434,l),
(34,396,l),
(92,391,o),
(106,382,o),
(106,320,cs),
(106,103,ls),
(106,57,o),
(101,40,o),
(38,40,c),
(38,0,l)
);
}
);
width = 317;
}
);
unicode = 305;
},
{
glyphname = jdotless;
kernLeft = j;
kernRight = j;
lastChange = "2024-08-06 00:44:58 +0000";
layers = (
{
anchors = (
{
name = top;
pos = (159,558);
},
{
name = top_dot;
pos = (159,558);
}
);
layerId = m01;
shapes = (
{
closed = 1;
nodes = (
(109,-187,o),
(177,-135,o),
(209,-67,cs),
(233,-16,o),
(235,40,o),
(235,92,cs),
(235,490,l),
(32,434,l),
(32,396,l),
(91,391,o),
(105,382,o),
(105,320,cs),
(105,5,ls),
(105,-107,o),
(105,-119,o),
(94,-119,cs),
(68,-119,o),
(75,-53,o),
(19,-53,cs),
(-17,-53,o),
(-46,-81,o),
(-46,-117,cs),
(-46,-157,o),
(-12,-187,o),
(40,-187,cs)
);
}
);
width = 310;
}
);
unicode = 567;
},
{
glyphname = k;
kernLeft = k;
kernRight = k;
lastChange = "2024-08-06 00:44:58 +0000";
layers = (
{
anchors = (
{
name = commaaccentbelow;
pos = (298,0);
},
{
name = dotbelow;
pos = (294,0);
},
{
name = top;
pos = (289,813);
}
);
layerId = m01;
shapes = (
{
closed = 1;
nodes = (
(294,0,l),
(294,40,l),
(237,40,o),
(232,57,o),
(232,103,cs),
(232,181,l),
(283,227,l),
(368,102,ls),
(376,90,o),
(388,69,o),
(388,59,cs),
(388,50,o),
(378,41,o),
(347,40,c),
(347,0,l),
(611,0,l),
(611,40,l),
(560,43,o),
(544,69,o),
(526,95,cs),
(372,315,l),
(411,351,ls),
(458,394,o),
(497,425,o),
(576,436,c),
(576,476,l),
(324,476,l),
(324,436,l),
(361,434,o),
(383,423,o),
(383,407,cs),
(383,397,o),
(373,383,o),
(361,371,cs),
(232,241,l),
(232,735,l),
(30,674,l),
(30,636,l),
(89,631,o),
(103,622,o),
(103,560,cs),
(103,103,ls),
(103,57,o),
(97,40,o),
(35,40,c),
(35,0,l)
);
}
);
width = 604;
}
);
unicode = 107;
},
{
glyphname = l;
kernLeft = l;
kernRight = l;
lastChange = "2024-08-06 00:44:58 +0000";
layers = (
{
anchors = (
{
name = caroncombalt;
pos = (346,735);
},
{
name = commaaccentbelow;
pos = (163,0);
},
{
name = dotbelow;
pos = (151,0);
},
{
name = ldot;
pos = (317,293);
},
{
name = top;
pos = (157,813);
}
);
layerId = m01;
shapes = (
{
closed = 1;
nodes = (
(294,0,l),
(294,40,l),
(237,40,o),
(232,57,o),
(232,103,cs),
(232,735,l),
(30,674,l),
(30,636,l),
(89,631,o),
(103,622,o),
(103,560,cs),
(103,103,ls),
(103,57,o),
(97,40,o),
(35,40,c),
(35,0,l)
);
}
);
width = 317;
}
);
unicode = 108;
},
{
glyphname = lslash;
kernLeft = l;
kernRight = l;
lastChange = "2024-08-06 00:44:58 +0000";
layers = (
{
anchors = (
{
name = top;
pos = (157,813);
}
);
layerId = m01;
shapes = (
{
closed = 1;
nodes = (
(294,0,l),
(294,40,l),
(237,40,o),
(232,57,o),
(232,103,cs),
(232,381,l),
(311,432,l),
(290,466,l),
(232,428,l),
(232,735,l),
(30,674,l),
(30,636,l),
(89,631,o),
(103,622,o),
(103,560,cs),
(103,358,l),
(27,309,l),
(49,276,l),
(103,311,l),
(103,103,ls),
(103,57,o),
(97,40,o),
(35,40,c),
(35,0,l)
);
}
);
width = 317;
}
);
unicode = 322;
},
{
glyphname = m;
kernLeft = m;
kernRight = m;
lastChange = "2024-08-06 00:44:58 +0000";
layers = (
{
anchors = (
{
name = dotbelow;
pos = (465,0);
},
{
name = top;
pos = (459,558);
}
);
layerId = m01;
shapes = (
{
closed = 1;
nodes = (
(297,0,l),
(297,40,l),
(240,40,o),
(236,57,o),
(236,103,cs),
(236,352,l),
(269,374,o),
(301,400,o),
(338,400,cs),
(375,400,o),
(402,375,o),
(402,307,cs),
(402,103,ls),
(402,57,o),
(403,40,o),
(341,40,c),
(341,0,l),
(594,0,l),
(594,40,l),
(536,40,o),
(532,57,o),
(532,103,cs),
(532,361,l),
(559,382,o),
(591,400,o),
(625,400,cs),
(666,400,o),
(699,375,o),
(699,310,cs),
(699,103,ls),
(699,57,o),
(701,40,o),
(638,40,c),
(638,0,l),
(891,0,l),
(891,40,l),
(834,40,o),
(829,57,o),
(829,103,cs),
(829,319,ls),
(829,438,o),
(777,483,o),
(695,483,cs),
(617,483,o),
(563,442,o),
(521,402,c),
(493,458,o),
(451,483,o),
(397,483,cs),
(334,483,o),
(281,448,o),
(236,406,c),
(236,490,l),
(34,434,l),
(34,395,l),
(92,390,o),
(106,376,o),
(106,315,cs),
(106,103,ls),
(106,57,o),
(101,40,o),
(38,40,c),
(38,0,l)
);
}
);
width = 914;
}
);
unicode = 109;
},
{
glyphname = n;
kernLeft = n;
kernRight = n;
lastChange = "2024-08-06 00:44:58 +0000";
layers = (
{
anchors = (
{
name = commaaccentbelow;
pos = (308,0);
},
{
name = dotbelow;
pos = (304,0);
},
{
name = top;
pos = (328,558);
}
);
layerId = m01;
shapes = (
{
closed = 1;
nodes = (
(297,0,l),
(297,40,l),
(240,40,o),
(236,57,o),
(236,103,cs),
(236,348,l),
(265,380,o),
(302,399,o),
(340,399,cs),
(381,399,o),
(415,377,o),
(415,307,cs),
(415,103,ls),
(415,57,o),
(416,40,o),
(354,40,c),
(354,0,l),
(606,0,l),
(606,40,l),
(549,40,o),
(545,57,o),
(545,103,cs),
(545,324,ls),
(545,442,o),
(483,490,o),
(409,490,cs),
(344,490,o),
(282,454,o),
(236,400,c),
(236,490,l),
(34,434,l),
(34,395,l),
(92,390,o),
(106,376,o),
(106,315,cs),
(106,103,ls),
(106,57,o),
(101,40,o),
(38,40,c),
(38,0,l)
);
}
);
width = 628;
}
);
unicode = 110;
},
{
glyphname = o;
kernLeft = o;
kernRight = o;
lastChange = "2024-08-06 00:44:58 +0000";
layers = (
{
anchors = (
{
name = attachhorn;
pos = (491,368);
},
{
name = dotbelow;
pos = (270,0);
},
{
name = ogonek;
pos = (330,0);
},
{
name = top;
pos = (283,558);
}
);
layerId = m01;
shapes = (
{
closed = 1;
nodes = (
(429,-14,o),
(532,102,o),
(532,238,cs),
(532,382,o),
(423,490,o),
(288,490,cs),
(146,490,o),
(36,381,o),
(36,238,cs),
(36,104,o),
(136,-14,o),
(288,-14,cs)
);
},
{
closed = 1;
nodes = (
(216,35,o),
(187,96,o),
(187,235,cs),
(187,421,o),
(239,441,o),
(284,441,cs),
(346,441,o),
(381,403,o),
(381,239,cs),
(381,80,o),
(348,35,o),
(287,35,cs)
);
}
);
width = 569;
}
);
unicode = 111;
},
{
glyphname = oslash;
kernLeft = o;
kernRight = o;
lastChange = "2024-08-06 00:44:58 +0000";
layers = (
{
layerId = m01;
shapes = (
{
closed = 1;
nodes = (
(448,509,l),
(412,526,l),
(120,-34,l),
(154,-53,l)
);
},
{
ref = o;
}
);
width = 569;
}
);
unicode = 248;
},
{
glyphname = oe;
kernLeft = o;
kernRight = e;
lastChange = "2024-08-06 00:44:58 +0000";
layers = (
{
anchors = (
{
name = top;
pos = (454,558);
}
);
layerId = m01;
shapes = (
{
closed = 1;
nodes = (
(363,-14,o),
(420,19,o),
(453,57,c),
(491,19,o),
(541,-14,o),
(628,-14,cs),
(760,-14,o),
(831,61,o),
(861,110,c),
(828,135,l),
(787,83,o),
(739,58,o),
(685,58,cs),
(577,58,o),
(524,161,o),
(524,249,c),
(854,249,l),
(854,421,o),
(736,490,o),
(629,490,cs),
(552,490,o),
(495,454,o),
(457,416,c),
(422,454,o),
(361,490,o),
(282,490,cs),
(144,490,o),
(36,378,o),
(36,236,cs),
(36,98,o),
(139,-14,o),
(284,-14,cs)
);
},
{
closed = 1;
nodes = (
(207,28,o),
(181,96,o),
(181,234,cs),
(181,422,o),
(229,448,o),
(278,448,cs),
(340,448,o),
(381,405,o),
(381,238,cs),
(381,79,o),
(344,28,o),
(280,28,cs)
);
},
{
closed = 1;
nodes = (
(525,340,o),
(534,450,o),
(635,450,cs),
(645,450,o),
(663,449,o),
(685,428,cs),
(707,407,o),
(722,374,o),
(722,302,c),
(525,302,l)
);
}
);
width = 888;
}
);
unicode = 339;
},
{
glyphname = p;
kernLeft = p;
kernRight = p;
lastChange = "2024-08-06 00:44:58 +0000";
layers = (
{
anchors = (
{
name = top;
pos = (294,558);
}
);
layerId = m01;
shapes = (
{
closed = 1;
nodes = (
(304,-184,l),
(304,-144,l),
(240,-144,o),
(236,-126,o),
(236,-81,cs),
(236,38,l),
(263,8,o),
(304,-14,o),
(352,-14,cs),
(456,-14,o),
(552,92,o),
(552,244,cs),
(552,375,o),
(481,483,o),
(360,483,cs),
(303,483,o),
(268,459,o),
(236,419,c),
(236,490,l),
(34,434,l),
(34,396,l),
(92,391,o),
(106,382,o),
(106,320,cs),
(106,-81,ls),
(106,-126,o),
(101,-144,o),
(38,-144,c),
(38,-184,l)
);
},
{
closed = 1;
nodes = (
(280,50,o),
(252,72,o),
(236,84,c),
(236,365,l),
(254,395,o),
(281,418,o),
(319,418,cs),
(366,418,o),
(408,384,o),
(408,246,cs),
(408,151,o),
(388,50,o),
(314,50,cs)
);
}
);
width = 588;
}
);
unicode = 112;
},
{
glyphname = thorn;
kernLeft = p;
kernRight = p;
lastChange = "2024-08-06 00:44:58 +0000";
layers = (
{
layerId = m01;
shapes = (
{
closed = 1;
nodes = (
(304,-184,l),
(304,-144,l),
(240,-144,o),
(236,-126,o),
(236,-81,cs),
(236,38,l),
(263,8,o),
(304,-14,o),
(352,-14,cs),
(456,-14,o),
(552,92,o),
(552,244,cs),
(552,375,o),
(481,483,o),
(360,483,cs),
(303,483,o),
(268,459,o),
(236,419,c),
(236,735,l),
(34,679,l),
(34,641,l),
(92,637,o),
(106,627,o),
(106,565,cs),
(106,-81,ls),
(106,-126,o),
(101,-144,o),
(38,-144,c),
(38,-184,l)
);
},
{
closed = 1;
nodes = (
(280,50,o),
(252,72,o),
(236,84,c),
(236,365,l),
(254,395,o),
(281,418,o),
(319,418,cs),
(366,418,o),
(408,384,o),
(408,246,cs),
(408,151,o),
(388,50,o),
(314,50,cs)
);
}
);
width = 588;
}
);
unicode = 254;
},
{
glyphname = q;
kernLeft = q;
kernRight = q;
lastChange = "2024-08-06 00:44:58 +0000";
layers = (
{
anchors = (
{
name = top;
pos = (292,558);
}
);
layerId = m01;
shapes = (
{
closed = 1;
nodes = (
(548,-184,l),
(548,-144,l),
(491,-144,o),
(486,-126,o),
(486,-81,cs),
(486,486,l),
(469,494,l),
(374,431,l),
(335,467,o),
(292,490,o),
(242,490,cs),
(127,490,o),
(36,370,o),
(36,226,cs),
(36,88,o),
(120,-14,o),
(230,-14,cs),
(278,-14,o),
(318,6,o),
(357,44,c),
(357,-81,ls),
(357,-126,o),
(351,-144,o),
(289,-144,c),
(289,-184,l)
);
},
{
closed = 1;
nodes = (
(192,52,o),
(181,153,o),
(181,225,cs),
(181,334,o),
(206,426,o),
(276,426,cs),
(297,426,o),
(317,418,o),
(357,389,c),
(357,95,l),
(335,70,o),
(306,52,o),
(272,52,cs)
);
}
);
width = 566;
}
);
unicode = 113;
},
{
glyphname = r;
kernLeft = r;
kernRight = r;
lastChange = "2024-08-06 00:44:58 +0000";
layers = (
{
anchors = (
{
name = commaaccentbelow;
pos = (166,0);
},
{
name = dotbelow;
pos = (161,0);
},
{
name = top;
pos = (238,558);
}
);
layerId = m01;
shapes = (
{
closed = 1;
nodes = (
(311,0,l),
(311,40,l),
(240,40,o),
(236,57,o),
(236,103,cs),
(236,314,l),
(254,343,o),
(278,371,o),
(300,371,cs),
(323,371,o),
(348,341,o),
(382,341,cs),
(415,341,o),
(451,369,o),
(451,415,cs),
(451,459,o),
(418,490,o),
(375,490,cs),
(311,490,o),
(260,419,o),
(236,373,c),
(236,490,l),
(34,434,l),
(34,396,l),
(92,391,o),
(106,382,o),
(106,320,cs),
(106,103,ls),
(106,57,o),
(101,40,o),
(38,40,c),
(38,0,l)
);
}
);
width = 451;
}
);
unicode = 114;
},
{
glyphname = s;
kernLeft = s;
kernRight = s;
lastChange = "2024-08-06 00:44:58 +0000";
layers = (
{
anchors = (
{
name = attachcedilla;
pos = (226,17);
},
{
name = commaaccentbelow;
pos = (245,0);
},
{
name = dotbelow;
pos = (223,0);
},
{
name = top;
pos = (223,558);
}
);
layerId = m01;
shapes = (
{
closed = 1;
nodes = (
(373,-15,o),
(454,46,o),
(454,151,cs),
(454,264,o),
(361,295,o),
(279,312,cs),
(203,328,o),
(149,330,o),
(149,381,cs),
(149,421,o),
(182,441,o),
(222,441,cs),
(299,441,o),
(358,366,o),
(396,312,c),
(436,329,l),
(396,486,l),
(370,486,l),
(362,482,o),
(339,468,o),
(323,468,cs),
(304,468,o),
(263,490,o),
(212,490,cs),
(124,490,o),
(49,423,o),
(49,328,cs),
(49,237,o),
(117,201,o),
(181,182,cs),
(265,157,o),
(349,159,o),
(349,100,cs),
(349,63,o),
(315,34,o),
(270,34,cs),
(195,34,o),
(114,112,o),
(75,175,c),
(36,155,l),
(82,-12,l),
(106,-12,l),
(122,-2,o),
(146,12,o),
(158,12,cs),
(174,12,o),
(222,-15,o),
(282,-15,cs)
);
}
);
width = 491;
}
);
unicode = 115;
},
{
glyphname = germandbls;
kernLeft = f;
kernRight = s;
lastChange = "2024-08-06 00:44:58 +0000";
layers = (
{
layerId = m01;
shapes = (
{
closed = 1;
nodes = (
(572,-14,o),
(634,85,o),
(634,181,cs),
(634,342,o),
(462,375,o),
(462,398,cs),
(462,417,o),
(577,479,o),
(577,576,cs),
(577,664,o),
(484,735,o),
(339,735,cs),
(162,735,o),
(104,628,o),
(104,476,cs),
(104,103,ls),
(104,57,o),
(88,40,o),
(25,40,c),
(25,0,l),
(234,0,l),
(234,476,ls),
(234,625,o),
(252,698,o),
(340,698,cs),
(409,698,o),
(448,653,o),
(448,577,cs),
(448,448,o),
(335,429,o),
(335,383,cs),
(335,327,o),
(503,314,o),
(503,133,cs),
(503,69,o),
(482,28,o),
(447,28,cs),
(419,28,o),
(403,55,o),
(403,82,cs),
(403,109,o),
(386,135,o),
(349,135,cs),
(312,135,o),
(288,109,o),
(288,81,cs),
(288,37,o),
(344,-14,o),
(439,-14,cs)
);
}
);
width = 662;
}
);
metricLeft = longs;
unicode = 223;
},
{
glyphname = longs;
kernLeft = f;
kernRight = f;
lastChange = "2024-08-06 00:44:58 +0000";
layers = (
{
anchors = (
{
name = top;
pos = (218,813);
}
);
layerId = m01;
shapes = (
{
closed = 1;
nodes = (
(330,0,l),
(330,40,l),
(248,40,o),
(236,57,o),
(236,103,cs),
(236,619,ls),
(236,650,o),
(241,671,o),
(253,671,cs),
(276,671,o),
(281,600,o),
(341,600,cs),
(378,600,o),
(402,627,o),
(402,661,cs),
(402,707,o),
(356,735,o),
(299,735,cs),
(201,735,o),
(106,650,o),
(106,476,c),
(25,476,l),
(25,423,l),
(106,423,l),
(106,103,ls),
(106,57,o),
(90,40,o),
(27,40,c),
(27,0,l)
);
}
);
width = 365;
}
);
unicode = 383;
},
{
glyphname = t;
kernLeft = t;
kernRight = t;
lastChange = "2024-08-06 00:44:58 +0000";
layers = (
{
anchors = (
{
name = attachcedilla;
pos = (190,17);
},
{
name = caroncombalt;
pos = (337,735);
},
{
name = commaaccentbelow;
pos = (196,0);
},
{
name = dotbelow;
pos = (203,-17);
},
{
name = top;
pos = (197,689);
}
);
layerId = m01;
shapes = (
{
closed = 1;
nodes = (
(302,-14,o),
(349,27,o),
(378,63,c),
(351,92,l),
(337,80,o),
(310,56,o),
(277,56,cs),
(226,56,o),
(226,112,o),
(226,150,cs),
(226,423,l),
(351,423,l),
(351,476,l),
(226,476,l),
(226,635,l),
(170,635,l),
(151,555,o),
(137,501,o),
(28,465,c),
(28,423,l),
(96,423,l),
(96,112,ls),
(96,48,o),
(120,-14,o),
(220,-14,cs)
);
}
);
width = 369;
}
);
unicode = 116;
},
{
glyphname = u;
kernLeft = u;
kernRight = u;
lastChange = "2024-08-06 00:44:58 +0000";
layers = (
{
anchors = (
{
name = attachhorn;
pos = (591,368);
},
{
name = dotbelow;
pos = (312,0);
},
{
name = ogonek;
pos = (435,0);
},
{
name = top;
pos = (315,558);
}
);
layerId = m01;
shapes = (
{
closed = 1;
nodes = (
(322,-14,o),
(377,24,o),
(417,61,c),
(417,-10,l),
(482,-4,o),
(545,0,o),
(615,1,c),
(615,41,l),
(554,41,o),
(547,54,o),
(547,130,cs),
(547,490,l),
(349,434,l),
(349,395,l),
(408,390,o),
(417,372,o),
(417,310,cs),
(417,108,l),
(393,85,o),
(356,65,o),
(310,65,cs),
(231,65,o),
(231,125,o),
(231,165,cs),
(231,490,l),
(34,434,l),
(34,395,l),
(92,390,o),
(102,372,o),
(102,310,cs),
(102,165,ls),
(102,36,o),
(154,-14,o),
(244,-14,cs)
);
}
);
width = 632;
}
);
unicode = 117;
},
{
glyphname = uhorn;
kernLeft = u;
kernRight = horn;
lastChange = "2024-08-06 00:44:58 +0000";
layers = (
{
layerId = m01;
shapes = (
{
closed = 1;
nodes = (
(700,354,o),
(781,457,o),
(781,550,cs),
(781,610,o),
(747,656,o),
(691,656,cs),
(641,656,o),
(610,618,o),
(610,571,cs),
(610,499,o),
(684,505,o),
(684,468,cs),
(684,432,o),
(612,370,o),
(526,336,c),
(526,284,l)
);
},
{
ref = u;
}
);
width = 762;
}
);
unicode = 432;
},
{
glyphname = uogonek;
kernLeft = u;
kernRight = u;
lastChange = "2024-08-06 00:44:58 +0000";
layers = (
{
anchors = (
{
name = attachhorn;
pos = (472,368);
},
{
name = dotbelow;
pos = (312,0);
},
{
name = ogonek;
pos = (435,0);
},
{
name = top;
pos = (315,558);
}
);
layerId = m01;
shapes = (
{
closed = 1;
nodes = (
(505,-212,o),
(535,-199,o),
(558,-183,c),
(546,-162,l),
(534,-168,o),
(522,-171,o),
(507,-171,cs),
(445,-171,o),
(421,-130,o),
(421,-90,cs),
(421,-50,o),
(445,-24,o),
(468,-5,c),
(516,-2,o),
(563,0,o),
(615,1,c),
(615,41,l),
(554,41,o),
(547,54,o),
(547,130,cs),
(547,490,l),
(349,434,l),
(349,395,l),
(408,390,o),
(417,372,o),
(417,310,cs),
(417,108,l),
(393,85,o),
(356,65,o),
(310,65,cs),
(231,65,o),
(231,125,o),
(231,165,cs),
(231,490,l),
(34,434,l),
(34,395,l),
(92,390,o),
(102,372,o),
(102,310,cs),
(102,165,ls),
(102,36,o),
(154,-14,o),
(244,-14,cs),
(322,-14,o),
(377,24,o),
(417,61,c),
(417,-10,l),
(376,-36,o),
(351,-70,o),
(351,-114,cs),
(351,-168,o),
(390,-212,o),
(465,-212,cs)
);
}
);
width = 632;
}
);
unicode = 371;
},
{
glyphname = v;
kernLeft = v;
kernRight = v;
lastChange = "2024-08-06 00:44:58 +0000";
layers = (
{
anchors = (
{
name = dotbelow;
pos = (257,0);
},
{
name = top;
pos = (285,558);
}
);
layerId = m01;
shapes = (
{
closed = 1;
nodes = (
(303,-8,l),
(452,357,ls),
(466,392,o),
(489,430,o),
(535,436,c),
(535,476,l),
(341,476,l),
(341,436,l),
(378,434,o),
(404,422,o),
(404,392,cs),
(404,383,o),
(402,369,o),
(398,358,cs),
(314,139,l),
(208,388,ls),
(203,400,o),
(201,406,o),
(201,411,cs),
(201,427,o),
(218,435,o),
(250,435,c),
(250,476,l),
(3,476,l),
(3,436,l),
(41,430,o),
(50,429,o),
(74,374,cs),
(239,-8,l)
);
}
);
width = 539;
}
);
unicode = 118;
},
{
glyphname = w;
kernLeft = w;
kernRight = w;
lastChange = "2024-08-06 00:44:58 +0000";
layers = (
{
anchors = (
{
name = dotbelow;
pos = (383,0);
},
{
name = top;
pos = (403,558);
}
);
layerId = m01;
shapes = (
{
closed = 1;
nodes = (
(275,-8,l),
(394,280,l),
(502,-8,l),
(557,-8,l),
(704,357,ls),
(722,401,o),
(748,435,o),
(796,436,c),
(796,476,l),
(594,476,l),
(594,436,l),
(631,433,o),
(656,423,o),
(656,391,cs),
(656,378,o),
(652,356,o),
(649,348,cs),
(574,152,l),
(494,375,ls),
(486,397,o),
(485,407,o),
(485,411,cs),
(485,427,o),
(497,435,o),
(529,435,c),
(529,476,l),
(284,476,l),
(284,436,l),
(318,430,o),
(338,434,o),
(350,392,cs),
(366,336,l),
(292,152,l),
(209,389,ls),
(205,401,o),
(203,407,o),
(203,413,cs),
(203,426,o),
(212,435,o),
(243,435,c),
(243,476,l),
(3,476,l),
(3,436,l),
(41,430,o),
(53,429,o),
(74,374,cs),
(218,-8,l)
);
}
);
width = 800;
}
);
unicode = 119;
},
{
glyphname = x;
kernLeft = x;
kernRight = x;
lastChange = "2024-08-06 00:44:58 +0000";
layers = (
{
anchors = (
{
name = top;
pos = (277,558);
}
);
layerId = m01;
shapes = (
{
closed = 1;
nodes = (
(218,0,l),
(218,40,l),
(177,43,o),
(164,56,o),
(164,72,cs),
(164,79,o),
(167,88,o),
(190,116,cs),
(245,183,l),
(307,95,ls),
(315,84,o),
(325,67,o),
(325,59,cs),
(325,51,o),
(315,41,o),
(282,41,c),
(282,0,l),
(537,0,l),
(537,40,l),
(501,44,o),
(496,56,o),
(461,102,cs),
(329,274,l),
(400,359,ls),
(442,409,o),
(480,430,o),
(526,436,c),
(526,476,l),
(322,476,l),
(322,436,l),
(360,434,o),
(372,422,o),
(372,409,cs),
(372,399,o),
(364,387,o),
(340,359,cs),
(299,311,l),
(244,388,ls),
(239,395,o),
(229,411,o),
(229,421,cs),
(229,431,o),
(240,435,o),
(270,435,c),
(270,476,l),
(8,476,l),
(8,436,l),
(44,432,o),
(57,422,o),
(94,374,cs),
(216,218,l),
(128,119,ls),
(83,68,o),
(56,53,o),
(8,40,c),
(8,0,l)
);
}
);
width = 541;
}
);
unicode = 120;
},
{
glyphname = y;
kernLeft = y;
kernRight = y;
lastChange = "2024-08-06 00:44:58 +0000";
layers = (
{
anchors = (
{
name = dotbelow;
pos = (390,16);
},
{
name = top;
pos = (269,558);
}
);
layerId = m01;
shapes = (
{
closed = 1;
nodes = (
(154,-184,o),
(196,-147,o),
(229,-104,cs),
(251,-75,o),
(269,-44,o),
(291,4,cs),
(454,357,ls),
(470,392,o),
(485,425,o),
(537,436,c),
(537,476,l),
(341,476,l),
(341,436,l),
(388,427,o),
(403,422,o),
(403,393,cs),
(403,382,o),
(401,365,o),
(391,342,cs),
(310,158,l),
(209,386,ls),
(204,397,o),
(200,406,o),
(200,413,cs),
(200,427,o),
(218,435,o),
(249,435,c),
(249,476,l),
(3,476,l),
(3,436,l),
(35,430,o),
(45,428,o),
(70,373,cs),
(239,4,l),
(218,-34,o),
(186,-92,o),
(159,-92,cs),
(133,-92,o),
(120,-40,o),
(71,-40,cs),
(31,-40,o),
(2,-72,o),
(2,-107,cs),
(2,-148,o),
(40,-184,o),
(97,-184,cs)
);
}
);
width = 542;
}
);
unicode = 121;
},
{
glyphname = z;
kernLeft = z;
kernRight = z;
lastChange = "2024-08-06 00:44:58 +0000";
layers = (
{
anchors = (
{
name = dotbelow;
pos = (219,0);
},
{
name = top;
pos = (262,558);
}
);
layerId = m01;
shapes = (
{
closed = 1;
nodes = (
(419,0,l),
(468,171,l),
(438,187,l),
(346,74,o),
(319,44,o),
(190,44,c),
(457,442,l),
(457,476,l),
(90,476,l),
(45,317,l),
(78,301,l),
(150,406,o),
(196,435,o),
(298,435,c),
(31,35,l),
(31,0,l)
);
}
);
width = 498;
}
);
unicode = 122;
},
{
glyphname = f_b.liga;
kernLeft = f;
kernRight = b;
lastChange = "2024-08-06 00:44:58 +0000";
layers = (
{
layerId = m01;
shapes = (
{
closed = 1;
nodes = (
(520,50,l),
(566,12,o),
(611,-14,o),
(666,-14,cs),
(776,-14,o),
(870,90,o),
(870,253,cs),
(870,462,o),
(717,490,o),
(664,490,cs),
(621,490,o),
(578,472,o),
(545,439,c),
(545,735,l),
(462,710,l),
(434,724,o),
(398,735,o),
(353,735,cs),
(238,735,o),
(106,664,o),
(106,476,c),
(25,476,l),
(25,423,l),
(106,423,l),
(106,103,ls),
(106,57,o),
(90,40,o),
(27,40,c),
(27,0,l),
(297,0,l),
(297,40,l),
(252,40,o),
(236,57,o),
(236,103,cs),
(236,423,l),
(415,423,l),
(415,-2,l),
(438,-14,l)
);
},
{
closed = 1;
nodes = (
(594,50,o),
(565,73,o),
(545,91,c),
(545,385,l),
(569,411,o),
(596,427,o),
(634,427,cs),
(701,427,o),
(725,377,o),
(725,248,cs),
(725,133,o),
(706,50,o),
(633,50,cs)
);
},
{
closed = 1;
nodes = (
(236,544,ls),
(236,622,o),
(272,691,o),
(333,691,cs),
(393,691,o),
(373,624,o),
(415,612,c),
(415,476,l),
(236,476,l)
);
}
);
width = 906;
}
);
metricLeft = f;
metricRight = b;
},
{
glyphname = f_f.liga;
kernLeft = f;
kernRight = f;
lastChange = "2024-08-06 00:44:58 +0000";
layers = (
{
anchors = (
{
name = top;
pos = (218,813);
}
);
layerId = m01;
shapes = (
{
closed = 1;
nodes = (
(297,0,l),
(297,40,l),
(248,40,o),
(236,57,o),
(236,103,cs),
(236,423,l),
(415,423,l),
(415,103,ls),
(415,57,o),
(399,40,o),
(354,40,c),
(354,0,l),
(639,0,l),
(639,40,l),
(557,40,o),
(545,57,o),
(545,103,cs),
(545,423,l),
(654,423,l),
(654,476,l),
(545,476,l),
(545,619,ls),
(545,650,o),
(550,671,o),
(562,671,cs),
(585,671,o),
(590,600,o),
(651,600,cs),
(688,600,o),
(711,627,o),
(711,660,cs),
(711,708,o),
(664,735,o),
(610,735,cs),
(571,735,o),
(531,721,o),
(497,692,c),
(464,717,o),
(412,735,o),
(357,735,cs),
(248,735,o),
(106,665,o),
(106,476,c),
(25,476,l),
(25,423,l),
(106,423,l),
(106,103,ls),
(106,57,o),
(90,40,o),
(27,40,c),
(27,0,l)
);
},
{
closed = 1;
nodes = (
(236,544,ls),
(236,621,o),
(277,691,o),
(340,691,cs),
(406,691,o),
(391,614,o),
(436,602,c),
(423,568,o),
(415,525,o),
(415,476,c),
(236,476,l)
);
}
);
width = 674;
}
);
metricLeft = f;
metricRight = f;
},
{
glyphname = f_f_b.liga;
kernLeft = f;
kernRight = b;
lastChange = "2024-08-06 00:44:58 +0000";
layers = (
{
layerId = m01;
shapes = (
{
closed = 1;
nodes = (
(829,50,l),
(877,11,o),
(920,-14,o),
(975,-14,cs),
(1087,-14,o),
(1179,91,o),
(1179,253,cs),
(1179,462,o),
(1026,490,o),
(972,490,cs),
(924,490,o),
(883,467,o),
(854,439,c),
(854,735,l),
(771,710,l),
(741,725,o),
(706,735,o),
(661,735,cs),
(585,735,o),
(538,706,o),
(507,683,c),
(474,715,o),
(413,735,o),
(355,735,cs),
(249,735,o),
(106,665,o),
(106,476,c),
(25,476,l),
(25,423,l),
(106,423,l),
(106,103,ls),
(106,57,o),
(90,40,o),
(27,40,c),
(27,0,l),
(297,0,l),
(297,40,l),
(248,40,o),
(236,57,o),
(236,103,cs),
(236,423,l),
(415,423,l),
(415,103,ls),
(415,57,o),
(399,40,o),
(354,40,c),
(354,0,l),
(606,0,l),
(606,40,l),
(561,40,o),
(545,57,o),
(545,103,cs),
(545,423,l),
(724,423,l),
(724,-2,l),
(747,-14,l)
);
},
{
closed = 1;
nodes = (
(236,544,ls),
(236,621,o),
(277,691,o),
(340,691,cs),
(406,691,o),
(391,614,o),
(436,602,c),
(423,568,o),
(415,525,o),
(415,476,c),
(236,476,l)
);
},
{
closed = 1;
nodes = (
(903,50,o),
(874,73,o),
(854,91,c),
(854,385,l),
(878,411,o),
(905,427,o),
(943,427,cs),
(1010,427,o),
(1035,377,o),
(1035,248,cs),
(1035,133,o),
(1015,50,o),
(942,50,cs)
);
},
{
closed = 1;
nodes = (
(545,544,ls),
(545,622,o),
(581,691,o),
(642,691,cs),
(702,691,o),
(682,624,o),
(724,612,c),
(724,476,l),
(545,476,l)
);
}
);
width = 1215;
}
);
metricLeft = f;
metricRight = b;
},
{
glyphname = f_f_f.liga;
kernLeft = f;
kernRight = f;
lastChange = "2024-08-06 00:44:58 +0000";
layers = (
{
layerId = m01;
shapes = (
{
closed = 1;
nodes = (
(297,0,l),
(297,40,l),
(248,40,o),
(236,57,o),
(236,103,cs),
(236,423,l),
(415,423,l),
(415,103,ls),
(415,57,o),
(399,40,o),
(354,40,c),
(354,0,l),
(606,0,l),
(606,40,l),
(557,40,o),
(545,57,o),
(545,103,cs),
(545,423,l),
(724,423,l),
(724,103,ls),
(724,57,o),
(708,40,o),
(663,40,c),
(663,0,l),
(948,0,l),
(948,40,l),
(866,40,o),
(854,57,o),
(854,103,cs),
(854,423,l),
(963,423,l),
(963,476,l),
(854,476,l),
(854,619,ls),
(854,650,o),
(859,671,o),
(871,671,cs),
(894,671,o),
(899,600,o),
(960,600,cs),
(997,600,o),
(1021,627,o),
(1021,661,cs),
(1021,708,o),
(973,735,o),
(919,735,cs),
(880,735,o),
(840,721,o),
(806,692,c),
(773,717,o),
(722,735,o),
(664,735,cs),
(614,735,o),
(556,720,o),
(508,683,c),
(469,716,o),
(412,735,o),
(356,735,cs),
(249,735,o),
(106,665,o),
(106,476,c),
(25,476,l),
(25,423,l),
(106,423,l),
(106,103,ls),
(106,57,o),
(90,40,o),
(27,40,c),
(27,0,l)
);
},
{
closed = 1;
nodes = (
(236,544,ls),
(236,621,o),
(277,691,o),
(340,691,cs),
(406,691,o),
(391,614,o),
(436,602,c),
(423,568,o),
(415,525,o),
(415,476,c),
(236,476,l)
);
},
{
closed = 1;
nodes = (
(545,544,ls),
(545,621,o),
(586,691,o),
(649,691,cs),
(716,691,o),
(701,614,o),
(745,602,c),
(732,568,o),
(724,525,o),
(724,476,c),
(545,476,l)
);
}
);
width = 984;
}
);
metricLeft = f;
metricRight = f;
},
{
glyphname = f_f_f_b.liga;
kernLeft = f;
kernRight = b;
lastChange = "2024-08-06 00:44:58 +0000";
layers = (
{
layerId = m01;
shapes = (
{
closed = 1;
nodes = (
(1138,50,l),
(1186,11,o),
(1229,-14,o),
(1284,-14,cs),
(1396,-14,o),
(1489,91,o),
(1489,253,cs),
(1489,462,o),
(1335,490,o),
(1282,490,cs),
(1239,490,o),
(1196,471,o),
(1163,439,c),
(1163,735,l),
(1080,710,l),
(1050,725,o),
(1015,735,o),
(970,735,cs),
(894,735,o),
(848,706,o),
(816,683,c),
(783,715,o),
(722,735,o),
(664,735,cs),
(614,735,o),
(556,720,o),
(508,683,c),
(469,716,o),
(412,735,o),
(356,735,cs),
(249,735,o),
(106,665,o),
(106,476,c),
(25,476,l),
(25,423,l),
(106,423,l),
(106,103,ls),
(106,57,o),
(90,40,o),
(27,40,c),
(27,0,l),
(297,0,l),
(297,40,l),
(248,40,o),
(236,57,o),
(236,103,cs),
(236,423,l),
(415,423,l),
(415,103,ls),
(415,57,o),
(399,40,o),
(354,40,c),
(354,0,l),
(606,0,l),
(606,40,l),
(557,40,o),
(545,57,o),
(545,103,cs),
(545,423,l),
(724,423,l),
(724,103,ls),
(724,57,o),
(708,40,o),
(663,40,c),
(663,0,l),
(916,0,l),
(916,40,l),
(870,40,o),
(854,57,o),
(854,103,cs),
(854,423,l),
(1034,423,l),
(1034,-2,l),
(1056,-14,l)
);
},
{
closed = 1;
nodes = (
(236,544,ls),
(236,621,o),
(277,691,o),
(340,691,cs),
(406,691,o),
(391,614,o),
(436,602,c),
(423,568,o),
(415,525,o),
(415,476,c),
(236,476,l)
);
},
{
closed = 1;
nodes = (
(545,544,ls),
(545,621,o),
(586,691,o),
(649,691,cs),
(716,691,o),
(701,614,o),
(745,602,c),
(732,568,o),
(724,525,o),
(724,476,c),
(545,476,l)
);
},
{
closed = 1;
nodes = (
(1212,50,o),
(1183,73,o),
(1163,91,c),
(1163,385,l),
(1187,411,o),
(1214,427,o),
(1252,427,cs),
(1319,427,o),
(1344,377,o),
(1344,248,cs),
(1344,132,o),
(1324,50,o),
(1251,50,cs)
);
},
{
closed = 1;
nodes = (
(854,544,ls),
(854,622,o),
(891,691,o),
(952,691,cs),
(1012,691,o),
(992,624,o),
(1034,612,c),
(1034,476,l),
(854,476,l)
);
}
);
width = 1525;
}
);
metricLeft = f;
metricRight = b;
},
{
glyphname = f_f_f_h.liga;
kernLeft = f;
kernRight = h;
lastChange = "2024-08-06 00:44:58 +0000";
layers = (
{
layerId = m01;
shapes = (
{
closed = 1;
nodes = (
(297,0,l),
(297,40,l),
(248,40,o),
(236,57,o),
(236,103,cs),
(236,423,l),
(415,423,l),
(415,103,ls),
(415,57,o),
(399,40,o),
(354,40,c),
(354,0,l),
(606,0,l),
(606,40,l),
(557,40,o),
(545,57,o),
(545,103,cs),
(545,423,l),
(724,423,l),
(724,103,ls),
(724,57,o),
(708,40,o),
(663,40,c),
(663,0,l),
(916,0,l),
(916,40,l),
(870,40,o),
(854,57,o),
(854,103,cs),
(854,423,l),
(1034,423,l),
(1034,103,ls),
(1034,57,o),
(1035,40,o),
(972,40,c),
(972,0,l),
(1225,0,l),
(1225,40,l),
(1168,40,o),
(1163,57,o),
(1163,103,cs),
(1163,349,l),
(1197,379,o),
(1230,399,o),
(1270,399,cs),
(1314,399,o),
(1343,375,o),
(1343,307,cs),
(1343,103,ls),
(1343,57,o),
(1344,40,o),
(1281,40,c),
(1281,0,l),
(1534,0,l),
(1534,40,l),
(1477,40,o),
(1472,57,o),
(1472,103,cs),
(1472,317,ls),
(1472,432,o),
(1427,490,o),
(1334,490,cs),
(1255,490,o),
(1197,450,o),
(1163,403,c),
(1163,735,l),
(1080,710,l),
(1050,725,o),
(1015,735,o),
(970,735,cs),
(894,735,o),
(848,706,o),
(816,683,c),
(783,715,o),
(722,735,o),
(664,735,cs),
(614,735,o),
(556,720,o),
(508,683,c),
(469,716,o),
(412,735,o),
(356,735,cs),
(249,735,o),
(106,665,o),
(106,476,c),
(25,476,l),
(25,423,l),
(106,423,l),
(106,103,ls),
(106,57,o),
(90,40,o),
(27,40,c),
(27,0,l)
);
},
{
closed = 1;
nodes = (
(236,544,ls),
(236,621,o),
(277,691,o),
(340,691,cs),
(406,691,o),
(391,614,o),
(436,602,c),
(423,568,o),
(415,525,o),
(415,476,c),
(236,476,l)
);
},
{
closed = 1;
nodes = (
(545,544,ls),
(545,621,o),
(586,691,o),
(649,691,cs),
(716,691,o),
(701,614,o),
(745,602,c),
(732,568,o),
(724,525,o),
(724,476,c),
(545,476,l)
);
},
{
closed = 1;
nodes = (
(854,544,ls),
(854,622,o),
(891,691,o),
(952,691,cs),
(1012,691,o),
(992,624,o),
(1034,612,c),
(1034,476,l),
(854,476,l)
);
}
);
width = 1557;
}
);
metricLeft = f;
metricRight = h;
},
{
glyphname = f_f_f_i.liga;
kernLeft = f;
kernRight = i;
lastChange = "2024-08-06 00:44:58 +0000";
layers = (
{
layerId = m01;
shapes = (
{
closed = 1;
nodes = (
(297,0,l),
(297,40,l),
(248,40,o),
(236,57,o),
(236,103,cs),
(236,423,l),
(415,423,l),
(415,103,ls),
(415,57,o),
(399,40,o),
(354,40,c),
(354,0,l),
(606,0,l),
(606,40,l),
(557,40,o),
(545,57,o),
(545,103,cs),
(545,423,l),
(724,423,l),
(724,103,ls),
(724,57,o),
(708,40,o),
(663,40,c),
(663,0,l),
(916,0,l),
(916,40,l),
(870,40,o),
(854,57,o),
(854,103,cs),
(854,423,l),
(961,423,l),
(1019,418,o),
(1034,409,o),
(1034,347,cs),
(1034,103,ls),
(1034,57,o),
(1028,40,o),
(972,40,c),
(972,0,l),
(1225,0,l),
(1225,40,l),
(1168,40,o),
(1163,57,o),
(1163,103,cs),
(1163,505,l),
(1058,476,l),
(854,476,l),
(854,544,ls),
(854,631,o),
(886,691,o),
(953,691,cs),
(1048,691,o),
(1026,570,o),
(1100,570,cs),
(1138,570,o),
(1162,602,o),
(1162,634,cs),
(1162,693,o),
(1083,735,o),
(977,735,cs),
(890,735,o),
(849,707,o),
(816,683,c),
(783,715,o),
(722,735,o),
(664,735,cs),
(614,735,o),
(556,720,o),
(508,683,c),
(469,716,o),
(412,735,o),
(356,735,cs),
(249,735,o),
(106,665,o),
(106,476,c),
(25,476,l),
(25,423,l),
(106,423,l),
(106,103,ls),
(106,57,o),
(90,40,o),
(27,40,c),
(27,0,l)
);
},
{
closed = 1;
nodes = (
(236,544,ls),
(236,621,o),
(277,691,o),
(340,691,cs),
(406,691,o),
(391,614,o),
(436,602,c),
(423,568,o),
(415,525,o),
(415,476,c),
(236,476,l)
);
},
{
closed = 1;
nodes = (
(545,544,ls),
(545,621,o),
(586,691,o),
(649,691,cs),
(716,691,o),
(701,614,o),
(745,602,c),
(732,568,o),
(724,525,o),
(724,476,c),
(545,476,l)
);
}
);
width = 1245;
}
);
metricLeft = f;
metricRight = i;
},
{
glyphname = f_f_f_j.liga;
kernLeft = f;
kernRight = j;
lastChange = "2024-08-06 00:44:58 +0000";
layers = (
{
layerId = m01;
shapes = (
{
closed = 1;
nodes = (
(1038,-187,o),
(1103,-137,o),
(1137,-67,cs),
(1157,-26,o),
(1163,15,o),
(1163,92,cs),
(1163,505,l),
(1058,476,l),
(854,476,l),
(854,544,ls),
(854,631,o),
(886,691,o),
(953,691,cs),
(1048,691,o),
(1026,570,o),
(1100,570,cs),
(1138,570,o),
(1162,602,o),
(1162,634,cs),
(1162,693,o),
(1083,735,o),
(977,735,cs),
(890,735,o),
(849,707,o),
(816,683,c),
(783,715,o),
(722,735,o),
(664,735,cs),
(614,735,o),
(556,720,o),
(508,683,c),
(469,716,o),
(412,735,o),
(356,735,cs),
(249,735,o),
(106,665,o),
(106,476,c),
(25,476,l),
(25,423,l),
(106,423,l),
(106,103,ls),
(106,57,o),
(90,40,o),
(27,40,c),
(27,0,l),
(297,0,l),
(297,40,l),
(248,40,o),
(236,57,o),
(236,103,cs),
(236,423,l),
(415,423,l),
(415,103,ls),
(415,57,o),
(399,40,o),
(354,40,c),
(354,0,l),
(606,0,l),
(606,40,l),
(557,40,o),
(545,57,o),
(545,103,cs),
(545,423,l),
(724,423,l),
(724,103,ls),
(724,57,o),
(708,40,o),
(663,40,c),
(663,0,l),
(916,0,l),
(916,40,l),
(870,40,o),
(854,57,o),
(854,103,cs),
(854,423,l),
(961,423,l),
(1019,418,o),
(1034,409,o),
(1034,347,cs),
(1034,5,ls),
(1034,-107,o),
(1034,-119,o),
(1023,-119,cs),
(997,-119,o),
(1003,-53,o),
(948,-53,cs),
(911,-53,o),
(882,-82,o),
(882,-118,cs),
(882,-157,o),
(917,-187,o),
(970,-187,cs)
);
},
{
closed = 1;
nodes = (
(236,544,ls),
(236,621,o),
(277,691,o),
(340,691,cs),
(406,691,o),
(391,614,o),
(436,602,c),
(423,568,o),
(415,525,o),
(415,476,c),
(236,476,l)
);
},
{
closed = 1;
nodes = (
(545,544,ls),
(545,621,o),
(586,691,o),
(649,691,cs),
(716,691,o),
(701,614,o),
(745,602,c),
(732,568,o),
(724,525,o),
(724,476,c),
(545,476,l)
);
}
);
width = 1238;
}
);
metricLeft = f;
metricRight = j;
},
{
glyphname = f_f_f_k.liga;
kernLeft = f;
kernRight = k;
lastChange = "2024-08-06 00:44:58 +0000";
layers = (
{
layerId = m01;
shapes = (
{
closed = 1;
nodes = (
(297,0,l),
(297,40,l),
(248,40,o),
(236,57,o),
(236,103,cs),
(236,423,l),
(415,423,l),
(415,103,ls),
(415,57,o),
(399,40,o),
(354,40,c),
(354,0,l),
(606,0,l),
(606,40,l),
(557,40,o),
(545,57,o),
(545,103,cs),
(545,423,l),
(724,423,l),
(724,103,ls),
(724,57,o),
(708,40,o),
(663,40,c),
(663,0,l),
(916,0,l),
(916,40,l),
(870,40,o),
(854,57,o),
(854,103,cs),
(854,423,l),
(1034,423,l),
(1034,103,ls),
(1034,57,o),
(1035,40,o),
(972,40,c),
(972,0,l),
(1225,0,l),
(1225,40,l),
(1168,40,o),
(1163,57,o),
(1163,103,cs),
(1163,181,l),
(1214,227,l),
(1298,102,ls),
(1308,87,o),
(1319,70,o),
(1319,59,cs),
(1319,49,o),
(1309,41,o),
(1278,40,c),
(1278,0,l),
(1542,0,l),
(1542,40,l),
(1491,43,o),
(1475,69,o),
(1457,95,cs),
(1303,315,l),
(1342,351,ls),
(1389,394,o),
(1428,425,o),
(1507,436,c),
(1507,476,l),
(1255,476,l),
(1255,436,l),
(1292,434,o),
(1314,423,o),
(1314,407,cs),
(1314,397,o),
(1304,383,o),
(1292,371,cs),
(1163,241,l),
(1163,735,l),
(1080,710,l),
(1050,725,o),
(1015,735,o),
(970,735,cs),
(894,735,o),
(848,706,o),
(816,683,c),
(783,715,o),
(722,735,o),
(664,735,cs),
(614,735,o),
(556,720,o),
(508,683,c),
(469,716,o),
(412,735,o),
(356,735,cs),
(249,735,o),
(106,665,o),
(106,476,c),
(25,476,l),
(25,423,l),
(106,423,l),
(106,103,ls),
(106,57,o),
(90,40,o),
(27,40,c),
(27,0,l)
);
},
{
closed = 1;
nodes = (
(236,544,ls),
(236,621,o),
(277,691,o),
(340,691,cs),
(406,691,o),
(391,614,o),
(436,602,c),
(423,568,o),
(415,525,o),
(415,476,c),
(236,476,l)
);
},
{
closed = 1;
nodes = (
(545,544,ls),
(545,621,o),
(586,691,o),
(649,691,cs),
(716,691,o),
(701,614,o),
(745,602,c),
(732,568,o),
(724,525,o),
(724,476,c),
(545,476,l)
);
},
{
closed = 1;
nodes = (
(854,544,ls),
(854,622,o),
(891,691,o),
(952,691,cs),
(1012,691,o),
(992,624,o),
(1034,612,c),
(1034,476,l),
(854,476,l)
);
}
);
width = 1535;
}
);
metricLeft = f;
metricRight = k;
},
{
glyphname = f_f_f_l.liga;
kernLeft = f;
kernRight = l;
lastChange = "2024-08-06 00:44:58 +0000";
layers = (
{
layerId = m01;
shapes = (
{
closed = 1;
nodes = (
(297,0,l),
(297,40,l),
(248,40,o),
(236,57,o),
(236,103,cs),
(236,423,l),
(415,423,l),
(415,103,ls),
(415,57,o),
(399,40,o),
(354,40,c),
(354,0,l),
(606,0,l),
(606,40,l),
(557,40,o),
(545,57,o),
(545,103,cs),
(545,423,l),
(724,423,l),
(724,103,ls),
(724,57,o),
(708,40,o),
(663,40,c),
(663,0,l),
(916,0,l),
(916,40,l),
(870,40,o),
(854,57,o),
(854,103,cs),
(854,423,l),
(1034,423,l),
(1034,103,ls),
(1034,57,o),
(1035,40,o),
(972,40,c),
(972,0,l),
(1225,0,l),
(1225,40,l),
(1168,40,o),
(1163,57,o),
(1163,103,cs),
(1163,735,l),
(1080,710,l),
(1050,725,o),
(1015,735,o),
(970,735,cs),
(894,735,o),
(848,706,o),
(816,683,c),
(783,715,o),
(722,735,o),
(664,735,cs),
(614,735,o),
(556,720,o),
(508,683,c),
(469,716,o),
(412,735,o),
(356,735,cs),
(249,735,o),
(106,665,o),
(106,476,c),
(25,476,l),
(25,423,l),
(106,423,l),
(106,103,ls),
(106,57,o),
(90,40,o),
(27,40,c),
(27,0,l)
);
},
{
closed = 1;
nodes = (
(236,544,ls),
(236,621,o),
(277,691,o),
(340,691,cs),
(406,691,o),
(391,614,o),
(436,602,c),
(423,568,o),
(415,525,o),
(415,476,c),
(236,476,l)
);
},
{
closed = 1;
nodes = (
(545,544,ls),
(545,621,o),
(586,691,o),
(649,691,cs),
(716,691,o),
(701,614,o),
(745,602,c),
(732,568,o),
(724,525,o),
(724,476,c),
(545,476,l)
);
},
{
closed = 1;
nodes = (
(854,544,ls),
(854,622,o),
(891,691,o),
(952,691,cs),
(1012,691,o),
(992,624,o),
(1034,612,c),
(1034,476,l),
(854,476,l)
);
}
);
width = 1248;
}
);
metricLeft = f;
metricRight = l;
},
{
glyphname = f_f_f_t.liga;
kernLeft = f;
kernRight = t;
lastChange = "2024-08-06 00:44:58 +0000";
layers = (
{
layerId = m01;
shapes = (
{
closed = 1;
nodes = (
(1239,-14,o),
(1285,26,o),
(1316,63,c),
(1289,92,l),
(1275,80,o),
(1248,56,o),
(1214,56,cs),
(1170,56,o),
(1163,96,o),
(1163,150,cs),
(1163,423,l),
(1289,423,l),
(1289,476,l),
(1163,476,l),
(1163,635,l),
(1107,635,l),
(1092,555,o),
(1054,476,o),
(963,476,cs),
(854,476,l),
(854,619,ls),
(854,650,o),
(859,671,o),
(871,671,cs),
(894,671,o),
(899,600,o),
(960,600,cs),
(997,600,o),
(1021,627,o),
(1021,661,cs),
(1021,708,o),
(973,735,o),
(919,735,cs),
(880,735,o),
(840,721,o),
(806,692,c),
(773,717,o),
(722,735,o),
(664,735,cs),
(614,735,o),
(556,720,o),
(508,683,c),
(469,716,o),
(412,735,o),
(356,735,cs),
(249,735,o),
(106,665,o),
(106,476,c),
(25,476,l),
(25,423,l),
(106,423,l),
(106,103,ls),
(106,57,o),
(90,40,o),
(27,40,c),
(27,0,l),
(297,0,l),
(297,40,l),
(248,40,o),
(236,57,o),
(236,103,cs),
(236,423,l),
(415,423,l),
(415,103,ls),
(415,57,o),
(399,40,o),
(354,40,c),
(354,0,l),
(606,0,l),
(606,40,l),
(557,40,o),
(545,57,o),
(545,103,cs),
(545,423,l),
(724,423,l),
(724,103,ls),
(724,57,o),
(708,40,o),
(663,40,c),
(663,0,l),
(948,0,l),
(948,40,l),
(866,40,o),
(854,57,o),
(854,103,cs),
(854,423,l),
(1034,423,l),
(1034,112,ls),
(1034,49,o),
(1057,-14,o),
(1157,-14,cs)
);
},
{
closed = 1;
nodes = (
(236,544,ls),
(236,621,o),
(277,691,o),
(340,691,cs),
(406,691,o),
(391,614,o),
(436,602,c),
(423,568,o),
(415,525,o),
(415,476,c),
(236,476,l)
);
},
{
closed = 1;
nodes = (
(545,544,ls),
(545,621,o),
(586,691,o),
(649,691,cs),
(716,691,o),
(701,614,o),
(745,602,c),
(732,568,o),
(724,525,o),
(724,476,c),
(545,476,l)
);
}
);
width = 1307;
}
);
metricLeft = f;
metricRight = t;
},
{
glyphname = f_f_h.liga;
kernLeft = f;
kernRight = h;
lastChange = "2024-08-06 00:44:58 +0000";
layers = (
{
layerId = m01;
shapes = (
{
closed = 1;
nodes = (
(297,0,l),
(297,40,l),
(248,40,o),
(236,57,o),
(236,103,cs),
(236,423,l),
(415,423,l),
(415,103,ls),
(415,57,o),
(399,40,o),
(354,40,c),
(354,0,l),
(606,0,l),
(606,40,l),
(561,40,o),
(545,57,o),
(545,103,cs),
(545,423,l),
(724,423,l),
(724,103,ls),
(724,57,o),
(725,40,o),
(663,40,c),
(663,0,l),
(916,0,l),
(916,40,l),
(858,40,o),
(854,57,o),
(854,103,cs),
(854,349,l),
(888,379,o),
(921,399,o),
(961,399,cs),
(1004,399,o),
(1034,375,o),
(1034,307,cs),
(1034,103,ls),
(1034,57,o),
(1035,40,o),
(972,40,c),
(972,0,l),
(1225,0,l),
(1225,40,l),
(1168,40,o),
(1163,57,o),
(1163,103,cs),
(1163,317,ls),
(1163,432,o),
(1118,490,o),
(1025,490,cs),
(946,490,o),
(888,450,o),
(854,403,c),
(854,735,l),
(771,710,l),
(741,725,o),
(706,735,o),
(661,735,cs),
(585,735,o),
(538,706,o),
(507,683,c),
(474,715,o),
(413,735,o),
(355,735,cs),
(249,735,o),
(106,665,o),
(106,476,c),
(25,476,l),
(25,423,l),
(106,423,l),
(106,103,ls),
(106,57,o),
(90,40,o),
(27,40,c),
(27,0,l)
);
},
{
closed = 1;
nodes = (
(236,544,ls),
(236,621,o),
(277,691,o),
(340,691,cs),
(406,691,o),
(391,614,o),
(436,602,c),
(423,568,o),
(415,525,o),
(415,476,c),
(236,476,l)
);
},
{
closed = 1;
nodes = (
(545,544,ls),
(545,622,o),
(581,691,o),
(642,691,cs),
(702,691,o),
(682,624,o),
(724,612,c),
(724,476,l),
(545,476,l)
);
}
);
width = 1248;
}
);
metricLeft = f;
metricRight = h;
},
{
glyphname = f_f_i.liga;
kernLeft = f;
kernRight = i;
lastChange = "2024-08-06 00:44:58 +0000";
layers = (
{
layerId = m01;
shapes = (
{
closed = 1;
nodes = (
(297,0,l),
(297,40,l),
(248,40,o),
(236,57,o),
(236,103,cs),
(236,423,l),
(415,423,l),
(415,103,ls),
(415,57,o),
(399,40,o),
(354,40,c),
(354,0,l),
(606,0,l),
(606,40,l),
(561,40,o),
(545,57,o),
(545,103,cs),
(545,423,l),
(652,423,l),
(710,418,o),
(724,409,o),
(724,347,cs),
(724,103,ls),
(724,57,o),
(719,40,o),
(663,40,c),
(663,0,l),
(916,0,l),
(916,40,l),
(858,40,o),
(854,57,o),
(854,103,cs),
(854,505,l),
(749,476,l),
(545,476,l),
(545,544,ls),
(545,631,o),
(577,691,o),
(644,691,cs),
(738,691,o),
(716,570,o),
(790,570,cs),
(828,570,o),
(853,602,o),
(853,635,cs),
(853,693,o),
(774,735,o),
(667,735,cs),
(581,735,o),
(541,708,o),
(507,683,c),
(474,715,o),
(413,735,o),
(355,735,cs),
(249,735,o),
(106,665,o),
(106,476,c),
(25,476,l),
(25,423,l),
(106,423,l),
(106,103,ls),
(106,57,o),
(90,40,o),
(27,40,c),
(27,0,l)
);
},
{
closed = 1;
nodes = (
(236,544,ls),
(236,621,o),
(277,691,o),
(340,691,cs),
(406,691,o),
(391,614,o),
(436,602,c),
(423,568,o),
(415,525,o),
(415,476,c),
(236,476,l)
);
}
);
width = 936;
}
);
metricLeft = f;
metricRight = i;
},
{
glyphname = f_f_j.liga;
kernLeft = f;
kernRight = j;
lastChange = "2024-08-06 00:44:58 +0000";
layers = (
{
layerId = m01;
shapes = (
{
closed = 1;
nodes = (
(729,-187,o),
(794,-137,o),
(828,-67,cs),
(847,-28,o),
(854,11,o),
(854,92,cs),
(854,505,l),
(749,476,l),
(545,476,l),
(545,544,ls),
(545,631,o),
(577,691,o),
(644,691,cs),
(738,691,o),
(716,570,o),
(790,570,cs),
(828,570,o),
(853,602,o),
(853,635,cs),
(853,693,o),
(774,735,o),
(667,735,cs),
(581,735,o),
(541,708,o),
(507,683,c),
(474,715,o),
(413,735,o),
(355,735,cs),
(249,735,o),
(106,665,o),
(106,476,c),
(25,476,l),
(25,423,l),
(106,423,l),
(106,103,ls),
(106,57,o),
(90,40,o),
(27,40,c),
(27,0,l),
(297,0,l),
(297,40,l),
(248,40,o),
(236,57,o),
(236,103,cs),
(236,423,l),
(415,423,l),
(415,103,ls),
(415,57,o),
(399,40,o),
(354,40,c),
(354,0,l),
(606,0,l),
(606,40,l),
(561,40,o),
(545,57,o),
(545,103,cs),
(545,423,l),
(652,423,l),
(710,418,o),
(724,409,o),
(724,347,cs),
(724,5,ls),
(724,-107,o),
(724,-119,o),
(713,-119,cs),
(687,-119,o),
(694,-53,o),
(638,-53,cs),
(602,-53,o),
(573,-81,o),
(573,-117,cs),
(573,-157,o),
(608,-187,o),
(661,-187,cs)
);
},
{
closed = 1;
nodes = (
(236,544,ls),
(236,621,o),
(277,691,o),
(340,691,cs),
(406,691,o),
(391,614,o),
(436,602,c),
(423,568,o),
(415,525,o),
(415,476,c),
(236,476,l)
);
}
);
width = 929;
}
);
metricLeft = f;
metricRight = j;
},
{
glyphname = f_f_k.liga;
kernLeft = f;
kernRight = k;
lastChange = "2024-08-06 00:44:58 +0000";
layers = (
{
layerId = m01;
shapes = (
{
closed = 1;
nodes = (
(297,0,l),
(297,40,l),
(248,40,o),
(236,57,o),
(236,103,cs),
(236,423,l),
(415,423,l),
(415,103,ls),
(415,57,o),
(399,40,o),
(354,40,c),
(354,0,l),
(606,0,l),
(606,40,l),
(561,40,o),
(545,57,o),
(545,103,cs),
(545,423,l),
(724,423,l),
(724,103,ls),
(724,57,o),
(725,40,o),
(663,40,c),
(663,0,l),
(916,0,l),
(916,40,l),
(858,40,o),
(854,57,o),
(854,103,cs),
(854,181,l),
(905,227,l),
(989,102,ls),
(999,87,o),
(1010,70,o),
(1010,59,cs),
(1010,49,o),
(1000,41,o),
(969,40,c),
(969,0,l),
(1232,0,l),
(1232,40,l),
(1182,43,o),
(1166,69,o),
(1148,95,cs),
(994,315,l),
(1032,351,ls),
(1078,394,o),
(1119,425,o),
(1198,436,c),
(1198,476,l),
(946,476,l),
(946,436,l),
(979,435,o),
(1004,424,o),
(1004,408,cs),
(1004,397,o),
(992,380,o),
(983,371,cs),
(854,241,l),
(854,735,l),
(771,710,l),
(741,725,o),
(706,735,o),
(661,735,cs),
(585,735,o),
(538,706,o),
(507,683,c),
(474,715,o),
(413,735,o),
(355,735,cs),
(249,735,o),
(106,665,o),
(106,476,c),
(25,476,l),
(25,423,l),
(106,423,l),
(106,103,ls),
(106,57,o),
(90,40,o),
(27,40,c),
(27,0,l)
);
},
{
closed = 1;
nodes = (
(236,544,ls),
(236,621,o),
(277,691,o),
(340,691,cs),
(406,691,o),
(391,614,o),
(436,602,c),
(423,568,o),
(415,525,o),
(415,476,c),
(236,476,l)
);
},
{
closed = 1;
nodes = (
(545,544,ls),
(545,622,o),
(581,691,o),
(642,691,cs),
(702,691,o),
(682,624,o),
(724,612,c),
(724,476,l),
(545,476,l)
);
}
);
width = 1225;
}
);
metricLeft = f;
metricRight = k;
},
{
glyphname = f_f_l.liga;
kernLeft = f;
kernRight = l;
lastChange = "2024-08-06 00:44:58 +0000";
layers = (
{
layerId = m01;
shapes = (
{
closed = 1;
nodes = (
(297,0,l),
(297,40,l),
(248,40,o),
(236,57,o),
(236,103,cs),
(236,423,l),
(415,423,l),
(415,103,ls),
(415,57,o),
(399,40,o),
(354,40,c),
(354,0,l),
(606,0,l),
(606,40,l),
(561,40,o),
(545,57,o),
(545,103,cs),
(545,423,l),
(724,423,l),
(724,103,ls),
(724,57,o),
(725,40,o),
(663,40,c),
(663,0,l),
(916,0,l),
(916,40,l),
(858,40,o),
(854,57,o),
(854,103,cs),
(854,735,l),
(771,710,l),
(741,725,o),
(706,735,o),
(661,735,cs),
(585,735,o),
(538,706,o),
(507,683,c),
(474,715,o),
(413,735,o),
(355,735,cs),
(249,735,o),
(106,665,o),
(106,476,c),
(25,476,l),
(25,423,l),
(106,423,l),
(106,103,ls),
(106,57,o),
(90,40,o),
(27,40,c),
(27,0,l)
);
},
{
closed = 1;
nodes = (
(236,544,ls),
(236,621,o),
(277,691,o),
(340,691,cs),
(406,691,o),
(391,614,o),
(436,602,c),
(423,568,o),
(415,525,o),
(415,476,c),
(236,476,l)
);
},
{
closed = 1;
nodes = (
(545,544,ls),
(545,622,o),
(581,691,o),
(642,691,cs),
(702,691,o),
(682,624,o),
(724,612,c),
(724,476,l),
(545,476,l)
);
}
);
width = 939;
}
);
metricLeft = f;
metricRight = l;
},
{
glyphname = f_f_t.liga;
kernLeft = f;
kernRight = t;
lastChange = "2024-08-06 00:44:58 +0000";
layers = (
{
layerId = m01;
shapes = (
{
closed = 1;
nodes = (
(930,-14,o),
(976,26,o),
(1006,63,c),
(979,92,l),
(965,80,o),
(938,56,o),
(905,56,cs),
(854,56,o),
(854,112,o),
(854,150,cs),
(854,423,l),
(979,423,l),
(979,476,l),
(854,476,l),
(854,635,l),
(798,635,l),
(783,555,o),
(745,476,o),
(654,476,cs),
(545,476,l),
(545,619,ls),
(545,650,o),
(550,671,o),
(562,671,cs),
(585,671,o),
(590,600,o),
(651,600,cs),
(688,600,o),
(711,627,o),
(711,660,cs),
(711,708,o),
(664,735,o),
(610,735,cs),
(571,735,o),
(531,721,o),
(497,692,c),
(464,717,o),
(412,735,o),
(357,735,cs),
(248,735,o),
(106,665,o),
(106,476,c),
(25,476,l),
(25,423,l),
(106,423,l),
(106,103,ls),
(106,57,o),
(90,40,o),
(27,40,c),
(27,0,l),
(297,0,l),
(297,40,l),
(248,40,o),
(236,57,o),
(236,103,cs),
(236,423,l),
(415,423,l),
(415,103,ls),
(415,57,o),
(399,40,o),
(354,40,c),
(354,0,l),
(639,0,l),
(639,40,l),
(557,40,o),
(545,57,o),
(545,103,cs),
(545,423,l),
(724,423,l),
(724,112,ls),
(724,49,o),
(748,-14,o),
(848,-14,cs)
);
},
{
closed = 1;
nodes = (
(236,544,ls),
(236,621,o),
(277,691,o),
(340,691,cs),
(406,691,o),
(391,614,o),
(436,602,c),
(423,568,o),
(415,525,o),
(415,476,c),
(236,476,l)
);
}
);
width = 997;
}
);
metricLeft = f;
metricRight = t;
},
{
glyphname = f_h.liga;
kernLeft = f;
kernRight = h;
lastChange = "2024-08-06 00:44:58 +0000";
layers = (
{
layerId = m01;
shapes = (
{
closed = 1;
nodes = (
(297,0,l),
(297,40,l),
(252,40,o),
(236,57,o),
(236,103,cs),
(236,423,l),
(415,423,l),
(415,103,ls),
(415,57,o),
(416,40,o),
(354,40,c),
(354,0,l),
(606,0,l),
(606,40,l),
(549,40,o),
(545,57,o),
(545,103,cs),
(545,349,l),
(578,379,o),
(612,399,o),
(652,399,cs),
(695,399,o),
(724,375,o),
(724,307,cs),
(724,103,ls),
(724,57,o),
(725,40,o),
(663,40,c),
(663,0,l),
(916,0,l),
(916,40,l),
(858,40,o),
(854,57,o),
(854,103,cs),
(854,317,ls),
(854,432,o),
(809,490,o),
(716,490,cs),
(637,490,o),
(578,450,o),
(545,403,c),
(545,735,l),
(462,710,l),
(434,724,o),
(398,735,o),
(353,735,cs),
(238,735,o),
(106,664,o),
(106,476,c),
(25,476,l),
(25,423,l),
(106,423,l),
(106,103,ls),
(106,57,o),
(90,40,o),
(27,40,c),
(27,0,l)
);
},
{
closed = 1;
nodes = (
(236,544,ls),
(236,622,o),
(272,691,o),
(333,691,cs),
(393,691,o),
(373,624,o),
(415,612,c),
(415,476,l),
(236,476,l)
);
}
);
width = 991;
}
);
metricLeft = f;
metricRight = j;
},
{
glyphname = f_i.liga;
kernLeft = f;
kernRight = i;
lastChange = "2024-08-06 00:44:58 +0000";
layers = (
{
layerId = m01;
shapes = (
{
closed = 1;
nodes = (
(297,0,l),
(297,40,l),
(252,40,o),
(236,57,o),
(236,103,cs),
(236,423,l),
(343,423,l),
(401,418,o),
(415,409,o),
(415,347,cs),
(415,103,ls),
(415,57,o),
(410,40,o),
(354,40,c),
(354,0,l),
(606,0,l),
(606,40,l),
(549,40,o),
(545,57,o),
(545,103,cs),
(545,505,l),
(440,476,l),
(236,476,l),
(236,544,ls),
(236,631,o),
(268,691,o),
(335,691,cs),
(429,691,o),
(406,570,o),
(481,570,cs),
(519,570,o),
(544,602,o),
(544,634,cs),
(544,692,o),
(465,735,o),
(362,735,cs),
(231,735,o),
(106,665,o),
(106,476,c),
(25,476,l),
(25,423,l),
(106,423,l),
(106,103,ls),
(106,57,o),
(90,40,o),
(27,40,c),
(27,0,l)
);
}
);
width = 626;
}
);
metricLeft = f;
metricRight = i;
},
{
glyphname = f_j.liga;
kernLeft = f;
kernRight = j;
lastChange = "2024-08-06 00:44:58 +0000";
layers = (
{
layerId = m01;
shapes = (
{
closed = 1;
nodes = (
(419,-187,o),
(485,-137,o),
(519,-67,cs),
(544,-16,o),
(545,40,o),
(545,92,cs),
(545,505,l),
(440,476,l),
(236,476,l),
(236,544,ls),
(236,631,o),
(268,691,o),
(335,691,cs),
(429,691,o),
(406,570,o),
(481,570,cs),
(519,570,o),
(544,602,o),
(544,634,cs),
(544,692,o),
(465,735,o),
(362,735,cs),
(231,735,o),
(106,665,o),
(106,476,c),
(25,476,l),
(25,423,l),
(106,423,l),
(106,103,ls),
(106,57,o),
(90,40,o),
(27,40,c),
(27,0,l),
(297,0,l),
(297,40,l),
(252,40,o),
(236,57,o),
(236,103,cs),
(236,423,l),
(343,423,l),
(401,418,o),
(415,409,o),
(415,347,cs),
(415,5,ls),
(415,-107,o),
(415,-119,o),
(404,-119,cs),
(378,-119,o),
(385,-53,o),
(329,-53,cs),
(293,-53,o),
(264,-81,o),
(264,-117,cs),
(264,-157,o),
(298,-187,o),
(351,-187,cs)
);
}
);
width = 620;
}
);
metricLeft = f;
metricRight = j;
},
{
glyphname = f_k.liga;
kernLeft = f;
kernRight = k;
lastChange = "2024-08-06 00:44:58 +0000";
layers = (
{
layerId = m01;
shapes = (
{
closed = 1;
nodes = (
(297,0,l),
(297,40,l),
(252,40,o),
(236,57,o),
(236,103,cs),
(236,423,l),
(415,423,l),
(415,103,ls),
(415,57,o),
(416,40,o),
(354,40,c),
(354,0,l),
(606,0,l),
(606,40,l),
(549,40,o),
(545,57,o),
(545,103,cs),
(545,181,l),
(596,227,l),
(680,102,ls),
(690,87,o),
(701,70,o),
(701,59,cs),
(701,49,o),
(691,41,o),
(659,40,c),
(659,0,l),
(923,0,l),
(923,40,l),
(874,43,o),
(858,68,o),
(839,95,cs),
(684,315,l),
(723,351,ls),
(769,394,o),
(810,425,o),
(889,436,c),
(889,476,l),
(637,476,l),
(637,436,l),
(670,435,o),
(695,424,o),
(695,408,cs),
(695,397,o),
(683,380,o),
(674,371,cs),
(545,241,l),
(545,735,l),
(462,710,l),
(434,724,o),
(398,735,o),
(353,735,cs),
(238,735,o),
(106,664,o),
(106,476,c),
(25,476,l),
(25,423,l),
(106,423,l),
(106,103,ls),
(106,57,o),
(90,40,o),
(27,40,c),
(27,0,l)
);
},
{
closed = 1;
nodes = (
(236,544,ls),
(236,622,o),
(272,691,o),
(333,691,cs),
(393,691,o),
(373,624,o),
(415,612,c),
(415,476,l),
(236,476,l)
);
}
);
width = 916;
}
);
metricLeft = f;
metricRight = k;
},
{
glyphname = f_l.liga;
kernLeft = f;
kernRight = l;
lastChange = "2024-08-06 00:44:58 +0000";
layers = (
{
layerId = m01;
shapes = (
{
closed = 1;
nodes = (
(297,0,l),
(297,40,l),
(252,40,o),
(236,57,o),
(236,103,cs),
(236,423,l),
(415,423,l),
(415,103,ls),
(415,57,o),
(416,40,o),
(354,40,c),
(354,0,l),
(606,0,l),
(606,40,l),
(549,40,o),
(545,57,o),
(545,103,cs),
(545,735,l),
(462,710,l),
(434,724,o),
(398,735,o),
(353,735,cs),
(238,735,o),
(106,664,o),
(106,476,c),
(25,476,l),
(25,423,l),
(106,423,l),
(106,103,ls),
(106,57,o),
(90,40,o),
(27,40,c),
(27,0,l)
);
},
{
closed = 1;
nodes = (
(236,544,ls),
(236,622,o),
(272,691,o),
(333,691,cs),
(393,691,o),
(373,624,o),
(415,612,c),
(415,476,l),
(236,476,l)
);
}
);
width = 629;
}
);
metricLeft = f;
metricRight = l;
},
{
glyphname = f_t.liga;
kernLeft = f;
kernRight = t;
lastChange = "2024-08-06 00:44:58 +0000";
layers = (
{
layerId = m01;
shapes = (
{
closed = 1;
nodes = (
(621,-14,o),
(668,27,o),
(697,63,c),
(670,92,l),
(656,80,o),
(629,56,o),
(596,56,cs),
(545,56,o),
(545,112,o),
(545,150,cs),
(545,423,l),
(670,423,l),
(670,476,l),
(545,476,l),
(545,635,l),
(489,635,l),
(474,555,o),
(436,476,o),
(345,476,cs),
(236,476,l),
(236,619,ls),
(236,650,o),
(241,671,o),
(253,671,cs),
(276,671,o),
(281,600,o),
(341,600,cs),
(378,600,o),
(402,627,o),
(402,661,cs),
(402,707,o),
(356,735,o),
(299,735,cs),
(201,735,o),
(106,650,o),
(106,476,c),
(25,476,l),
(25,423,l),
(106,423,l),
(106,103,ls),
(106,57,o),
(90,40,o),
(27,40,c),
(27,0,l),
(315,0,l),
(315,40,l),
(248,40,o),
(236,57,o),
(236,103,cs),
(236,423,l),
(415,423,l),
(415,112,ls),
(415,48,o),
(439,-14,o),
(539,-14,cs)
);
}
);
width = 688;
}
);
metricLeft = f;
metricRight = t;
},
{
glyphname = ordfeminine;
lastChange = "2024-08-06 00:44:58 +0000";
layers = (
{
layerId = m01;
shapes = (
{
closed = 1;
nodes = (
(171,398,o),
(205,414,o),
(231,435,c),
(242,421,o),
(260,398,o),
(293,398,cs),
(328,398,o),
(351,424,o),
(369,440,c),
(346,462,l),
(339,458,o),
(334,454,o),
(326,454,cs),
(312,454,o),
(314,474,o),
(314,516,cs),
(314,624,ls),
(314,676,o),
(273,703,o),
(195,703,cs),
(122,703,o),
(55,679,o),
(55,637,cs),
(55,616,o),
(72,591,o),
(103,591,cs),
(158,591,o),
(138,670,o),
(196,670,cs),
(213,670,o),
(225,663,o),
(225,626,cs),
(225,595,l),
(104,580,o),
(36,538,o),
(36,477,cs),
(36,430,o),
(76,398,o),
(132,398,cs)
);
},
{
closed = 1;
nodes = (
(142,446,o),
(134,466,o),
(134,487,cs),
(134,511,o),
(144,543,o),
(225,562,c),
(225,472,l),
(214,464,o),
(191,446,o),
(167,446,cs)
);
}
);
width = 381;
}
);
unicode = 170;
},
{
glyphname = ordmasculine;
lastChange = "2024-08-06 00:44:58 +0000";
layers = (
{
layerId = m01;
shapes = (
{
closed = 1;
nodes = (
(292,398,o),
(356,472,o),
(356,552,cs),
(356,641,o),
(277,703,o),
(196,703,cs),
(116,703,o),
(36,642,o),
(36,553,cs),
(36,475,o),
(96,398,o),
(195,398,cs)
);
},
{
closed = 1;
nodes = (
(159,434,o),
(138,475,o),
(138,550,cs),
(138,625,o),
(159,667,o),
(196,667,cs),
(235,667,o),
(253,622,o),
(253,550,cs),
(253,476,o),
(234,434,o),
(196,434,cs)
);
}
);
width = 392;
}
);
unicode = 186;
},
{
glyphname = Omega;
lastChange = "2024-08-06 00:44:58 +0000";
layers = (
{
layerId = m01;
shapes = (
{
closed = 1;
nodes = (
(387,3,l),
(387,38,l),
(299,126,o),
(276,257,o),
(276,377,cs),
(276,597,o),
(354,698,o),
(445,698,cs),
(542,698,o),
(619,595,o),
(619,384,cs),
(619,257,o),
(598,129,o),
(508,38,c),
(508,3,l),
(809,3,l),
(876,183,l),
(840,210,l),
(749,78,o),
(706,43,o),
(592,43,cs),
(586,43,l),
(747,141,o),
(796,263,o),
(796,389,cs),
(796,587,o),
(651,739,o),
(448,739,cs),
(244,739,o),
(99,587,o),
(99,389,cs),
(99,263,o),
(148,141,o),
(309,43,c),
(303,43,ls),
(189,43,o),
(157,78,o),
(66,210,c),
(19,183,l),
(86,3,l)
);
}
);
width = 895;
}
);
unicode = 937;
},
{
glyphname = pi;
lastChange = "2024-08-06 00:44:58 +0000";
layers = (
{
layerId = m01;
shapes = (
{
closed = 1;
nodes = (
(223,-14,o),
(283,35,o),
(283,135,cs),
(283,418,l),
(365,418,l),
(365,143,ls),
(365,67,o),
(383,-14,o),
(474,-14,cs),
(543,-14,o),
(577,40,o),
(593,61,c),
(570,89,l),
(544,63,o),
(538,58,o),
(515,58,cs),
(484,58,o),
(488,116,o),
(488,182,cs),
(488,418,l),
(525,418,ls),
(570,418,o),
(599,469,o),
(602,503,c),
(555,515,l),
(536,491,o),
(522,483,o),
(497,483,cs),
(166,483,ls),
(75,483,o),
(40,449,o),
(9,394,c),
(51,364,l),
(106,405,o),
(119,417,o),
(163,418,c),
(163,171,ls),
(163,62,o),
(145,61,o),
(141,68,cs),
(132,83,o),
(120,93,o),
(97,93,cs),
(63,93,o),
(45,67,o),
(45,48,cs),
(45,36,o),
(63,-14,o),
(143,-14,cs)
);
}
);
width = 608;
}
);
unicode = 960;
},
{
glyphname = zero;
kernLeft = "0";
kernRight = "0";
lastChange = "2024-08-06 00:44:58 +0000";
layers = (
{
layerId = m01;
shapes = (
{
closed = 1;
nodes = (
(489,-18,o),
(586,161,o),
(586,345,cs),
(586,542,o),
(474,703,o),
(317,703,cs),
(160,703,o),
(36,544,o),
(36,342,cs),
(36,140,o),
(159,-18,o),
(319,-18,cs)
);
},
{
closed = 1;
nodes = (
(215,26,o),
(197,195,o),
(197,344,cs),
(197,519,o),
(222,658,o),
(313,658,cs),
(403,658,o),
(425,522,o),
(425,346,cs),
(425,114,o),
(387,26,o),
(315,26,cs)
);
}
);
width = 623;
}
);
unicode = 48;
},
{
glyphname = one;
kernLeft = "1";
kernRight = "1";
lastChange = "2024-08-06 00:44:58 +0000";
layers = (
{
layerId = m01;
shapes = (
{
closed = 1;
nodes = (
(533,0,l),
(533,46,l),
(401,46,o),
(396,65,o),
(396,131,cs),
(396,715,l),
(301,670,o),
(212,650,o),
(106,628,c),
(106,586,l),
(232,586,o),
(252,572,o),
(252,505,cs),
(252,131,ls),
(252,65,o),
(244,46,o),
(112,46,c),
(112,0,l)
);
}
);
width = 623;
}
);
unicode = 49;
},
{
glyphname = two;
kernLeft = "2";
kernRight = "2";
lastChange = "2024-08-06 00:44:58 +0000";
layers = (
{
layerId = m01;
shapes = (
{
closed = 1;
nodes = (
(512,0,l),
(569,237,l),
(526,248,l),
(477,137,o),
(470,132,o),
(346,132,cs),
(157,132,l),
(189,164,o),
(246,203,o),
(286,228,cs),
(291,231,o),
(404,301,o),
(445,331,cs),
(512,380,o),
(555,443,o),
(555,517,cs),
(555,635,o),
(446,703,o),
(303,703,cs),
(141,703,o),
(55,615,o),
(55,533,cs),
(55,483,o),
(88,444,o),
(135,444,cs),
(180,444,o),
(211,479,o),
(211,525,cs),
(211,545,o),
(205,565,o),
(205,583,cs),
(205,628,o),
(243,654,o),
(292,654,cs),
(351,654,o),
(394,616,o),
(394,534,cs),
(394,459,o),
(358,399,o),
(311,345,cs),
(270,298,o),
(229,264,o),
(192,228,cs),
(146,183,o),
(68,99,o),
(28,52,c),
(28,0,l)
);
}
);
width = 623;
}
);
unicode = 50;
},
{
glyphname = three;
kernLeft = "3";
kernRight = "3";
lastChange = "2024-08-06 00:44:58 +0000";
layers = (
{
layerId = m01;
shapes = (
{
closed = 1;
nodes = (
(457,-18,o),
(570,64,o),
(570,183,cs),
(570,276,o),
(502,351,o),
(351,366,c),
(439,371,o),
(550,431,o),
(550,533,cs),
(550,637,o),
(434,703,o),
(304,703,cs),
(188,703,o),
(71,650,o),
(71,565,cs),
(71,516,o),
(109,488,o),
(151,488,cs),
(178,488,o),
(221,500,o),
(221,585,cs),
(221,639,o),
(258,658,o),
(298,658,cs),
(348,658,o),
(398,629,o),
(398,535,cs),
(398,432,o),
(339,389,o),
(270,389,cs),
(252,389,o),
(240,392,o),
(226,392,cs),
(194,392,o),
(191,375,o),
(191,365,cs),
(191,354,o),
(195,334,o),
(222,334,cs),
(235,334,o),
(268,339,o),
(288,339,cs),
(352,339,o),
(413,288,o),
(413,182,cs),
(413,86,o),
(363,26,o),
(278,26,cs),
(208,26,o),
(196,67,o),
(196,107,cs),
(196,168,o),
(162,201,o),
(117,201,cs),
(72,201,o),
(41,167,o),
(41,120,cs),
(41,26,o),
(163,-18,o),
(287,-18,cs)
);
}
);
width = 623;
}
);
unicode = 51;
},
{
glyphname = four;
kernLeft = "4";
kernRight = "4";
lastChange = "2024-08-06 00:44:58 +0000";
layers = (
{
layerId = m01;
shapes = (
{
closed = 1;
nodes = (
(558,0,l),
(558,46,l),
(477,46,o),
(471,65,o),
(471,131,cs),
(471,166,l),
(595,166,l),
(595,216,l),
(471,216,l),
(471,703,l),
(375,703,l),
(27,210,l),
(27,166,l),
(328,166,l),
(328,131,ls),
(328,65,o),
(320,46,o),
(228,46,c),
(228,0,l)
);
},
{
closed = 1;
nodes = (
(328,557,l),
(328,216,l),
(86,216,l)
);
}
);
width = 623;
}
);
unicode = 52;
},
{
glyphname = five;
kernLeft = "5";
kernRight = "5";
lastChange = "2024-08-06 00:44:58 +0000";
layers = (
{
layerId = m01;
shapes = (
{
closed = 1;
nodes = (
(476,-18,o),
(576,99,o),
(576,223,cs),
(576,348,o),
(473,442,o),
(327,442,cs),
(248,442,o),
(183,415,o),
(135,366,c),
(146,424,o),
(156,489,o),
(160,556,c),
(503,556,l),
(532,684,l),
(120,684,l),
(119,562,o),
(101,435,o),
(83,314,c),
(121,298,l),
(158,346,o),
(209,378,o),
(272,378,cs),
(351,378,o),
(415,328,o),
(415,202,cs),
(415,116,o),
(385,26,o),
(281,26,cs),
(216,26,o),
(203,61,o),
(203,98,cs),
(203,180,o),
(162,199,o),
(128,199,cs),
(90,199,o),
(46,174,o),
(46,123,cs),
(46,45,o),
(146,-18,o),
(286,-18,cs)
);
}
);
width = 623;
}
);
unicode = 53;
},
{
glyphname = six;
kernLeft = "6";
kernRight = "6";
lastChange = "2024-08-06 00:44:58 +0000";
layers = (
{
layerId = m01;
shapes = (
{
closed = 1;
nodes = (
(477,-18,o),
(584,91,o),
(584,226,cs),
(584,349,o),
(495,435,o),
(378,435,cs),
(299,435,o),
(244,395,o),
(199,348,c),
(203,540,o),
(254,656,o),
(336,656,cs),
(425,656,o),
(371,520,o),
(471,520,cs),
(521,520,o),
(554,554,o),
(554,598,cs),
(554,664,o),
(479,704,o),
(384,704,cs),
(188,704,o),
(40,534,o),
(40,312,cs),
(40,112,o),
(160,-18,o),
(325,-18,cs)
);
},
{
closed = 1;
nodes = (
(211,26,o),
(198,142,o),
(198,283,c),
(232,323,o),
(277,366,o),
(330,366,cs),
(377,366,o),
(423,333,o),
(423,203,cs),
(423,108,o),
(398,26,o),
(313,26,cs)
);
}
);
width = 623;
}
);
unicode = 54;
},
{
glyphname = seven;
kernLeft = "7";
kernRight = "7";
lastChange = "2024-08-06 00:44:58 +0000";
layers = (
{
layerId = m01;
shapes = (
{
closed = 1;
nodes = (
(334,-18,o),
(365,19,o),
(370,111,cs),
(380,298,o),
(491,500,o),
(590,646,c),
(590,684,l),
(118,684,l),
(61,436,l),
(98,423,l),
(156,542,o),
(160,552,o),
(274,552,cs),
(479,552,l),
(427,498,o),
(371,424,o),
(323,352,cs),
(266,267,o),
(191,162,o),
(191,76,cs),
(191,29,o),
(214,-18,o),
(278,-18,cs)
);
}
);
width = 623;
}
);
unicode = 55;
},
{
glyphname = eight;
kernLeft = "8";
kernRight = "8";
lastChange = "2024-08-06 00:44:58 +0000";
layers = (
{
layerId = m01;
shapes = (
{
closed = 1;
nodes = (
(503,-18,o),
(585,85,o),
(585,195,cs),
(585,291,o),
(523,359,o),
(418,399,c),
(481,414,o),
(558,454,o),
(558,541,cs),
(558,652,o),
(435,703,o),
(320,703,cs),
(170,703,o),
(76,616,o),
(76,503,cs),
(76,421,o),
(123,371,o),
(192,331,c),
(108,308,o),
(38,241,o),
(38,157,cs),
(38,57,o),
(139,-18,o),
(307,-18,cs)
);
},
{
closed = 1;
nodes = (
(213,26,o),
(169,96,o),
(169,169,cs),
(169,236,o),
(206,282,o),
(234,309,c),
(273,287,o),
(310,275,o),
(366,249,cs),
(422,223,o),
(467,197,o),
(467,138,cs),
(467,74,o),
(413,26,o),
(322,26,cs)
);
},
{
closed = 1;
nodes = (
(305,448,o),
(265,465,o),
(235,484,cs),
(200,507,o),
(190,536,o),
(190,561,cs),
(190,620,o),
(245,658,o),
(315,658,cs),
(383,658,o),
(437,623,o),
(437,544,cs),
(437,492,o),
(413,451,o),
(375,417,c)
);
}
);
width = 623;
}
);
unicode = 56;
},
{
glyphname = nine;
kernLeft = "9";
kernRight = "9";
lastChange = "2024-08-06 00:44:58 +0000";
layers = (
{
layerId = m01;
shapes = (
{
closed = 1;
nodes = (
(437,-18,o),
(585,151,o),
(585,373,cs),
(585,573,o),
(464,703,o),
(298,703,cs),
(148,703,o),
(39,596,o),
(39,460,cs),
(39,335,o),
(131,249,o),
(243,249,cs),
(324,249,o),
(389,294,o),
(428,346,c),
(424,152,o),
(371,32,o),
(288,32,cs),
(201,32,o),
(248,166,o),
(153,166,cs),
(106,166,o),
(71,133,o),
(71,88,cs),
(71,22,o),
(146,-18,o),
(241,-18,cs)
);
},
{
closed = 1;
nodes = (
(245,321,o),
(200,355,o),
(200,483,cs),
(200,579,o),
(225,658,o),
(308,658,cs),
(413,658,o),
(424,534,o),
(424,433,cs),
(424,402,o),
(423,424,o),
(423,403,c),
(388,361,o),
(350,321,o),
(295,321,cs)
);
}
);
width = 623;
}
);
unicode = 57;
},
{
glyphname = fraction;
lastChange = "2024-08-06 00:44:58 +0000";
layers = (
{
layerId = m01;
shapes = (
{
closed = 1;
nodes = (
(-98,0,l),
(277,684,l),
(210,684,l),
(-165,0,l)
);
}
);
width = 110;
}
);
unicode = 8260;
},
{
glyphname = zerosuperior;
lastChange = "2024-08-06 00:44:58 +0000";
layers = (
{
layerId = m01;
shapes = (
{
closed = 1;
nodes = (
(309,344,o),
(383,438,o),
(383,562,cs),
(383,678,o),
(312,776,o),
(209,776,cs),
(107,776,o),
(28,678,o),
(28,563,cs),
(28,438,o),
(108,344,o),
(206,344,cs)
);
},
{
closed = 1;
nodes = (
(149,377,o),
(136,469,o),
(136,564,cs),
(136,690,o),
(163,743,o),
(206,743,cs),
(247,743,o),
(275,694,o),
(275,557,cs),
(275,453,o),
(256,377,o),
(206,377,cs)
);
}
);
width = 411;
}
);
unicode = 8304;
},
{
glyphname = onesuperior;
lastChange = "2024-08-06 00:44:58 +0000";
layers = (
{
layerId = m01;
shapes = (
{
closed = 1;
nodes = (
(349,355,l),
(349,389,l),
(264,389,o),
(263,394,o),
(263,434,cs),
(263,785,l),
(201,759,o),
(141,743,o),
(72,732,c),
(72,701,l),
(155,701,o),
(164,692,o),
(164,652,cs),
(164,434,ls),
(164,394,o),
(162,389,o),
(77,389,c),
(77,355,l)
);
}
);
width = 411;
}
);
unicode = 185;
},
{
glyphname = twosuperior;
lastChange = "2024-08-06 00:44:58 +0000";
layers = (
{
layerId = m01;
shapes = (
{
closed = 1;
nodes = (
(335,355,l),
(372,501,l),
(339,508,l),
(306,440,o),
(301,440,o),
(228,440,cs),
(118,440,l),
(147,460,o),
(163,474,o),
(192,491,cs),
(214,504,o),
(266,532,o),
(293,551,cs),
(333,579,o),
(362,617,o),
(362,663,cs),
(362,733,o),
(295,777,o),
(201,777,cs),
(97,777,o),
(41,724,o),
(41,673,cs),
(41,645,o),
(58,616,o),
(94,616,cs),
(129,616,o),
(146,642,o),
(146,670,cs),
(146,683,o),
(143,692,o),
(143,704,cs),
(143,730,o),
(161,742,o),
(193,742,cs),
(230,742,o),
(254,725,o),
(254,676,cs),
(254,631,o),
(234,598,o),
(203,565,cs),
(179,539,o),
(151,518,o),
(125,493,cs),
(89,458,o),
(56,426,o),
(24,390,c),
(24,355,l)
);
}
);
width = 411;
}
);
unicode = 178;
},
{
glyphname = threesuperior;
lastChange = "2024-08-06 00:44:58 +0000";
layers = (
{
layerId = m01;
shapes = (
{
closed = 1;
nodes = (
(303,344,o),
(372,395,o),
(372,467,cs),
(372,519,o),
(336,557,o),
(257,575,c),
(300,587,o),
(359,611,o),
(359,671,cs),
(359,736,o),
(288,776,o),
(201,776,cs),
(124,776,o),
(51,744,o),
(51,693,cs),
(51,669,o),
(68,642,o),
(103,642,cs),
(120,642,o),
(152,648,o),
(152,702,cs),
(152,732,o),
(171,743,o),
(198,743,cs),
(228,743,o),
(256,730,o),
(256,675,cs),
(256,618,o),
(225,591,o),
(183,591,cs),
(169,591,o),
(160,594,o),
(151,594,cs),
(130,594,o),
(126,580,o),
(126,574,cs),
(126,569,o),
(128,551,o),
(146,551,cs),
(154,551,o),
(176,555,o),
(191,555,cs),
(230,555,o),
(266,526,o),
(266,467,cs),
(266,415,o),
(239,377,o),
(187,377,cs),
(147,377,o),
(136,400,o),
(136,424,cs),
(136,466,o),
(111,480,o),
(85,480,cs),
(51,480,o),
(31,456,o),
(31,428,cs),
(31,377,o),
(100,344,o),
(190,344,cs)
);
}
);
width = 411;
}
);
unicode = 179;
},
{
glyphname = foursuperior;
lastChange = "2024-08-06 00:44:58 +0000";
layers = (
{
layerId = m01;
shapes = (
{
closed = 1;
nodes = (
(364,355,l),
(364,389,l),
(322,389,o),
(310,394,o),
(310,434,cs),
(310,453,l),
(387,453,l),
(387,490,l),
(310,490,l),
(310,776,l),
(244,776,l),
(23,483,l),
(23,453,l),
(212,453,l),
(212,434,ls),
(212,394,o),
(209,389,o),
(149,389,c),
(149,355,l)
);
},
{
closed = 1;
nodes = (
(212,676,l),
(212,490,l),
(71,490,l)
);
}
);
width = 411;
}
);
unicode = 8308;
},
{
glyphname = fivesuperior;
lastChange = "2024-08-06 00:44:58 +0000";
layers = (
{
layerId = m01;
shapes = (
{
closed = 1;
nodes = (
(310,344,o),
(375,414,o),
(375,490,cs),
(375,569,o),
(305,623,o),
(216,623,cs),
(165,623,o),
(130,605,o),
(99,585,c),
(105,617,o),
(110,644,o),
(114,682,c),
(329,682,l),
(348,765,l),
(81,765,l),
(80,692,o),
(68,613,o),
(57,541,c),
(86,530,l),
(110,559,o),
(142,577,o),
(183,577,cs),
(231,577,o),
(267,552,o),
(267,476,cs),
(267,424,o),
(250,377,o),
(189,377,cs),
(150,377,o),
(141,396,o),
(141,418,cs),
(141,467,o),
(109,479,o),
(88,479,cs),
(64,479,o),
(35,462,o),
(35,430,cs),
(35,385,o),
(94,344,o),
(188,344,cs)
);
}
);
width = 411;
}
);
unicode = 8309;
},
{
glyphname = sixsuperior;
lastChange = "2024-08-06 00:44:58 +0000";
layers = (
{
layerId = m01;
shapes = (
{
closed = 1;
nodes = (
(308,344,o),
(379,408,o),
(379,490,cs),
(379,559,o),
(330,618,o),
(248,618,cs),
(200,618,o),
(165,598,o),
(137,572,c),
(144,697,o),
(182,741,o),
(221,741,cs),
(273,741,o),
(239,662,o),
(306,662,cs),
(340,662,o),
(361,683,o),
(361,710,cs),
(361,752,o),
(312,776,o),
(251,776,cs),
(125,776,o),
(30,675,o),
(30,542,cs),
(30,422,o),
(108,344,o),
(213,344,cs)
);
},
{
closed = 1;
nodes = (
(148,377,o),
(137,439,o),
(137,523,c),
(160,547,o),
(182,571,o),
(215,571,cs),
(243,571,o),
(271,554,o),
(271,478,cs),
(271,418,o),
(254,377,o),
(206,377,cs)
);
}
);
width = 411;
}
);
unicode = 8310;
},
{
glyphname = sevensuperior;
lastChange = "2024-08-06 00:44:58 +0000";
layers = (
{
layerId = m01;
shapes = (
{
closed = 1;
nodes = (
(219,344,o),
(243,366,o),
(245,411,cs),
(249,501,o),
(309,636,o),
(385,738,c),
(385,765,l),
(81,765,l),
(43,613,l),
(74,603,l),
(110,675,o),
(121,681,o),
(181,681,cs),
(303,681,l),
(271,645,o),
(241,610,o),
(212,570,cs),
(174,518,o),
(126,452,o),
(126,400,cs),
(126,373,o),
(138,344,o),
(181,344,cs)
);
}
);
width = 411;
}
);
unicode = 8311;
},
{
glyphname = eightsuperior;
lastChange = "2024-08-06 00:44:58 +0000";
layers = (
{
layerId = m01;
shapes = (
{
closed = 1;
nodes = (
(320,344,o),
(382,401,o),
(382,473,cs),
(382,528,o),
(346,570,o),
(284,592,c),
(316,605,o),
(364,628,o),
(364,679,cs),
(364,746,o),
(283,776,o),
(211,776,cs),
(117,776,o),
(53,724,o),
(53,655,cs),
(53,607,o),
(83,577,o),
(121,555,c),
(72,533,o),
(29,508,o),
(29,455,cs),
(29,388,o),
(98,344,o),
(202,344,cs)
);
},
{
closed = 1;
nodes = (
(150,377,o),
(119,413,o),
(119,458,cs),
(119,497,o),
(143,521,o),
(157,536,c),
(181,525,o),
(205,517,o),
(234,505,cs),
(267,491,o),
(299,475,o),
(299,439,cs),
(299,402,o),
(265,377,o),
(213,377,cs)
);
},
{
closed = 1;
nodes = (
(207,624,o),
(173,637,o),
(158,646,cs),
(138,658,o),
(132,675,o),
(132,689,cs),
(132,725,o),
(171,743,o),
(210,743,cs),
(249,743,o),
(281,725,o),
(281,681,cs),
(281,647,o),
(261,623,o),
(244,609,c)
);
}
);
width = 411;
}
);
unicode = 8312;
},
{
glyphname = ninesuperior;
lastChange = "2024-08-06 00:44:58 +0000";
layers = (
{
layerId = m01;
shapes = (
{
closed = 1;
nodes = (
(285,344,o),
(382,446,o),
(382,578,cs),
(382,698,o),
(302,776,o),
(197,776,cs),
(103,776,o),
(30,713,o),
(30,629,cs),
(30,557,o),
(84,502,o),
(160,502,cs),
(209,502,o),
(245,525,o),
(275,552,c),
(267,425,o),
(232,381,o),
(193,381,cs),
(140,381,o),
(168,461,o),
(104,461,cs),
(68,461,o),
(51,435,o),
(51,410,cs),
(51,369,o),
(97,344,o),
(159,344,cs)
);
},
{
closed = 1;
nodes = (
(169,551,o),
(138,566,o),
(138,643,cs),
(138,702,o),
(156,743,o),
(203,743,cs),
(261,743,o),
(272,681,o),
(272,597,c),
(250,573,o),
(230,551,o),
(197,551,cs)
);
}
);
width = 411;
}
);
unicode = 8313;
},
{
glyphname = period;
kernLeft = period;
kernRight = period;
lastChange = "2024-08-06 00:44:58 +0000";
layers = (
{
layerId = m01;
shapes = (
{
closed = 1;
nodes = (
(179,-14,o),
(217,22,o),
(217,69,cs),
(217,118,o),
(179,152,o),
(135,152,cs),
(90,152,o),
(51,118,o),
(51,69,cs),
(51,22,o),
(90,-14,o),
(135,-14,cs)
);
}
);
width = 267;
}
);
unicode = 46;
},
{
glyphname = comma;
kernLeft = comma;
kernRight = comma;
lastChange = "2024-08-06 00:44:58 +0000";
layers = (
{
layerId = m01;
shapes = (
{
closed = 1;
nodes = (
(133,-133,o),
(216,-47,o),
(216,46,cs),
(216,104,o),
(183,151,o),
(127,151,cs),
(77,151,o),
(45,114,o),
(45,67,cs),
(45,-6,o),
(120,2,o),
(120,-39,cs),
(120,-72,o),
(69,-110,o),
(27,-137,c),
(49,-173,l)
);
}
);
width = 267;
}
);
unicode = 44;
},
{
glyphname = exclam;
lastChange = "2024-08-06 00:44:58 +0000";
layers = (
{
layerId = m01;
shapes = (
{
closed = 1;
nodes = (
(181,218,l),
(181,507,o),
(242,551,o),
(242,634,cs),
(242,692,o),
(213,735,o),
(157,735,cs),
(101,735,o),
(71,692,o),
(71,634,cs),
(71,551,o),
(133,507,o),
(133,218,c)
);
},
{
pos = (23,0);
ref = period;
}
);
width = 312;
}
);
unicode = 33;
},
{
glyphname = question;
lastChange = "2024-08-06 00:44:58 +0000";
layers = (
{
layerId = m01;
shapes = (
{
closed = 1;
nodes = (
(205,222,l),
(205,301,l),
(333,301,o),
(427,384,o),
(427,505,cs),
(427,631,o),
(324,735,o),
(193,735,cs),
(123,735,o),
(65,705,o),
(65,649,cs),
(65,608,o),
(95,577,o),
(134,577,cs),
(205,577,o),
(206,680,o),
(256,680,cs),
(289,680,o),
(314,634,o),
(314,572,cs),
(314,500,o),
(280,426,o),
(159,426,c),
(159,222,l)
);
},
{
pos = (51,0);
ref = period;
}
);
width = 470;
}
);
unicode = 63;
},
{
glyphname = questiondown;
lastChange = "2024-08-06 00:44:58 +0000";
layers = (
{
layerId = m01;
shapes = (
{
closed = 1;
nodes = (
(347,-258,o),
(405,-228,o),
(405,-172,cs),
(405,-131,o),
(375,-101,o),
(336,-101,cs),
(265,-101,o),
(264,-203,o),
(215,-203,cs),
(182,-203,o),
(157,-157,o),
(157,-95,cs),
(157,-23,o),
(190,51,o),
(311,51,c),
(311,255,l),
(265,255,l),
(265,176,l),
(137,176,o),
(43,93,o),
(43,-29,cs),
(43,-155,o),
(146,-258,o),
(277,-258,cs)
);
},
{
closed = 1;
nodes = (
(330,324,o),
(369,359,o),
(369,407,cs),
(369,455,o),
(330,491,o),
(285,491,cs),
(240,491,o),
(202,455,o),
(202,407,cs),
(202,360,o),
(239,324,o),
(285,324,cs)
);
}
);
width = 470;
}
);
unicode = 191;
},
{
glyphname = bullet;
lastChange = "2024-08-06 00:44:58 +0000";
layers = (
{
hints = (
{
horizontal = 1;
origin = (0,11);
target = (0,5);
type = Stem;
},
{
origin = (0,8);
target = (0,2);
type = Stem;
}
);
layerId = m01;
shapes = (
{
closed = 1;
nodes = (
(374,188,o),
(459,275,o),
(459,378,cs),
(459,482,o),
(374,566,o),
(270,566,cs),
(166,566,o),
(81,482,o),
(81,378,cs),
(81,275,o),
(166,188,o),
(270,188,cs)
);
}
);
width = 541;
}
);
unicode = 8226;
},
{
glyphname = asterisk;
lastChange = "2024-08-06 00:44:58 +0000";
layers = (
{
layerId = m01;
shapes = (
{
closed = 1;
nodes = (
(148,403,o),
(176,406,o),
(192,428,cs),
(210,452,o),
(208,493,o),
(237,533,c),
(266,493,o),
(265,452,o),
(282,428,cs),
(297,406,o),
(325,402,o),
(342,415,cs),
(359,428,o),
(362,455,o),
(349,474,cs),
(333,498,o),
(292,508,o),
(262,550,c),
(308,565,o),
(349,552,o),
(375,560,cs),
(398,567,o),
(413,591,o),
(406,612,cs),
(400,631,o),
(375,645,o),
(351,638,cs),
(324,630,o),
(300,594,o),
(252,578,c),
(252,628,o),
(278,662,o),
(278,691,cs),
(278,715,o),
(260,735,o),
(238,735,cs),
(216,735,o),
(197,716,o),
(197,691,cs),
(197,662,o),
(223,628,o),
(223,578,c),
(174,594,o),
(151,629,o),
(123,638,cs),
(100,645,o),
(75,632,o),
(69,613,cs),
(63,595,o),
(74,568,o),
(100,560,cs),
(127,552,o),
(166,565,o),
(213,550,c),
(183,508,o),
(141,497,o),
(125,474,cs),
(112,455,o),
(115,428,o),
(132,415,cs)
);
}
);
width = 475;
}
);
unicode = 42;
},
{
glyphname = numbersign;
lastChange = "2024-08-06 00:44:58 +0000";
layers = (
{
hints = (
{
horizontal = 1;
origin = (0,27);
target = up;
type = BottomGhost;
},
{
horizontal = 1;
origin = (0,25);
target = (0,24);
type = Stem;
},
{
horizontal = 1;
origin = (0,21);
target = (0,20);
type = Stem;
}
);
layerId = m01;
shapes = (
{
closed = 1;
nodes = (
(177,0,l),
(211,236,l),
(350,236,l),
(317,0,l),
(384,0,l),
(417,236,l),
(537,236,l),
(537,294,l),
(425,294,l),
(448,452,l),
(570,452,l),
(570,510,l),
(455,510,l),
(489,746,l),
(423,746,l),
(389,510,l),
(249,510,l),
(282,746,l),
(216,746,l),
(183,510,l),
(59,510,l),
(59,452,l),
(175,452,l),
(152,294,l),
(31,294,l),
(31,236,l),
(144,236,l),
(110,0,l)
);
},
{
closed = 1;
nodes = (
(241,452,l),
(382,452,l),
(359,294,l),
(218,294,l)
);
}
);
width = 601;
}
);
unicode = 35;
},
{
glyphname = slash;
lastChange = "2024-08-06 00:44:58 +0000";
layers = (
{
layerId = m01;
shapes = (
{
closed = 1;
nodes = (
(56,-184,l),
(322,721,l),
(239,721,l),
(-28,-184,l)
);
}
);
width = 348;
}
);
unicode = 47;
},
{
glyphname = hyphen;
lastChange = "2024-08-06 00:44:58 +0000";
layers = (
{
layerId = m01;
shapes = (
{
closed = 1;
nodes = (
(240,198,l),
(240,284,l),
(0,284,l),
(0,198,l)
);
}
);
width = 240;
}
);
unicode = 45;
},
{
glyphname = endash;
lastChange = "2024-08-06 00:44:58 +0000";
layers = (
{
layerId = m01;
shapes = (
{
closed = 1;
nodes = (
(586,205,l),
(586,281,l),
(36,281,l),
(36,205,l)
);
}
);
width = 623;
}
);
unicode = 8211;
},
{
glyphname = emdash;
lastChange = "2024-08-06 00:44:58 +0000";
layers = (
{
layerId = m01;
shapes = (
{
closed = 1;
nodes = (
(722,205,l),
(722,281,l),
(0,281,l),
(0,205,l)
);
}
);
width = 722;
}
);
unicode = 8212;
},
{
glyphname = underscore;
lastChange = "2024-08-06 00:44:58 +0000";
layers = (
{
layerId = m01;
shapes = (
{
closed = 1;
nodes = (
(529,-173,l),
(529,-98,l),
(12,-98,l),
(12,-173,l)
);
}
);
width = 541;
}
);
unicode = 95;
},
{
glyphname = parenleft;
lastChange = "2024-08-06 00:44:58 +0000";
layers = (
{
layerId = m01;
shapes = (
{
closed = 1;
nodes = (
(333,-158,l),
(228,-93,o),
(190,11,o),
(190,270,cs),
(190,493,o),
(213,618,o),
(333,695,c),
(333,735,l),
(230,690,o),
(68,534,o),
(68,270,cs),
(68,6,o),
(216,-143,o),
(333,-198,c)
);
}
);
width = 376;
}
);
unicode = 40;
},
{
glyphname = braceleft;
lastChange = "2024-08-06 00:44:58 +0000";
layers = (
{
layerId = m01;
shapes = (
{
closed = 1;
nodes = (
(357,-183,l),
(357,-135,l),
(238,-135,o),
(238,-86,o),
(238,4,cs),
(238,130,ls),
(238,256,o),
(203,261,o),
(135,285,c),
(195,302,o),
(238,310,o),
(238,410,cs),
(238,537,ls),
(238,628,o),
(237,672,o),
(357,672,c),
(357,721,l),
(325,721,ls),
(156,721,o),
(122,690,o),
(122,536,cs),
(122,488,o),
(125,453,o),
(125,423,cs),
(125,334,o),
(99,313,o),
(36,308,c),
(36,261,l),
(93,254,o),
(125,246,o),
(125,149,cs),
(125,119,o),
(122,51,o),
(122,4,cs),
(122,-148,o),
(154,-183,o),
(325,-183,cs)
);
}
);
width = 423;
}
);
unicode = 123;
},
{
glyphname = braceright;
lastChange = "2024-08-06 00:44:58 +0000";
layers = (
{
layerId = m01;
shapes = (
{
closed = 1;
nodes = (
(97,-183,ls),
(264,-183,o),
(301,-150,o),
(301,4,cs),
(301,55,o),
(297,117,o),
(297,150,cs),
(297,245,o),
(330,254,o),
(387,261,c),
(387,308,l),
(324,313,o),
(297,334,o),
(297,421,cs),
(297,455,o),
(301,485,o),
(301,543,cs),
(301,676,o),
(280,721,o),
(97,721,cs),
(66,721,l),
(66,672,l),
(186,672,o),
(185,628,o),
(185,537,cs),
(185,410,ls),
(185,310,o),
(228,302,o),
(288,285,c),
(219,261,o),
(185,256,o),
(185,130,cs),
(185,4,ls),
(185,-86,o),
(185,-135,o),
(66,-135,c),
(66,-183,l)
);
}
);
width = 423;
}
);
unicode = 125;
},
{
glyphname = bracketleft;
lastChange = "2024-08-06 00:44:58 +0000";
layers = (
{
layerId = m01;
shapes = (
{
closed = 1;
nodes = (
(316,-184,l),
(316,-135,l),
(212,-135,l),
(212,672,l),
(316,672,l),
(316,721,l),
(94,721,l),
(94,-184,l)
);
}
);
width = 366;
}
);
unicode = 91;
},
{
glyphname = quoteleft;
lastChange = "2024-08-06 00:44:58 +0000";
layers = (
{
layerId = m01;
shapes = (
{
closed = 1;
nodes = (
(184,412,o),
(215,450,o),
(215,497,cs),
(215,569,o),
(141,561,o),
(141,601,cs),
(141,637,o),
(198,679,o),
(234,701,c),
(212,736,l),
(127,696,o),
(44,610,o),
(44,518,cs),
(44,460,o),
(77,412,o),
(134,412,cs)
);
}
);
width = 258;
}
);
unicode = 8216;
},
{
glyphname = guilsinglleft;
lastChange = "2024-08-06 00:44:58 +0000";
layers = (
{
layerId = m01;
shapes = (
{
closed = 1;
nodes = (
(229,91,l),
(200,143,o),
(168,197,o),
(130,242,c),
(168,294,o),
(199,342,o),
(229,394,c),
(205,413,l),
(148,361,o),
(71,292,o),
(18,252,c),
(18,231,l),
(71,194,o),
(141,129,o),
(205,70,c)
);
}
);
width = 246;
}
);
unicode = 8249;
},
{
glyphname = quotesingle;
lastChange = "2024-08-06 00:44:58 +0000";
layers = (
{
layerId = m01;
shapes = (
{
closed = 1;
nodes = (
(129,418,l),
(129,481,o),
(179,585,o),
(179,646,cs),
(179,704,o),
(136,729,o),
(107,729,cs),
(76,729,o),
(36,702,o),
(36,647,cs),
(36,584,o),
(88,481,o),
(88,418,c)
);
}
);
width = 216;
}
);
unicode = 39;
},
{
glyphname = florin;
lastChange = "2024-08-06 00:44:58 +0000";
layers = (
{
layerId = m01;
shapes = (
{
closed = 1;
nodes = (
(109,-144,o),
(171,-139,o),
(238,-69,cs),
(278,-27,o),
(311,30,o),
(332,153,cs),
(379,426,l),
(490,426,l),
(498,476,l),
(388,476,l),
(415,611,o),
(417,696,o),
(444,696,cs),
(469,696,o),
(458,626,o),
(519,626,cs),
(562,626,o),
(594,662,o),
(594,697,cs),
(594,738,o),
(551,760,o),
(499,760,cs),
(432,760,o),
(378,723,o),
(341,683,cs),
(300,639,o),
(266,575,o),
(252,476,c),
(171,476,l),
(162,426,l),
(243,426,l),
(186,97,ls),
(174,29,o),
(160,-80,o),
(136,-80,cs),
(116,-80,o),
(118,-10,o),
(61,-10,cs),
(21,-10,o),
(-13,-44,o),
(-13,-83,cs),
(-13,-130,o),
(37,-144,o),
(82,-144,cs)
);
}
);
width = 623;
}
);
unicode = 402;
},
{
glyphname = at;
lastChange = "2024-08-06 00:44:58 +0000";
layers = (
{
layerId = m01;
shapes = (
{
closed = 1;
nodes = (
(505,-18,o),
(588,32,o),
(663,96,c),
(635,133,l),
(563,76,o),
(492,32,o),
(397,32,cs),
(240,32,o),
(106,152,o),
(106,329,cs),
(106,528,o),
(276,688,o),
(462,688,cs),
(606,688,o),
(709,593,o),
(709,455,cs),
(709,310,o),
(596,210,o),
(552,210,cs),
(543,210,o),
(537,214,o),
(537,226,cs),
(537,237,o),
(542,257,o),
(545,273,cs),
(562,365,o),
(587,469,o),
(613,564,c),
(521,564,l),
(512,536,l),
(493,555,o),
(479,565,o),
(451,565,cs),
(346,565,o),
(229,421,o),
(229,295,cs),
(229,212,o),
(279,155,o),
(346,155,cs),
(396,155,o),
(423,186,o),
(446,213,c),
(455,181,o),
(469,155,o),
(524,155,cs),
(655,155,o),
(775,301,o),
(775,460,cs),
(775,626,o),
(643,739,o),
(463,739,cs),
(245,739,o),
(36,572,o),
(36,332,cs),
(36,120,o),
(199,-18,o),
(390,-18,cs)
);
},
{
closed = 1;
nodes = (
(333,202,o),
(329,235,o),
(329,261,cs),
(329,367,o),
(396,523,o),
(455,523,cs),
(476,523,o),
(484,502,o),
(484,474,cs),
(484,388,o),
(410,202,o),
(356,202,cs)
);
}
);
width = 812;
}
);
unicode = 64;
},
{
glyphname = ampersand;
lastChange = "2024-08-06 00:44:58 +0000";
layers = (
{
layerId = m01;
shapes = (
{
closed = 1;
nodes = (
(377,-14,o),
(448,16,o),
(485,39,c),
(511,14,o),
(558,-14,o),
(619,-14,cs),
(702,-14,o),
(758,37,o),
(813,105,c),
(779,132,l),
(751,102,o),
(722,76,o),
(681,76,cs),
(643,76,o),
(615,99,o),
(598,128,c),
(653,188,o),
(663,235,o),
(692,310,cs),
(707,348,o),
(725,388,o),
(795,388,c),
(795,434,l),
(542,434,l),
(542,388,l),
(609,388,o),
(631,366,o),
(631,329,cs),
(631,298,o),
(616,260,o),
(602,229,cs),
(587,196,o),
(582,189,o),
(564,165,c),
(496,261,o),
(459,336,o),
(403,429,c),
(528,491,o),
(574,531,o),
(574,599,cs),
(574,688,o),
(496,735,o),
(404,735,cs),
(291,735,o),
(206,663,o),
(206,553,cs),
(206,507,o),
(221,464,o),
(246,412,c),
(138,359,o),
(43,281,o),
(43,176,cs),
(43,68,o),
(142,-14,o),
(288,-14,cs)
);
},
{
closed = 1;
nodes = (
(252,48,o),
(190,182,o),
(190,256,cs),
(190,301,o),
(214,337,o),
(267,369,c),
(304,282,o),
(364,171,o),
(451,75,c),
(415,56,o),
(385,48,o),
(359,48,cs)
);
},
{
closed = 1;
nodes = (
(368,505,o),
(343,556,o),
(343,612,cs),
(343,667,o),
(368,689,o),
(405,689,cs),
(442,689,o),
(465,666,o),
(465,608,cs),
(465,546,o),
(438,502,o),
(384,471,c)
);
}
);
width = 832;
}
);
unicode = 38;
},
{
glyphname = paragraph;
lastChange = "2024-08-06 00:44:58 +0000";
layers = (
{
layerId = m01;
shapes = (
{
closed = 1;
nodes = (
(342,-184,l),
(342,671,l),
(405,671,l),
(405,-184,l),
(589,-184,l),
(589,-138,l),
(566,-138,ls),
(512,-138,o),
(499,-128,o),
(499,-50,cs),
(499,599,ls),
(499,662,o),
(510,679,o),
(565,679,cs),
(589,679,l),
(589,721,l),
(248,721,ls),
(125,721,o),
(36,658,o),
(36,526,cs),
(36,395,o),
(125,329,o),
(248,329,c),
(248,-50,ls),
(248,-128,o),
(241,-138,o),
(187,-138,cs),
(158,-138,l),
(158,-184,l)
);
}
);
width = 623;
}
);
unicode = 182;
},
{
glyphname = section;
lastChange = "2024-08-06 00:44:58 +0000";
layers = (
{
layerId = m01;
shapes = (
{
closed = 1;
nodes = (
(334,-198,o),
(409,-139,o),
(409,-40,cs),
(409,36,o),
(364,73,o),
(303,116,c),
(314,113,o),
(323,111,o),
(334,111,cs),
(398,111,o),
(449,174,o),
(449,252,cs),
(449,437,o),
(164,518,o),
(164,627,cs),
(164,656,o),
(185,699,o),
(249,699,cs),
(276,699,o),
(297,691,o),
(297,677,cs),
(297,658,o),
(259,651,o),
(259,609,cs),
(259,572,o),
(290,546,o),
(325,546,cs),
(366,546,o),
(391,581,o),
(391,621,cs),
(391,686,o),
(323,735,o),
(241,735,cs),
(151,735,o),
(79,676,o),
(79,584,cs),
(79,528,o),
(106,470,o),
(177,422,c),
(168,424,o),
(162,425,o),
(153,425,cs),
(84,425,o),
(36,361,o),
(36,285,cs),
(36,102,o),
(319,25,o),
(319,-91,cs),
(319,-132,o),
(283,-162,o),
(237,-162,cs),
(214,-162,o),
(173,-154,o),
(173,-136,cs),
(173,-118,o),
(211,-115,o),
(211,-71,cs),
(211,-32,o),
(182,-4,o),
(144,-4,cs),
(94,-4,o),
(77,-53,o),
(77,-83,cs),
(77,-143,o),
(142,-198,o),
(236,-198,cs)
);
},
{
closed = 1;
nodes = (
(262,146,o),
(116,265,o),
(116,334,cs),
(116,364,o),
(144,390,o),
(171,390,cs),
(231,390,o),
(366,264,o),
(366,203,cs),
(366,175,o),
(337,146,o),
(312,146,cs)
);
}
);
width = 485;
}
);
unicode = 167;
},
{
glyphname = copyright;
lastChange = "2024-08-06 00:44:58 +0000";
layers = (
{
layerId = m01;
shapes = (
{
closed = 1;
nodes = (
(618,-18,o),
(789,152,o),
(789,361,cs),
(789,569,o),
(620,739,o),
(412,739,cs),
(202,739,o),
(32,567,o),
(32,360,cs),
(32,152,o),
(204,-18,o),
(411,-18,cs)
);
},
{
closed = 1;
nodes = (
(234,32,o),
(86,181,o),
(86,359,cs),
(86,539,o),
(236,689,o),
(414,689,cs),
(592,689,o),
(735,539,o),
(735,360,cs),
(735,180,o),
(589,32,o),
(412,32,cs)
);
},
{
closed = 1;
nodes = (
(488,148,o),
(550,187,o),
(589,274,c),
(560,286,l),
(534,242,o),
(501,204,o),
(448,204,cs),
(383,204,o),
(321,262,o),
(321,392,cs),
(321,513,o),
(375,546,o),
(417,546,cs),
(474,546,o),
(519,486,o),
(545,440,c),
(577,453,l),
(544,573,l),
(529,578,l),
(517,574,o),
(501,563,o),
(492,563,cs),
(481,563,o),
(456,579,o),
(413,579,cs),
(308,579,o),
(218,481,o),
(218,353,cs),
(218,243,o),
(285,148,o),
(409,148,cs)
);
}
);
width = 822;
}
);
unicode = 169;
},
{
glyphname = registered;
lastChange = "2024-08-06 00:44:58 +0000";
layers = (
{
layerId = m01;
shapes = (
{
closed = 1;
nodes = (
(618,-18,o),
(789,152,o),
(789,361,cs),
(789,569,o),
(620,739,o),
(412,739,cs),
(202,739,o),
(32,567,o),
(32,360,cs),
(32,152,o),
(204,-18,o),
(411,-18,cs)
);
},
{
closed = 1;
nodes = (
(234,32,o),
(86,181,o),
(86,359,cs),
(86,539,o),
(236,689,o),
(414,689,cs),
(592,689,o),
(735,539,o),
(735,360,cs),
(735,180,o),
(589,32,o),
(412,32,cs)
);
},
{
closed = 1;
nodes = (
(423,159,l),
(423,190,l),
(370,191,o),
(371,202,o),
(371,234,cs),
(371,351,l),
(377,351,ls),
(389,351,o),
(400,346,o),
(414,319,cs),
(496,159,l),
(628,159,l),
(628,188,l),
(579,191,o),
(569,223,o),
(554,253,cs),
(532,297,o),
(504,355,o),
(485,365,c),
(511,369,o),
(536,372,o),
(560,393,cs),
(588,417,o),
(590,444,o),
(590,459,cs),
(590,498,o),
(576,537,o),
(512,557,cs),
(483,566,o),
(449,570,o),
(400,570,cs),
(219,570,l),
(219,537,l),
(271,535,o),
(272,530,o),
(272,493,cs),
(272,234,ls),
(272,202,o),
(272,191,o),
(219,190,c),
(219,159,l)
);
},
{
closed = 1;
nodes = (
(371,493,ls),
(371,527,o),
(381,537,o),
(414,537,cs),
(465,537,o),
(488,513,o),
(488,459,cs),
(488,410,o),
(469,384,o),
(401,384,cs),
(371,384,l)
);
}
);
width = 822;
}
);
unicode = 174;
},
{
glyphname = trademark;
lastChange = "2024-08-06 00:44:58 +0000";
layers = (
{
layerId = m01;
shapes = (
{
closed = 1;
nodes = (
(552,310,l),
(552,341,l),
(522,341,o),
(498,359,o),
(498,408,cs),
(498,648,l),
(614,310,l),
(642,310,l),
(761,641,l),
(761,385,ls),
(761,341,o),
(754,341,o),
(724,341,cs),
(708,341,l),
(708,310,l),
(912,310,l),
(912,341,l),
(902,341,ls),
(872,341,o),
(859,341,o),
(859,385,cs),
(859,651,ls),
(859,686,o),
(871,691,o),
(902,691,cs),
(915,691,l),
(915,721,l),
(751,721,l),
(659,469,l),
(575,721,l),
(409,721,l),
(409,691,l),
(421,691,ls),
(450,691,o),
(461,690,o),
(461,651,cs),
(461,408,ls),
(461,361,o),
(443,341,o),
(409,341,c),
(409,310,l)
);
},
{
closed = 1;
nodes = (
(299,310,l),
(299,341,l),
(279,341,ls),
(249,341,o),
(246,346,o),
(246,390,cs),
(246,684,l),
(275,684,o),
(325,649,o),
(361,591,c),
(391,603,l),
(358,721,l),
(37,721,l),
(3,603,l),
(34,591,l),
(69,649,o),
(120,684,o),
(148,684,c),
(148,390,ls),
(148,346,o),
(146,341,o),
(116,341,cs),
(95,341,l),
(95,310,l)
);
}
);
width = 949;
}
);
unicode = 8482;
},
{
glyphname = degree;
lastChange = "2024-08-06 00:44:58 +0000";
layers = (
{
layerId = m01;
shapes = (
{
closed = 1;
nodes = (
(276,411,o),
(356,470,o),
(356,572,cs),
(356,675,o),
(277,735,o),
(197,735,cs),
(117,735,o),
(36,676,o),
(36,574,cs),
(36,472,o),
(116,411,o),
(196,411,cs)
);
},
{
closed = 1;
nodes = (
(150,454,o),
(133,510,o),
(133,572,cs),
(133,635,o),
(151,692,o),
(197,692,cs),
(243,692,o),
(258,635,o),
(258,572,cs),
(258,510,o),
(242,454,o),
(196,454,cs)
);
}
);
width = 392;
}
);
unicode = 176;
},
{
glyphname = bar;
lastChange = "2024-08-06 00:44:58 +0000";
layers = (
{
layerId = m01;
shapes = (
{
closed = 1;
nodes = (
(320,-181,l),
(320,721,l),
(222,721,l),
(222,-181,l)
);
}
);
width = 541;
}
);
unicode = 124;
},
{
glyphname = brokenbar;
lastChange = "2024-08-06 00:44:58 +0000";
layers = (
{
layerId = m01;
shapes = (
{
closed = 1;
nodes = (
(320,357,l),
(320,721,l),
(222,721,l),
(222,357,l)
);
},
{
closed = 1;
nodes = (
(320,-181,l),
(320,165,l),
(222,165,l),
(222,-181,l)
);
}
);
width = 541;
}
);
unicode = 166;
},
{
glyphname = dagger;
lastChange = "2024-08-06 00:44:58 +0000";
layers = (
{
layerId = m01;
shapes = (
{
closed = 1;
nodes = (
(269,-198,l),
(269,26,o),
(282,173,o),
(323,280,c),
(298,321,o),
(269,389,o),
(269,461,c),
(329,461,o),
(347,416,o),
(398,416,cs),
(438,416,o),
(461,444,o),
(461,479,cs),
(461,516,o),
(436,543,o),
(398,543,cs),
(347,543,o),
(329,495,o),
(269,495,c),
(269,598,o),
(311,617,o),
(311,667,cs),
(311,709,o),
(282,735,o),
(249,735,cs),
(216,735,o),
(185,710,o),
(185,667,cs),
(185,617,o),
(227,598,o),
(227,495,c),
(167,495,o),
(149,543,o),
(99,543,cs),
(61,543,o),
(36,516,o),
(36,479,cs),
(36,442,o),
(61,416,o),
(99,416,cs),
(149,416,o),
(167,461,o),
(227,461,c),
(227,389,o),
(198,321,o),
(173,280,c),
(214,173,o),
(227,26,o),
(227,-198,c)
);
}
);
width = 497;
}
);
unicode = 8224;
},
{
glyphname = daggerdbl;
lastChange = "2024-08-06 00:44:58 +0000";
layers = (
{
layerId = m01;
shapes = (
{
closed = 1;
nodes = (
(281,-198,o),
(311,-172,o),
(311,-130,cs),
(311,-80,o),
(269,-61,o),
(269,42,c),
(329,42,o),
(347,-5,o),
(398,-5,cs),
(436,-5,o),
(461,22,o),
(461,58,cs),
(461,91,o),
(439,121,o),
(397,121,cs),
(347,121,o),
(329,77,o),
(269,77,c),
(269,148,o),
(298,228,o),
(323,269,c),
(298,310,o),
(269,389,o),
(269,461,c),
(329,461,o),
(347,416,o),
(398,416,cs),
(438,416,o),
(461,444,o),
(461,479,cs),
(461,516,o),
(436,543,o),
(398,543,cs),
(347,543,o),
(329,495,o),
(269,495,c),
(269,598,o),
(311,617,o),
(311,667,cs),
(311,709,o),
(282,735,o),
(249,735,cs),
(216,735,o),
(185,710,o),
(185,667,cs),
(185,617,o),
(227,598,o),
(227,495,c),
(167,495,o),
(149,543,o),
(99,543,cs),
(61,543,o),
(36,516,o),
(36,479,cs),
(36,442,o),
(61,416,o),
(99,416,cs),
(149,416,o),
(167,461,o),
(227,461,c),
(227,389,o),
(198,310,o),
(173,269,c),
(198,228,o),
(227,148,o),
(227,77,c),
(167,77,o),
(149,121,o),
(99,121,cs),
(57,121,o),
(36,91,o),
(36,58,cs),
(36,22,o),
(61,-5,o),
(99,-5,cs),
(149,-5,o),
(167,42,o),
(227,42,c),
(227,-61,o),
(185,-80,o),
(185,-130,cs),
(185,-173,o),
(215,-198,o),
(248,-198,cs)
);
}
);
width = 497;
}
);
unicode = 8225;
},
{
glyphname = cent;
lastChange = "2024-08-06 00:44:58 +0000";
layers = (
{
anchors = (
{
name = attachcedilla;
pos = (252,17);
},
{
name = top;
pos = (274,558);
}
);
layerId = m01;
shapes = (
{
closed = 1;
nodes = (
(350,31,l),
(350,119,l),
(450,129,o),
(510,185,o),
(544,256,c),
(508,281,l),
(482,238,o),
(438,194,o),
(372,194,cs),
(362,194,o),
(357,195,o),
(350,196,c),
(350,574,l),
(401,558,o),
(371,439,o),
(458,439,cs),
(500,439,o),
(530,466,o),
(530,506,cs),
(530,577,o),
(434,621,o),
(356,621,cs),
(350,621,l),
(350,697,l),
(307,697,l),
(307,616,l),
(183,591,o),
(92,477,o),
(92,347,cs),
(92,214,o),
(185,121,o),
(307,117,c),
(307,31,l)
);
},
{
closed = 1;
nodes = (
(257,248,o),
(236,330,o),
(236,407,cs),
(236,491,o),
(261,551,o),
(307,571,c),
(307,213,l)
);
}
);
width = 623;
}
);
unicode = 162;
},
{
glyphname = currency;
lastChange = "2024-08-06 00:44:58 +0000";
layers = (
{
hints = (
{
horizontal = 1;
origin = (0,3);
target = (1,11);
type = Stem;
},
{
horizontal = 1;
origin = (1,5);
target = (0,21);
type = Stem;
},
{
origin = (0,30);
target = (1,2);
type = Stem;
},
{
origin = (1,8);
target = (0,12);
type = Stem;
}
);
layerId = m01;
shapes = (
{
closed = 1;
nodes = (
(134,164,l),
(179,126,o),
(239,105,o),
(300,105,cs),
(364,105,o),
(422,128,o),
(468,164,c),
(525,103,l),
(572,149,l),
(514,210,l),
(548,255,o),
(569,312,o),
(569,373,cs),
(569,435,o),
(548,491,o),
(512,536,c),
(572,597,l),
(523,645,l),
(464,586,l),
(418,621,o),
(361,641,o),
(301,641,cs),
(239,641,o),
(182,619,o),
(136,585,c),
(77,645,l),
(29,597,l),
(89,537,l),
(54,492,o),
(32,435,o),
(32,373,cs),
(32,312,o),
(53,255,o),
(88,210,c),
(29,149,l),
(76,103,l)
);
},
{
closed = 1;
nodes = (
(189,170,o),
(104,265,o),
(104,373,cs),
(104,481,o),
(189,576,o),
(300,576,cs),
(409,576,o),
(497,484,o),
(497,373,cs),
(497,262,o),
(409,170,o),
(300,170,cs)
);
}
);
width = 601;
}
);
note = currency;
unicode = 164;
},
{
glyphname = dollar;
lastChange = "2024-08-06 00:44:58 +0000";
layers = (
{
layerId = m01;
shapes = (
{
closed = 1;
nodes = (
(333,-105,l),
(333,-24,l),
(484,-12,o),
(550,105,o),
(550,203,cs),
(550,337,o),
(428,398,o),
(333,443,c),
(333,691,l),
(414,686,o),
(454,651,o),
(454,623,cs),
(454,590,o),
(397,608,o),
(397,552,cs),
(397,511,o),
(427,497,o),
(452,497,cs),
(501,497,o),
(521,548,o),
(521,580,cs),
(521,635,o),
(463,732,o),
(333,739,c),
(333,813,l),
(290,813,l),
(290,739,l),
(160,726,o),
(72,634,o),
(72,520,cs),
(72,381,o),
(203,323,o),
(290,281,c),
(290,26,l),
(196,31,o),
(150,69,o),
(150,103,cs),
(150,141,o),
(203,122,o),
(203,174,cs),
(203,213,o),
(173,230,o),
(147,230,cs),
(106,230,o),
(75,190,o),
(75,140,cs),
(75,53,o),
(167,-18,o),
(290,-24,c),
(290,-105,l)
);
},
{
closed = 1;
nodes = (
(333,259,l),
(392,228,o),
(432,197,o),
(432,137,cs),
(432,74,o),
(388,35,o),
(333,27,c)
);
},
{
closed = 1;
nodes = (
(226,498,o),
(181,531,o),
(181,588,cs),
(181,641,o),
(219,683,o),
(290,691,c),
(290,465,l)
);
}
);
width = 623;
}
);
unicode = 36;
},
{
glyphname = euro;
lastChange = "2024-08-06 00:44:58 +0000";
layers = (
{
layerId = m01;
shapes = (
{
closed = 1;
nodes = (
(529,382,l),
(550,431,l),
(57,431,l),
(36,382,l)
);
},
{
closed = 1;
nodes = (
(486,282,l),
(508,332,l),
(57,332,l),
(36,282,l)
);
},
{
alignment = -1;
pos = (63,0);
ref = C;
}
);
width = 757;
}
);
unicode = 8364;
},
{
glyphname = lira;
lastChange = "2024-08-06 00:44:58 +0000";
layers = (
{
layerId = m01;
shapes = (
{
closed = 1;
nodes = (
(514,-18,o),
(567,74,o),
(585,192,c),
(536,198,l),
(518,134,o),
(469,106,o),
(417,106,cs),
(386,106,o),
(345,116,o),
(309,126,c),
(333,161,o),
(355,214,o),
(358,257,c),
(467,257,l),
(467,307,l),
(358,307,l),
(356,326,o),
(354,342,o),
(350,356,c),
(467,356,l),
(467,405,l),
(334,405,l),
(312,456,o),
(268,534,o),
(268,599,cs),
(268,679,o),
(333,708,o),
(381,708,cs),
(422,708,o),
(490,686,o),
(490,651,cs),
(490,645,o),
(488,638,o),
(478,638,cs),
(470,638,o),
(463,642,o),
(451,642,cs),
(421,642,o),
(401,618,o),
(401,589,cs),
(401,555,o),
(427,529,o),
(463,529,cs),
(514,529,o),
(543,582,o),
(543,628,cs),
(543,706,o),
(458,757,o),
(370,757,cs),
(253,757,o),
(133,667,o),
(133,504,cs),
(133,471,o),
(138,437,o),
(147,405,c),
(83,405,l),
(83,356,l),
(164,356,l),
(184,307,l),
(83,307,l),
(83,257,l),
(204,257,l),
(214,231,o),
(221,204,o),
(221,181,cs),
(221,169,o),
(219,161,o),
(212,147,c),
(194,151,o),
(183,157,o),
(157,157,cs),
(94,157,o),
(39,121,o),
(39,62,cs),
(39,9,o),
(83,-16,o),
(132,-16,cs),
(176,-16,o),
(218,5,o),
(254,50,c),
(282,14,o),
(329,-18,o),
(398,-18,cs)
);
},
{
closed = 1;
nodes = (
(100,41,o),
(92,52,o),
(92,65,cs),
(92,84,o),
(110,99,o),
(140,99,cs),
(159,99,o),
(173,93,o),
(187,88,c),
(172,59,o),
(155,41,o),
(124,41,cs)
);
}
);
width = 623;
}
);
unicode = 8356;
},
{
glyphname = sterling;
lastChange = "2024-08-06 00:44:58 +0000";
layers = (
{
layerId = m01;
shapes = (
{
closed = 1;
nodes = (
(514,-18,o),
(567,74,o),
(585,192,c),
(536,198,l),
(518,134,o),
(469,106,o),
(417,106,cs),
(386,106,o),
(345,116,o),
(309,126,c),
(335,165,o),
(360,226,o),
(359,271,cs),
(358,301,l),
(467,301,l),
(467,350,l),
(351,350,l),
(348,369,o),
(342,386,o),
(333,407,cs),
(308,465,o),
(268,536,o),
(268,599,cs),
(268,679,o),
(333,708,o),
(381,708,cs),
(422,708,o),
(490,686,o),
(490,651,cs),
(490,645,o),
(488,638,o),
(478,638,cs),
(470,638,o),
(463,642,o),
(451,642,cs),
(421,642,o),
(401,618,o),
(401,589,cs),
(401,555,o),
(427,529,o),
(463,529,cs),
(514,529,o),
(543,582,o),
(543,628,cs),
(543,706,o),
(458,757,o),
(370,757,cs),
(253,757,o),
(133,667,o),
(133,505,cs),
(133,448,o),
(148,396,o),
(166,350,c),
(83,350,l),
(83,301,l),
(187,301,l),
(205,258,o),
(221,217,o),
(221,182,cs),
(221,169,o),
(219,161,o),
(212,147,c),
(194,151,o),
(183,157,o),
(157,157,cs),
(94,157,o),
(39,121,o),
(39,62,cs),
(39,9,o),
(83,-16,o),
(132,-16,cs),
(176,-16,o),
(218,5,o),
(254,50,c),
(282,14,o),
(329,-18,o),
(398,-18,cs)
);
},
{
closed = 1;
nodes = (
(100,41,o),
(92,52,o),
(92,65,cs),
(92,84,o),
(110,99,o),
(140,99,cs),
(159,99,o),
(173,93,o),
(187,88,c),
(172,59,o),
(155,41,o),
(124,41,cs)
);
}
);
width = 623;
},
{
associatedMasterId = m01;
layerId = "53C18DC3-50AA-4835-95F2-821FD0966DEB";
name = "Aug 5, 24 at 17:31";
shapes = (
{
closed = 1;
nodes = (
(514,-18,o),
(566,71,o),
(585,192,c),
(536,198,l),
(518,134,o),
(470,106,o),
(416,106,cs),
(387,106,o),
(345,116,o),
(309,126,c),
(335,165,o),
(359,226,o),
(359,271,cs),
(359,343,o),
(345,381,o),
(334,405,cs),
(308,465,o),
(268,534,o),
(268,602,cs),
(268,679,o),
(335,708,o),
(381,708,cs),
(422,708,o),
(490,686,o),
(490,650,cs),
(490,646,o),
(488,638,o),
(480,638,cs),
(468,638,o),
(465,642,o),
(450,642,cs),
(421,642,o),
(401,616,o),
(401,592,cs),
(401,555,o),
(425,529,o),
(464,529,cs),
(514,529,o),
(543,582,o),
(543,629,cs),
(543,706,o),
(455,757,o),
(375,757,cs),
(253,757,o),
(133,667,o),
(133,508,cs),
(133,361,o),
(221,276,o),
(221,178,cs),
(221,166,o),
(216,155,o),
(212,147,c),
(191,152,o),
(183,157,o),
(152,157,cs),
(97,157,o),
(39,121,o),
(39,63,cs),
(39,9,o),
(83,-16,o),
(130,-16,cs),
(176,-16,o),
(217,4,o),
(254,50,c),
(280,16,o),
(329,-18,o),
(395,-18,cs)
);
},
{
closed = 1;
nodes = (
(98,41,o),
(92,52,o),
(92,67,cs),
(92,84,o),
(114,99,o),
(135,99,cs),
(159,99,o),
(164,96,o),
(187,88,c),
(172,59,o),
(154,41,o),
(126,41,cs)
);
},
{
closed = 1;
nodes = (
(83,301,l),
(467,301,l),
(467,350,l),
(83,350,l)
);
}
);
width = 623;
}
);
unicode = 163;
},
{
glyphname = yen;
lastChange = "2024-08-06 00:44:58 +0000";
layers = (
{
anchors = (
{
name = dotbelow;
pos = (312,0);
},
{
name = top;
pos = (342,791);
}
);
layerId = m01;
shapes = (
{
closed = 1;
nodes = (
(496,0,l),
(496,43,l),
(409,46,o),
(402,65,o),
(402,131,cs),
(402,257,l),
(568,257,l),
(568,317,l),
(402,317,l),
(402,350,l),
(434,403,l),
(568,403,l),
(568,463,l),
(469,463,l),
(556,608,ls),
(586,657,o),
(603,666,o),
(642,678,c),
(642,721,l),
(434,721,l),
(434,678,l),
(481,676,o),
(498,664,o),
(498,635,cs),
(498,609,o),
(485,590,o),
(451,528,cs),
(375,391,l),
(255,618,ls),
(248,631,o),
(241,646,o),
(241,654,cs),
(241,668,o),
(267,678,o),
(301,678,c),
(301,721,l),
(0,721,l),
(0,678,l),
(48,675,o),
(54,664,o),
(90,601,cs),
(169,463,l),
(86,463,l),
(86,403,l),
(203,403,l),
(248,325,l),
(248,317,l),
(86,317,l),
(86,257,l),
(248,257,l),
(248,131,ls),
(248,65,o),
(241,46,o),
(154,43,c),
(154,0,l)
);
}
);
width = 642;
}
);
unicode = 165;
},
{
glyphname = plus;
lastChange = "2024-08-06 00:44:58 +0000";
layers = (
{
hints = (
{
horizontal = 1;
origin = (0,11);
target = up;
type = BottomGhost;
},
{
horizontal = 1;
origin = (0,9);
target = (0,8);
type = Stem;
},
{
horizontal = 1;
origin = (0,6);
target = down;
type = TopGhost;
},
{
origin = (0,11);
target = (0,0);
type = Stem;
}
);
layerId = m01;
shapes = (
{
closed = 1;
nodes = (
(336,0,l),
(336,203,l),
(539,203,l),
(539,275,l),
(336,275,l),
(336,478,l),
(265,478,l),
(265,275,l),
(62,275,l),
(62,203,l),
(265,203,l),
(265,0,l)
);
}
);
width = 601;
}
);
unicode = 43;
},
{
glyphname = minus;
lastChange = "2024-08-06 00:44:58 +0000";
layers = (
{
hints = (
{
horizontal = 1;
origin = (0,3);
target = (0,2);
type = Stem;
}
);
layerId = m01;
shapes = (
{
closed = 1;
nodes = (
(539,203,l),
(539,275,l),
(62,275,l),
(62,203,l)
);
}
);
width = 601;
}
);
note = minus;
unicode = 8722;
},
{
glyphname = multiply;
lastChange = "2024-08-06 00:44:58 +0000";
layers = (
{
hints = (
{
horizontal = 1;
origin = (0,7);
target = down;
type = TopGhost;
}
);
layerId = m01;
shapes = (
{
closed = 1;
nodes = (
(301,190,l),
(489,3,l),
(539,53,l),
(349,239,l),
(539,428,l),
(488,478,l),
(301,289,l),
(114,478,l),
(62,428,l),
(252,239,l),
(62,53,l),
(112,3,l)
);
}
);
width = 601;
}
);
note = multiply;
unicode = 215;
},
{
glyphname = divide;
lastChange = "2024-08-06 00:44:58 +0000";
layers = (
{
hints = (
{
horizontal = 1;
origin = (1,11);
target = (1,5);
type = Stem;
},
{
horizontal = 1;
origin = (0,3);
target = (0,2);
type = Stem;
},
{
horizontal = 1;
origin = (2,5);
target = (2,11);
type = Stem;
},
{
origin = (1,8);
target = (1,2);
type = Stem;
}
);
layerId = m01;
shapes = (
{
closed = 1;
nodes = (
(539,203,l),
(539,275,l),
(62,275,l),
(62,203,l)
);
},
{
closed = 1;
nodes = (
(339,-16,o),
(372,16,o),
(372,55,cs),
(372,94,o),
(339,126,o),
(301,126,cs),
(262,126,o),
(229,94,o),
(229,55,cs),
(229,16,o),
(262,-16,o),
(301,-16,cs)
);
},
{
closed = 1;
nodes = (
(339,351,o),
(372,384,o),
(372,423,cs),
(372,462,o),
(339,494,o),
(301,494,cs),
(262,494,o),
(229,462,o),
(229,423,cs),
(229,384,o),
(262,351,o),
(301,351,cs)
);
}
);
width = 601;
}
);
note = divide;
unicode = 247;
},
{
glyphname = equal;
lastChange = "2024-08-06 00:44:58 +0000";
layers = (
{
hints = (
{
horizontal = 1;
origin = (1,3);
target = (1,2);
type = Stem;
},
{
horizontal = 1;
origin = (0,3);
target = (0,2);
type = Stem;
}
);
layerId = m01;
shapes = (
{
closed = 1;
nodes = (
(539,311,l),
(539,383,l),
(62,383,l),
(62,311,l)
);
},
{
closed = 1;
nodes = (
(539,95,l),
(539,166,l),
(62,166,l),
(62,95,l)
);
}
);
width = 601;
}
);
note = equal;
unicode = 61;
},
{
glyphname = notequal;
lastChange = "2024-08-06 00:44:58 +0000";
layers = (
{
hints = (
{
horizontal = 1;
origin = (0,16);
target = (0,15);
type = Stem;
},
{
horizontal = 1;
origin = (0,12);
target = (0,11);
type = Stem;
}
);
layerId = m01;
shapes = (
{
closed = 1;
nodes = (
(251,95,l),
(539,95,l),
(539,166,l),
(291,166,l),
(372,311,l),
(539,311,l),
(539,383,l),
(411,383,l),
(488,520,l),
(435,550,l),
(342,383,l),
(62,383,l),
(62,311,l),
(302,311,l),
(221,166,l),
(62,166,l),
(62,95,l),
(182,95,l),
(106,-40,l),
(159,-70,l)
);
}
);
width = 594;
}
);
note = notequal;
unicode = 8800;
},
{
glyphname = greater;
lastChange = "2024-08-06 00:44:58 +0000";
layers = (
{
hints = (
{
horizontal = 1;
origin = (0,6);
target = up;
type = BottomGhost;
},
{
horizontal = 1;
origin = (0,2);
target = down;
type = TopGhost;
}
);
layerId = m01;
shapes = (
{
closed = 1;
nodes = (
(539,203,l),
(539,275,l),
(62,483,l),
(62,406,l),
(457,239,l),
(62,71,l),
(62,-5,l)
);
}
);
width = 601;
}
);
note = greater;
unicode = 62;
},
{
glyphname = less;
lastChange = "2024-08-06 00:44:58 +0000";
layers = (
{
hints = (
{
horizontal = 1;
origin = (0,6);
target = up;
type = BottomGhost;
},
{
horizontal = 1;
origin = (0,3);
target = down;
type = TopGhost;
}
);
layerId = m01;
shapes = (
{
closed = 1;
nodes = (
(539,71,l),
(144,239,l),
(539,406,l),
(539,483,l),
(62,275,l),
(62,203,l),
(539,-5,l)
);
}
);
width = 601;
}
);
note = less;
unicode = 60;
},
{
glyphname = greaterequal;
lastChange = "2024-08-06 00:44:58 +0000";
layers = (
{
hints = (
{
horizontal = 1;
origin = (1,3);
target = (1,2);
type = Stem;
}
);
layerId = m01;
shapes = (
{
closed = 1;
nodes = (
(539,362,l),
(539,434,l),
(62,642,l),
(62,565,l),
(457,398,l),
(62,230,l),
(62,154,l)
);
},
{
closed = 1;
nodes = (
(539,0,l),
(539,71,l),
(62,71,l),
(62,0,l)
);
}
);
width = 601;
}
);
unicode = 8805;
},
{
glyphname = lessequal;
lastChange = "2024-08-06 00:44:58 +0000";
layers = (
{
hints = (
{
horizontal = 1;
origin = (1,3);
target = (1,2);
type = Stem;
}
);
layerId = m01;
shapes = (
{
closed = 1;
nodes = (
(539,230,l),
(144,398,l),
(539,565,l),
(539,642,l),
(62,434,l),
(62,362,l),
(539,154,l)
);
},
{
closed = 1;
nodes = (
(539,0,l),
(539,71,l),
(62,71,l),
(62,0,l)
);
}
);
width = 601;
}
);
note = lessequal;
unicode = 8804;
},
{
glyphname = plusminus;
lastChange = "2024-08-06 00:44:58 +0000";
layers = (
{
hints = (
{
horizontal = 1;
origin = (1,3);
target = (1,2);
type = Stem;
},
{
horizontal = 1;
origin = (0,11);
target = (0,8);
type = Stem;
},
{
horizontal = 1;
origin = (0,9);
target = (0,8);
type = Stem;
},
{
horizontal = 1;
origin = (0,9);
target = (0,6);
type = Stem;
},
{
origin = (0,11);
target = (0,0);
type = Stem;
}
);
layerId = m01;
shapes = (
{
closed = 1;
nodes = (
(336,133,l),
(336,252,l),
(539,252,l),
(539,323,l),
(336,323,l),
(336,442,l),
(265,442,l),
(265,323,l),
(62,323,l),
(62,252,l),
(265,252,l),
(265,133,l)
);
},
{
closed = 1;
nodes = (
(539,0,l),
(539,71,l),
(62,71,l),
(62,0,l)
);
}
);
width = 601;
}
);
note = plusminus;
unicode = 177;
},
{
glyphname = approxequal;
lastChange = "2024-08-06 00:44:58 +0000";
layers = (
{
hints = (
{
horizontal = 1;
origin = (0,2);
target = (0,15);
type = Stem;
},
{
horizontal = 1;
origin = (1,2);
target = (1,15);
type = Stem;
},
{
horizontal = 1;
origin = (1,5);
target = (1,2);
type = Stem;
},
{
horizontal = 1;
origin = (0,5);
target = (0,2);
type = Stem;
}
);
layerId = m01;
shapes = (
{
closed = 1;
nodes = (
(115,131,o),
(148,148,o),
(186,148,cs),
(265,148,o),
(335,77,o),
(416,77,cs),
(474,77,o),
(512,113,o),
(550,170,c),
(511,224,l),
(489,190,o),
(463,148,o),
(415,148,cs),
(352,148,o),
(279,219,o),
(189,219,cs),
(128,219,o),
(79,186,o),
(51,126,c),
(90,72,l)
);
},
{
closed = 1;
nodes = (
(115,324,o),
(148,342,o),
(187,342,cs),
(265,342,o),
(335,270,o),
(416,270,cs),
(474,270,o),
(512,307,o),
(550,363,c),
(511,417,l),
(489,384,o),
(463,342,o),
(415,342,cs),
(352,342,o),
(278,413,o),
(189,413,cs),
(126,413,o),
(78,377,o),
(51,320,c),
(90,266,l)
);
}
);
width = 594;
}
);
note = approxequal;
unicode = 8776;
},
{
glyphname = asciitilde;
lastChange = "2024-08-06 00:44:58 +0000";
layers = (
{
hints = (
{
horizontal = 1;
origin = (0,2);
target = (0,15);
type = Stem;
},
{
horizontal = 1;
origin = (0,5);
target = (0,2);
type = Stem;
}
);
layerId = m01;
shapes = (
{
closed = 1;
nodes = (
(115,222,o),
(148,239,o),
(186,239,cs),
(265,239,o),
(335,168,o),
(416,168,cs),
(474,168,o),
(512,204,o),
(550,261,c),
(511,315,l),
(489,281,o),
(463,239,o),
(415,239,cs),
(352,239,o),
(279,310,o),
(189,310,cs),
(128,310,o),
(79,277,o),
(51,217,c),
(90,163,l)
);
}
);
width = 601;
}
);
note = asciitilde;
unicode = 126;
},
{
glyphname = logicalnot;
lastChange = "2024-08-06 00:44:58 +0000";
layers = (
{
hints = (
{
horizontal = 1;
origin = (0,3);
target = (0,2);
type = Stem;
},
{
origin = (0,5);
target = (0,0);
type = Stem;
}
);
layerId = m01;
shapes = (
{
closed = 1;
nodes = (
(539,82,l),
(539,383,l),
(62,383,l),
(62,311,l),
(468,311,l),
(468,82,l)
);
}
);
width = 649;
}
);
unicode = 172;
},
{
glyphname = asciicircum;
lastChange = "2024-08-06 00:44:58 +0000";
layers = (
{
hints = (
{
horizontal = 1;
origin = (0,1);
target = (0,5);
type = Stem;
}
);
layerId = m01;
shapes = (
{
closed = 1;
nodes = (
(146,351,l),
(301,666,l),
(455,351,l),
(529,351,l),
(333,746,l),
(268,746,l),
(72,351,l)
);
}
);
width = 601;
}
);
unicode = 94;
},
{
glyphname = infinity;
lastChange = "2024-08-06 00:44:58 +0000";
layers = (
{
layerId = m01;
shapes = (
{
closed = 1;
nodes = (
(259,134,o),
(336,199,o),
(386,250,c),
(435,199,o),
(512,134,o),
(592,134,cs),
(666,134,o),
(745,191,o),
(745,285,cs),
(745,379,o),
(667,437,o),
(592,437,cs),
(512,437,o),
(435,372,o),
(386,321,c),
(335,373,o),
(259,437,o),
(180,437,cs),
(105,437,o),
(27,378,o),
(27,285,cs),
(27,192,o),
(105,134,o),
(180,134,cs)
);
},
{
closed = 1;
nodes = (
(125,190,o),
(82,229,o),
(82,285,cs),
(82,340,o),
(124,382,o),
(184,382,cs),
(259,382,o),
(302,318,o),
(350,285,c),
(302,253,o),
(259,190,o),
(184,190,cs)
);
},
{
closed = 1;
nodes = (
(513,190,o),
(470,253,o),
(422,285,c),
(470,318,o),
(513,382,o),
(587,382,cs),
(647,382,o),
(690,340,o),
(690,285,cs),
(690,231,o),
(648,190,o),
(588,190,cs)
);
}
);
width = 771;
}
);
unicode = 8734;
},
{
glyphname = integral;
lastChange = "2024-08-06 00:44:58 +0000";
layers = (
{
layerId = m01;
shapes = (
{
closed = 1;
nodes = (
(112,-116,o),
(145,-93,o),
(168,-19,cs),
(205,100,o),
(205,308,o),
(205,456,cs),
(205,511,ls),
(205,672,o),
(185,758,o),
(185,880,cs),
(185,897,o),
(192,908,o),
(205,908,cs),
(226,908,o),
(225,882,o),
(259,882,cs),
(281,882,o),
(315,893,o),
(315,929,cs),
(315,961,o),
(289,990,o),
(245,990,cs),
(143,990,o),
(130,833,o),
(130,582,cs),
(130,411,o),
(136,238,o),
(136,50,cs),
(136,0,o),
(122,-39,o),
(108,-39,cs),
(95,-39,o),
(74,-3,o),
(51,-3,cs),
(36,-3,o),
(2,-19,o),
(2,-51,cs),
(2,-77,o),
(24,-116,o),
(74,-116,cs)
);
}
);
width = 296;
}
);
unicode = 8747;
},
{
glyphname = increment;
lastChange = "2024-08-06 00:44:58 +0000";
layers = (
{
layerId = m01;
shapes = (
{
closed = 1;
nodes = (
(641,0,l),
(404,743,l),
(274,716,l),
(39,0,l)
);
},
{
closed = 1;
nodes = (
(298,639,l),
(466,42,l),
(107,42,l)
);
}
);
width = 686;
}
);
unicode = 8710;
},
{
glyphname = product;
lastChange = "2024-08-06 00:44:58 +0000";
layers = (
{
layerId = m01;
shapes = (
{
closed = 1;
nodes = (
(375,-270,l),
(375,-228,l),
(352,-228,ls),
(298,-228,o),
(281,-217,o),
(281,-139,cs),
(281,599,ls),
(281,662,o),
(296,679,o),
(351,679,cs),
(564,679,ls),
(619,679,o),
(635,662,o),
(635,599,cs),
(635,-139,ls),
(635,-217,o),
(617,-228,o),
(563,-228,cs),
(541,-228,l),
(541,-270,l),
(883,-270,l),
(883,-228,l),
(861,-228,ls),
(806,-228,o),
(789,-217,o),
(789,-139,cs),
(789,599,ls),
(789,662,o),
(804,679,o),
(859,679,cs),
(883,679,l),
(883,721,l),
(32,721,l),
(32,679,l),
(56,679,ls),
(111,679,o),
(126,662,o),
(126,599,cs),
(126,-139,ls),
(126,-217,o),
(109,-228,o),
(55,-228,cs),
(32,-228,l),
(32,-270,l)
);
}
);
width = 916;
}
);
unicode = 8719;
},
{
glyphname = summation;
lastChange = "2024-08-06 00:44:58 +0000";
layers = (
{
layerId = m01;
shapes = (
{
closed = 1;
nodes = (
(669,-270,l),
(754,-82,l),
(713,-67,l),
(639,-142,o),
(565,-230,o),
(363,-229,cs),
(214,-228,l),
(496,298,l),
(233,679,l),
(376,679,ls),
(507,679,o),
(582,651,o),
(682,533,c),
(728,546,l),
(650,721,l),
(32,721,l),
(32,679,l),
(304,280,l),
(32,-228,l),
(32,-270,l)
);
}
);
width = 797;
}
);
unicode = 8721;
},
{
glyphname = radical;
lastChange = "2024-08-06 00:44:58 +0000";
layers = (
{
layerId = m01;
shapes = (
{
closed = 1;
nodes = (
(557,986,l),
(519,991,l),
(382,129,l),
(169,564,l),
(11,486,l),
(28,451,l),
(132,502,l),
(395,-41,l)
);
}
);
width = 594;
}
);
unicode = 8730;
},
{
glyphname = micro;
lastChange = "2024-08-06 00:44:58 +0000";
layers = (
{
layerId = m01;
shapes = (
{
closed = 1;
nodes = (
(170,-365,o),
(210,-345,o),
(210,-275,cs),
(210,-209,o),
(175,-175,o),
(169,2,c),
(190,-9,o),
(215,-14,o),
(244,-14,cs),
(322,-14,o),
(377,24,o),
(417,61,c),
(417,-10,l),
(482,-4,o),
(545,0,o),
(615,1,c),
(615,41,l),
(554,41,o),
(547,54,o),
(547,130,cs),
(547,490,l),
(349,434,l),
(349,395,l),
(408,390,o),
(417,372,o),
(417,310,cs),
(417,108,l),
(393,85,o),
(356,65,o),
(310,65,cs),
(231,65,o),
(231,125,o),
(231,165,cs),
(231,490,l),
(34,434,l),
(34,395,l),
(92,390,o),
(102,372,o),
(102,310,cs),
(102,159,ls),
(102,-207,o),
(63,-201,o),
(63,-273,cs),
(63,-345,o),
(101,-365,o),
(136,-365,cs)
);
}
);
width = 632;
}
);
unicode = 181;
},
{
glyphname = partialdiff;
lastChange = "2024-08-06 00:44:58 +0000";
layers = (
{
layerId = m01;
shapes = (
{
closed = 1;
nodes = (
(464,-18,o),
(593,165,o),
(584,366,cs),
(573,591,o),
(437,747,o),
(238,747,cs),
(145,747,o),
(49,710,o),
(49,653,cs),
(49,623,o),
(72,598,o),
(116,598,cs),
(226,598,o),
(144,699,o),
(285,699,cs),
(369,699,o),
(410,671,o),
(425,435,c),
(388,493,o),
(335,499,o),
(286,499,cs),
(129,499,o),
(40,351,o),
(40,222,cs),
(40,93,o),
(148,-18,o),
(295,-18,cs)
);
},
{
closed = 1;
nodes = (
(226,35,o),
(198,96,o),
(198,243,cs),
(198,421,o),
(252,441,o),
(298,441,cs),
(354,441,o),
(391,404,o),
(391,243,cs),
(391,77,o),
(359,35,o),
(296,35,cs)
);
}
);
width = 624;
}
);
unicode = 8706;
},
{
glyphname = percent;
lastChange = "2024-08-06 00:44:58 +0000";
layers = (
{
layerId = m01;
shapes = (
{
closed = 1;
nodes = (
(188,-10,l),
(599,741,l),
(532,741,l),
(121,-10,l)
);
},
{
closed = 1;
nodes = (
(626,-17,o),
(685,78,o),
(685,179,cs),
(685,277,o),
(630,374,o),
(536,374,cs),
(442,374,o),
(386,278,o),
(386,179,cs),
(386,76,o),
(446,-17,o),
(536,-17,cs)
);
},
{
closed = 1;
nodes = (
(485,16,o),
(471,93,o),
(471,179,cs),
(471,263,o),
(484,339,o),
(535,339,cs),
(578,339,o),
(600,286,o),
(600,177,cs),
(600,81,o),
(583,16,o),
(536,16,cs)
);
},
{
closed = 1;
nodes = (
(276,350,o),
(335,445,o),
(335,546,cs),
(335,644,o),
(280,742,o),
(186,742,cs),
(92,742,o),
(36,645,o),
(36,546,cs),
(36,443,o),
(96,350,o),
(186,350,cs)
);
},
{
closed = 1;
nodes = (
(135,384,o),
(121,461,o),
(121,547,cs),
(121,630,o),
(134,707,o),
(185,707,cs),
(228,707,o),
(250,653,o),
(250,544,cs),
(250,449,o),
(233,384,o),
(186,384,cs)
);
}
);
width = 721;
}
);
unicode = 37;
},
{
glyphname = perthousand;
lastChange = "2024-08-06 00:44:58 +0000";
layers = (
{
layerId = m01;
shapes = (
{
closed = 1;
nodes = (
(188,-10,l),
(599,741,l),
(532,741,l),
(121,-10,l)
);
},
{
closed = 1;
nodes = (
(626,-17,o),
(685,78,o),
(685,179,cs),
(685,277,o),
(630,374,o),
(536,374,cs),
(442,374,o),
(386,278,o),
(386,179,cs),
(386,76,o),
(446,-17,o),
(536,-17,cs)
);
},
{
closed = 1;
nodes = (
(485,16,o),
(471,93,o),
(471,179,cs),
(471,263,o),
(484,339,o),
(535,339,cs),
(578,339,o),
(600,286,o),
(600,177,cs),
(600,81,o),
(583,16,o),
(536,16,cs)
);
},
{
closed = 1;
nodes = (
(276,350,o),
(335,445,o),
(335,546,cs),
(335,644,o),
(280,742,o),
(186,742,cs),
(92,742,o),
(36,645,o),
(36,546,cs),
(36,443,o),
(96,350,o),
(186,350,cs)
);
},
{
closed = 1;
nodes = (
(135,384,o),
(121,461,o),
(121,547,cs),
(121,630,o),
(134,707,o),
(185,707,cs),
(228,707,o),
(250,653,o),
(250,544,cs),
(250,449,o),
(233,384,o),
(186,384,cs)
);
},
{
closed = 1;
nodes = (
(959,-17,o),
(1019,77,o),
(1019,179,cs),
(1019,277,o),
(964,374,o),
(870,374,cs),
(776,374,o),
(720,278,o),
(720,179,cs),
(720,76,o),
(781,-17,o),
(870,-17,cs)
);
},
{
closed = 1;
nodes = (
(819,16,o),
(805,93,o),
(805,179,cs),
(805,263,o),
(818,339,o),
(869,339,cs),
(912,339,o),
(934,286,o),
(934,177,cs),
(934,81,o),
(917,16,o),
(870,16,cs)
);
}
);
width = 1056;
}
);
unicode = 8240;
},
{
glyphname = lozenge;
lastChange = "2024-08-06 00:44:58 +0000";
layers = (
{
layerId = m01;
shapes = (
{
closed = 1;
nodes = (
(294,0,l),
(504,408,l),
(294,805,l),
(229,805,l),
(19,408,l),
(229,0,l)
);
},
{
closed = 1;
nodes = (
(84,408,l),
(262,747,l),
(439,408,l),
(262,58,l)
);
}
);
width = 534;
}
);
unicode = 9674;
},
{
glyphname = dieresiscomb;
lastChange = "2024-08-06 00:44:58 +0000";
layers = (
{
anchors = (
{
name = _top;
pos = (151,558);
},
{
name = top;
pos = (151,726);
}
);
layerId = m01;
shapes = (
{
closed = 1;
nodes = (
(275,562,o),
(304,589,o),
(304,628,cs),
(304,667,o),
(275,692,o),
(240,692,cs),
(204,692,o),
(174,667,o),
(174,628,cs),
(174,589,o),
(204,562,o),
(240,562,cs)
);
},
{
closed = 1;
nodes = (
(101,562,o),
(130,589,o),
(130,628,cs),
(130,667,o),
(101,692,o),
(66,692,cs),
(30,692,o),
(0,667,o),
(0,628,cs),
(0,589,o),
(30,562,o),
(66,562,cs)
);
}
);
width = 304;
}
);
unicode = 776;
},
{
glyphname = dotaccentcomb;
lastChange = "2024-08-06 00:44:58 +0000";
layers = (
{
anchors = (
{
name = _top;
pos = (76,558);
},
{
name = _top_dot;
pos = (76,558);
},
{
name = top;
pos = (76,770);
}
);
layerId = m01;
shapes = (
{
closed = 1;
nodes = (
(117,574,o),
(151,607,o),
(151,650,cs),
(151,694,o),
(116,725,o),
(77,725,cs),
(37,725,o),
(0,694,o),
(0,650,cs),
(0,606,o),
(37,574,o),
(77,574,cs)
);
}
);
width = 151;
}
);
unicode = 775;
},
{
glyphname = gravecomb;
lastChange = "2024-08-06 00:44:58 +0000";
layers = (
{
anchors = (
{
name = _top;
pos = (144,558);
},
{
name = top;
pos = (144,726);
}
);
layerId = m01;
shapes = (
{
closed = 1;
nodes = (
(244,554,l),
(110,677,ls),
(89,696,o),
(68,711,o),
(47,711,cs),
(22,711,o),
(0,691,o),
(0,668,cs),
(0,638,o),
(36,617,o),
(63,605,cs),
(205,543,l)
);
}
);
width = 244;
}
);
unicode = 768;
},
{
glyphname = acutecomb;
lastChange = "2024-08-06 00:44:58 +0000";
layers = (
{
anchors = (
{
name = _top;
pos = (78,558);
},
{
name = top;
pos = (78,726);
}
);
layerId = m01;
shapes = (
{
closed = 1;
nodes = (
(182,605,ls),
(210,617,o),
(244,639,o),
(244,668,cs),
(244,691,o),
(224,711,o),
(198,711,cs),
(176,711,o),
(155,696,o),
(134,677,cs),
(0,554,l),
(39,543,l)
);
}
);
width = 244;
}
);
unicode = 769;
},
{
glyphname = hungarumlautcomb;
lastChange = "2024-08-06 00:44:58 +0000";
layers = (
{
anchors = (
{
name = _top;
pos = (111,558);
},
{
name = top;
pos = (111,726);
}
);
layerId = m01;
shapes = (
{
closed = 1;
nodes = (
(308,610,ls),
(329,622,o),
(361,642,o),
(361,666,cs),
(361,686,o),
(339,710,o),
(315,710,cs),
(287,710,o),
(264,679,o),
(240,650,cs),
(162,555,l),
(199,548,l)
);
},
{
closed = 1;
nodes = (
(146,610,ls),
(166,622,o),
(199,642,o),
(199,666,cs),
(199,686,o),
(177,710,o),
(152,710,cs),
(123,710,o),
(101,678,o),
(78,650,cs),
(0,555,l),
(37,548,l)
);
}
);
width = 361;
}
);
unicode = 779;
},
{
glyphname = caroncomb.alt;
lastChange = "2024-08-06 00:44:58 +0000";
layers = (
{
anchors = (
{
name = _caroncombalt;
pos = (61,735);
}
);
layerId = m01;
shapes = (
{
closed = 1;
nodes = (
(47,546,o),
(125,595,o),
(125,667,cs),
(125,709,o),
(98,739,o),
(61,739,cs),
(27,739,o),
(3,713,o),
(3,681,cs),
(3,633,o),
(56,637,o),
(56,615,cs),
(56,599,o),
(30,579,o),
(0,564,c),
(17,535,l)
);
}
);
width = 125;
}
);
},
{
glyphname = circumflexcomb;
lastChange = "2024-08-06 00:44:58 +0000";
layers = (
{
anchors = (
{
name = _top;
pos = (148,558);
},
{
name = top;
pos = (148,726);
},
{
name = top_viet;
pos = (310,683);
}
);
layerId = m01;
shapes = (
{
closed = 1;
nodes = (
(48,544,l),
(148,641,l),
(252,544,l),
(298,544,l),
(192,710,l),
(111,710,l),
(0,544,l)
);
}
);
width = 298;
}
);
unicode = 770;
},
{
glyphname = caroncomb;
lastChange = "2024-08-06 00:44:58 +0000";
layers = (
{
anchors = (
{
name = _top;
pos = (148,558);
},
{
name = top;
pos = (148,726);
}
);
layerId = m01;
shapes = (
{
closed = 1;
nodes = (
(192,544,l),
(298,710,l),
(252,710,l),
(148,613,l),
(48,710,l),
(0,710,l),
(111,544,l)
);
}
);
width = 298;
}
);
unicode = 780;
},
{
glyphname = brevecomb;
lastChange = "2024-08-06 00:44:58 +0000";
layers = (
{
anchors = (
{
name = _top;
pos = (144,541);
},
{
name = top;
pos = (144,726);
}
);
layerId = m01;
shapes = (
{
closed = 1;
nodes = (
(227,554,o),
(288,605,o),
(289,690,cs),
(289,699,l),
(246,699,l),
(246,668,o),
(225,626,o),
(144,626,cs),
(63,626,o),
(43,668,o),
(43,699,c),
(0,699,l),
(0,690,ls),
(0,605,o),
(61,554,o),
(144,554,cs)
);
}
);
width = 289;
}
);
unicode = 774;
},
{
glyphname = ringcomb;
lastChange = "2024-08-06 00:44:58 +0000";
layers = (
{
anchors = (
{
name = _top;
pos = (97,558);
},
{
name = top;
pos = (98,777);
}
);
layerId = m01;
shapes = (
{
closed = 1;
nodes = (
(146,555,o),
(195,591,o),
(195,652,cs),
(195,712,o),
(147,749,o),
(98,749,cs),
(50,749,o),
(0,714,o),
(0,653,cs),
(0,592,o),
(49,555,o),
(97,555,cs)
);
},
{
closed = 1;
nodes = (
(70,606,o),
(52,628,o),
(52,653,cs),
(52,678,o),
(71,698,o),
(98,698,cs),
(126,698,o),
(143,677,o),
(143,653,cs),
(143,628,o),
(124,606,o),
(97,606,cs)
);
}
);
width = 195;
}
);
unicode = 778;
},
{
glyphname = tildecomb;
lastChange = "2024-08-06 00:44:58 +0000";
layers = (
{
anchors = (
{
name = _top;
pos = (150,558);
},
{
name = top;
pos = (150,726);
}
);
layerId = m01;
shapes = (
{
closed = 1;
nodes = (
(46,592,o),
(62,608,o),
(80,608,cs),
(110,608,o),
(169,563,o),
(212,563,cs),
(253,563,o),
(283,604,o),
(303,682,c),
(271,695,l),
(259,662,o),
(243,644,o),
(226,644,cs),
(198,644,o),
(121,694,o),
(87,694,cs),
(55,694,o),
(26,652,o),
(0,571,c),
(30,559,l)
);
}
);
width = 303;
}
);
unicode = 771;
},
{
glyphname = macroncomb;
lastChange = "2024-08-06 00:44:58 +0000";
layers = (
{
anchors = (
{
name = _top;
pos = (136,558);
},
{
name = top;
pos = (136,726);
}
);
layerId = m01;
shapes = (
{
closed = 1;
nodes = (
(274,590,l),
(274,663,l),
(0,663,l),
(0,590,l)
);
}
);
width = 274;
}
);
unicode = 772;
},
{
glyphname = hookabovecomb;
lastChange = "2024-08-06 00:44:58 +0000";
layers = (
{
anchors = (
{
name = _top;
pos = (128,558);
}
);
layerId = m01;
shapes = (
{
closed = 1;
nodes = (
(141,522,o),
(158,524,o),
(165,526,cs),
(176,529,l),
(176,555,l),
(147,555,o),
(141,558,o),
(141,568,cs),
(141,577,o),
(150,582,o),
(170,594,cs),
(204,614,o),
(244,639,o),
(244,670,cs),
(244,701,o),
(204,739,o),
(124,739,cs),
(56,739,o),
(0,711,o),
(0,681,cs),
(0,663,o),
(20,650,o),
(46,650,cs),
(70,650,o),
(93,662,o),
(93,675,cs),
(93,692,o),
(103,696,o),
(117,696,cs),
(140,696,o),
(155,686,o),
(155,665,cs),
(155,649,o),
(146,642,o),
(123,629,cs),
(100,616,o),
(64,598,o),
(64,570,cs),
(64,544,o),
(94,522,o),
(130,522,cs)
);
}
);
width = 244;
}
);
unicode = 777;
},
{
glyphname = dblgravecomb;
lastChange = "2024-08-06 00:44:58 +0000";
layers = (
{
anchors = (
{
name = _top;
pos = (250,558);
},
{
name = top;
pos = (250,726);
}
);
layerId = m01;
shapes = (
{
closed = 1;
nodes = (
(361,555,l),
(283,650,ls),
(260,678,o),
(238,710,o),
(209,710,cs),
(184,710,o),
(162,686,o),
(162,666,cs),
(162,642,o),
(195,622,o),
(215,610,cs),
(324,548,l)
);
},
{
closed = 1;
nodes = (
(199,555,l),
(121,650,ls),
(98,678,o),
(76,710,o),
(47,710,cs),
(22,710,o),
(0,686,o),
(0,666,cs),
(0,642,o),
(32,622,o),
(53,610,cs),
(162,548,l)
);
}
);
width = 361;
}
);
unicode = 783;
},
{
glyphname = breveinvertedcomb;
lastChange = "2024-08-06 00:44:58 +0000";
layers = (
{
anchors = (
{
name = _top;
pos = (144,541);
},
{
name = top;
pos = (144,726);
}
);
layerId = m01;
shapes = (
{
closed = 1;
nodes = (
(43,554,l),
(43,585,o),
(63,627,o),
(144,627,cs),
(225,627,o),
(246,585,o),
(246,554,c),
(289,554,l),
(289,563,ls),
(288,648,o),
(227,699,o),
(144,699,cs),
(61,699,o),
(0,648,o),
(0,563,cs),
(0,554,l)
);
}
);
width = 289;
}
);
unicode = 785;
},
{
glyphname = commaturnedabovecomb;
lastChange = "2024-08-06 00:44:58 +0000";
layers = (
{
anchors = (
{
name = _top;
pos = (46,558);
}
);
layerId = m01;
shapes = (
{
closed = 1;
nodes = (
(95,534,o),
(119,560,o),
(119,592,cs),
(119,640,o),
(66,637,o),
(66,659,cs),
(66,675,o),
(92,694,o),
(122,709,c),
(105,738,l),
(75,727,o),
(-3,679,o),
(-3,606,cs),
(-3,562,o),
(26,534,o),
(61,534,cs)
);
}
);
width = 119;
}
);
unicode = 786;
},
{
glyphname = horncomb;
lastChange = "2024-08-06 00:44:58 +0000";
layers = (
{
anchors = (
{
name = _attachhorn;
pos = (0,592);
}
);
layerId = m01;
shapes = (
{
closed = 1;
nodes = (
(103,595,o),
(189,681,o),
(189,775,cs),
(189,832,o),
(157,881,o),
(100,881,cs),
(50,881,o),
(18,844,o),
(18,797,cs),
(18,724,o),
(93,732,o),
(93,691,cs),
(93,658,o),
(42,619,o),
(0,592,c),
(22,557,l)
);
}
);
width = 189;
}
);
unicode = 795;
},
{
glyphname = dotbelowcomb;
lastChange = "2024-08-06 00:44:58 +0000";
layers = (
{
anchors = (
{
name = _dotbelow;
pos = (65,0);
}
);
layerId = m01;
shapes = (
{
closed = 1;
nodes = (
(117,-201,o),
(151,-168,o),
(151,-125,cs),
(151,-81,o),
(116,-50,o),
(77,-50,cs),
(37,-50,o),
(0,-81,o),
(0,-125,cs),
(0,-169,o),
(37,-201,o),
(77,-201,cs)
);
}
);
width = 151;
}
);
unicode = 803;
},
{
glyphname = dieresisbelowcomb;
lastChange = "2024-08-06 00:44:58 +0000";
layers = (
{
anchors = (
{
name = _dotbelow;
pos = (151,0);
}
);
layerId = m01;
shapes = (
{
closed = 1;
nodes = (
(275,-213,o),
(304,-186,o),
(304,-147,cs),
(304,-108,o),
(275,-83,o),
(240,-83,cs),
(204,-83,o),
(174,-108,o),
(174,-147,cs),
(174,-186,o),
(204,-213,o),
(240,-213,cs)
);
},
{
closed = 1;
nodes = (
(101,-213,o),
(130,-186,o),
(130,-147,cs),
(130,-108,o),
(101,-83,o),
(66,-83,cs),
(30,-83,o),
(0,-108,o),
(0,-147,cs),
(0,-186,o),
(30,-213,o),
(66,-213,cs)
);
}
);
width = 304;
}
);
unicode = 804;
},
{
glyphname = ringbelowcomb;
lastChange = "2024-08-06 00:44:58 +0000";
layers = (
{
anchors = (
{
name = _dotbelow;
pos = (98,0);
}
);
layerId = m01;
shapes = (
{
closed = 1;
nodes = (
(146,-221,o),
(195,-184,o),
(195,-123,cs),
(195,-63,o),
(147,-26,o),
(98,-26,cs),
(50,-26,o),
(0,-62,o),
(0,-122,cs),
(0,-183,o),
(49,-221,o),
(97,-221,cs)
);
},
{
closed = 1;
nodes = (
(70,-169,o),
(52,-147,o),
(52,-122,cs),
(52,-97,o),
(71,-77,o),
(98,-77,cs),
(126,-77,o),
(143,-98,o),
(143,-122,cs),
(143,-147,o),
(124,-169,o),
(97,-169,cs)
);
}
);
width = 195;
}
);
unicode = 805;
},
{
glyphname = commaaccentcomb;
lastChange = "2024-08-06 00:44:58 +0000";
layers = (
{
anchors = (
{
name = _commaaccentbelow;
pos = (61,0);
}
);
layerId = m01;
shapes = (
{
closed = 1;
nodes = (
(47,-244,o),
(125,-196,o),
(125,-124,cs),
(125,-81,o),
(98,-51,o),
(61,-51,cs),
(27,-51,o),
(3,-77,o),
(3,-109,cs),
(3,-157,o),
(56,-154,o),
(56,-176,cs),
(56,-191,o),
(30,-211,o),
(0,-226,c),
(17,-255,l)
);
}
);
width = 125;
}
);
unicode = 806;
},
{
glyphname = commaaccentcomb.loclMAH;
lastChange = "2024-08-06 02:20:05 +0000";
layers = (
{
anchors = (
{
name = _commaaccentbelow;
pos = (121,0);
}
);
layerId = m01;
shapes = (
{
closed = 1;
nodes = (
(181,-219,o),
(232,-182,o),
(232,-132,cs),
(232,-91,o),
(199,-59,o),
(158,-59,cs),
(144,-59,o),
(134,-63,o),
(128,-66,c),
(151,0,l),
(110,0,l),
(70,-99,l),
(77,-105,l),
(90,-103,o),
(97,-101,o),
(106,-101,cs),
(131,-101,o),
(147,-115,o),
(147,-139,cs),
(147,-162,o),
(131,-176,o),
(100,-176,cs),
(68,-176,o),
(37,-162,o),
(19,-155,c),
(0,-194,l),
(21,-204,o),
(55,-219,o),
(104,-219,cs)
);
}
);
width = 232;
}
);
},
{
glyphname = cedillacomb;
lastChange = "2024-08-06 00:44:58 +0000";
layers = (
{
anchors = (
{
name = _attachcedilla;
pos = (118,17);
}
);
layerId = m01;
shapes = (
{
closed = 1;
nodes = (
(181,-219,o),
(232,-182,o),
(232,-132,cs),
(232,-91,o),
(199,-59,o),
(158,-59,cs),
(144,-59,o),
(134,-63,o),
(128,-66,c),
(158,17,l),
(118,17,l),
(70,-99,l),
(77,-105,l),
(90,-103,o),
(97,-101,o),
(106,-101,cs),
(131,-101,o),
(147,-115,o),
(147,-139,cs),
(147,-162,o),
(131,-176,o),
(100,-176,cs),
(68,-176,o),
(37,-162,o),
(19,-155,c),
(0,-194,l),
(21,-204,o),
(55,-219,o),
(104,-219,cs)
);
}
);
width = 232;
}
);
unicode = 807;
},
{
glyphname = ogonekcomb;
lastChange = "2024-08-06 00:44:58 +0000";
layers = (
{
anchors = (
{
name = _ogonek;
pos = (83,0);
}
);
layerId = m01;
shapes = (
{
closed = 1;
nodes = (
(154,-212,o),
(184,-199,o),
(206,-183,c),
(195,-162,l),
(183,-168,o),
(171,-171,o),
(156,-171,cs),
(94,-171,o),
(69,-130,o),
(69,-90,cs),
(69,-45,o),
(101,-18,o),
(123,0,c),
(83,0,l),
(31,-27,o),
(0,-64,o),
(0,-113,cs),
(0,-170,o),
(41,-212,o),
(114,-212,cs)
);
}
);
width = 206;
}
);
unicode = 808;
},
{
glyphname = circumflexbelowcomb;
lastChange = "2024-08-06 00:44:58 +0000";
layers = (
{
anchors = (
{
name = _dotbelow;
pos = (148,0);
}
);
layerId = m01;
shapes = (
{
closed = 1;
nodes = (
(48,-231,l),
(148,-134,l),
(252,-231,l),
(298,-231,l),
(192,-65,l),
(111,-65,l),
(0,-231,l)
);
}
);
width = 298;
}
);
unicode = 813;
},
{
glyphname = brevebelowcomb;
lastChange = "2024-08-06 00:44:58 +0000";
layers = (
{
anchors = (
{
name = _dotbelow;
pos = (144,0);
}
);
layerId = m01;
shapes = (
{
closed = 1;
nodes = (
(227,-222,o),
(288,-170,o),
(289,-85,cs),
(289,-76,l),
(246,-76,l),
(246,-107,o),
(225,-149,o),
(144,-149,cs),
(63,-149,o),
(43,-107,o),
(43,-76,c),
(0,-76,l),
(0,-85,ls),
(0,-170,o),
(61,-222,o),
(144,-222,cs)
);
}
);
width = 289;
}
);
unicode = 814;
},
{
glyphname = tildebelowcomb;
lastChange = "2024-08-06 00:44:58 +0000";
layers = (
{
anchors = (
{
name = _dotbelow;
pos = (148,0);
}
);
layerId = m01;
shapes = (
{
closed = 1;
nodes = (
(46,-183,o),
(63,-168,o),
(80,-168,cs),
(110,-168,o),
(169,-212,o),
(212,-212,cs),
(253,-212,o),
(283,-171,o),
(303,-93,c),
(271,-80,l),
(259,-114,o),
(243,-131,o),
(226,-131,cs),
(198,-131,o),
(121,-81,o),
(87,-81,cs),
(55,-81,o),
(26,-123,o),
(0,-204,c),
(30,-216,l)
);
}
);
width = 303;
}
);
unicode = 816;
},
{
glyphname = macronbelowcomb;
lastChange = "2024-08-06 00:44:58 +0000";
layers = (
{
anchors = (
{
name = _dotbelow;
pos = (123,0);
}
);
layerId = m01;
shapes = (
{
closed = 1;
nodes = (
(274,-185,l),
(274,-112,l),
(0,-112,l),
(0,-185,l)
);
}
);
width = 274;
}
);
unicode = 817;
},
{
glyphname = doublemacronbelowcomb;
lastChange = "2024-08-06 00:44:58 +0000";
layers = (
{
anchors = (
{
name = _dotbelow;
pos = (123,0);
}
);
layerId = m01;
shapes = (
{
closed = 1;
nodes = (
(547,-185,l),
(547,-112,l),
(0,-112,l),
(0,-185,l)
);
}
);
width = 547;
}
);
unicode = 863;
},
{
glyphname = commareversedmod;
lastChange = "2024-08-06 00:44:58 +0000";
layers = (
{
layerId = m01;
shapes = (
{
closed = 1;
nodes = (
(210,484,l),
(182,515,o),
(142,563,o),
(142,589,cs),
(142,619,o),
(198,617,o),
(198,673,cs),
(198,715,o),
(166,736,o),
(136,736,cs),
(102,736,o),
(66,710,o),
(66,657,cs),
(66,580,o),
(141,501,o),
(184,457,c)
);
}
);
width = 267;
}
);
unicode = 701;
},
{
glyphname = ringhalfleft;
lastChange = "2024-08-06 00:44:58 +0000";
layers = (
{
layerId = m01;
shapes = (
{
closed = 1;
nodes = (
(196,469,l),
(196,511,l),
(164,511,o),
(122,533,o),
(122,614,cs),
(122,695,o),
(164,715,o),
(196,715,c),
(196,758,l),
(186,758,ls),
(102,758,o),
(50,697,o),
(50,614,cs),
(50,531,o),
(102,470,o),
(186,469,cs)
);
}
);
width = 235;
}
);
unicode = 703;
},
